<?xml version="1.0" standalone="no"?>
<!DOCTYPE svg PUBLIC "-//W3C//DTD SVG 1.1//EN" "http://www.w3.org/Graphics/SVG/1.1/DTD/svg11.dtd" >
<svg xmlns="http://www.w3.org/2000/svg" xmlns:xlink="http://www.w3.org/1999/xlink" version="1.1">
<metadata>
Created by FontForge 20201107 at Fri May  1 18:56:40 2015
 By 
Copyright (c) 2015 by Irina Chukina, Jovanny Lemonad. All rights reserved.
</metadata>
<defs>
<font id="Ardeco" horiz-adv-x="440" >
  <font-face 
    font-family="Ardeco"
    font-weight="400"
    font-stretch="normal"
    units-per-em="1000"
    panose-1="2 0 5 6 8 0 0 2 0 4"
    ascent="800"
    descent="-200"
    x-height="500"
    cap-height="700"
    bbox="-75 -290 750 910"
    underline-thickness="50"
    underline-position="-100"
    unicode-range="U+0020-2122"
  />
<missing-glyph horiz-adv-x="180" 
 />
    <glyph glyph-name=".notdef" horiz-adv-x="180" 
 />
    <glyph glyph-name=".null" horiz-adv-x="0" 
 />
    <glyph glyph-name="nonmarkingreturn" horiz-adv-x="333" 
 />
    <glyph glyph-name="space" unicode=" " horiz-adv-x="180" 
 />
    <glyph glyph-name="exclam" unicode="!" horiz-adv-x="220" 
d="M60 430v270h100v-270l-30 -250h-40zM70 0v80h80v-80h-80z" />
    <glyph glyph-name="quotedbl" unicode="&#x22;" horiz-adv-x="300" 
d="M60 510l-20 190h80l-20 -190h-40zM200 510l-20 190h80l-20 -190h-40z" />
    <glyph glyph-name="numbersign" unicode="#" horiz-adv-x="500" 
d="M440 700l-51 -210h101v-20h-106l-58 -240h104v-20h-109l-51 -210h-60l51 210h-90l-51 -210h-60l51 210h-101v20h106l58 240h-104v20h109l51 210h60l-51 -210h90l51 210h60zM176 230h90l58 240h-90z" />
    <glyph glyph-name="dollar" unicode="$" horiz-adv-x="410" 
d="M180 -8q-54 8 -95 53.5t-55 114.5l70 70q0 -51 7 -88.5t18.5 -64t26 -42t28.5 -21.5v363q-21 20 -41 41.5t-35.5 45t-24.5 50t-9 56.5q0 42 30.5 79.5t79.5 52.5v78h30v-71q5 1 10 1h10q2 0 5 -0.5t5 -0.5v71h30v-76q37 -11 62.5 -37.5t37.5 -56.5l-60 -70
q0 54 -11.5 86.5t-28.5 47.5v-259q21 -21 41 -44t35 -49t24.5 -56.5t9.5 -65.5q0 -74 -30.5 -124t-79.5 -72v-84h-30v75q-8 -2 -15 -3t-15 -2v-70h-30v72zM210 10q13 1 30 8v300l-30 30v-338zM210 472q12 -13 30 -28v245q-4 1 -10 1q-5 0 -10 -0.5t-10 -1.5v-216zM310 180
q0 29 -11 54.5t-29 48.5v-243q18 20 29 54.5t11 85.5zM140 590q0 -23 11 -44.5t29 -42.5v171q-18 -13 -29 -34t-11 -50z" />
    <glyph glyph-name="percent" unicode="%" horiz-adv-x="520" 
d="M60 0l350 700h50l-350 -700h-50zM145 690q-19 0 -37 -22.5t-18 -67.5t18 -67.5t37 -22.5t37 22.5t18 67.5t-18 67.5t-37 22.5zM145 710q24 0 45 -9t36.5 -24t24.5 -35t9 -42q0 -23 -9 -43t-24.5 -35t-36.5 -23.5t-45 -8.5t-45 8.5t-36.5 23.5t-24.5 35t-9 43q0 22 9 42
t24.5 35t36.5 24t45 9zM375 190q-19 0 -37 -22.5t-18 -67.5t18 -67.5t37 -22.5t37 22.5t18 67.5t-18 67.5t-37 22.5zM375 210q24 0 45 -9t36.5 -24t24.5 -35t9 -42q0 -23 -9 -43t-24.5 -35t-36.5 -23.5t-45 -8.5t-45 8.5t-36.5 23.5t-24.5 35t-9 43q0 22 9 42t24.5 35
t36.5 24t45 9z" />
    <glyph glyph-name="ampersand" unicode="&#x26;" horiz-adv-x="535" 
d="M450 330q0 -42 -5 -76t-10 -60q-7 -30 -15 -54l95 -140h-60l-60 90q-12 -28 -34 -50q-19 -19 -50.5 -34.5t-80.5 -15.5q-45 0 -82 14t-63 39.5t-40.5 60.5t-14.5 76q0 60 23 102t52 68q33 31 75 50q-22 26 -40 55q-15 24 -27.5 54.5t-12.5 60.5t10.5 55.5t29 44.5
t43 29.5t52.5 10.5t52.5 -10.5t43 -28.5t29 -41.5t10.5 -49.5q0 -38 -21 -70t-47 -55q-30 -27 -67 -50l150 -220q1 19 2 42q1 20 2 46.5t1 56.5h60zM230 10q42 0 68.5 17t42.5 38q18 24 29 55l-175 255q-21 -18 -38 -45q-14 -23 -25.5 -60t-11.5 -90q0 -41 10 -73t26 -53.5
t35.5 -32.5t38.5 -11zM180 570q0 -30 6 -55t14 -43q9 -21 20 -37q19 17 35 39q13 19 24 45.5t11 60.5q0 60 -18 85t-37 25t-37 -26.5t-18 -93.5z" />
    <glyph glyph-name="quotesingle" unicode="'" horiz-adv-x="160" 
d="M60 510l-20 190h80l-20 -190h-40z" />
    <glyph glyph-name="parenleft" unicode="(" horiz-adv-x="270" 
d="M60 300q0 79 22 151t48 128q31 65 70 121h40q-26 -55 -45 -118q-17 -55 -31 -127t-14 -155t14 -156t31 -127q19 -64 45 -117h-40q-39 56 -70 121q-26 56 -48 128t-22 151z" />
    <glyph glyph-name="parenright" unicode=")" horiz-adv-x="270" 
d="M210 300q0 -79 -22 -151t-48 -128q-31 -65 -70 -121h-40q25 53 45 117q17 54 31 127t14 156t-14 155t-31 127q-20 63 -45 118h40q39 -56 70 -121q26 -56 48 -128t22 -151z" />
    <glyph glyph-name="asterisk" unicode="*" horiz-adv-x="270" 
d="M40 565l55 35l-55 35l20 35l55 -35v65h40v-65l55 35l20 -35l-55 -35l55 -35l-20 -35l-55 35v-65h-40v65l-55 -35z" />
    <glyph glyph-name="plus" unicode="+" horiz-adv-x="350" 
d="M190 320h130v-30h-130v-140h-30v140h-130v30h130v140h30v-140z" />
    <glyph glyph-name="comma" unicode="," horiz-adv-x="160" 
d="M120 30q0 -30 -10.5 -54t-22.5 -41q-14 -20 -32 -35l-15 10q8 12 15 24q5 11 10 23t5 23q0 4 -1.5 7.5t-3.5 6.5q-3 4 -5 6h-20v80h80v-50v0z" />
    <glyph glyph-name="hyphen" unicode="-" horiz-adv-x="360" 
d="M30 290v30h300v-30h-300z" />
    <glyph glyph-name="period" unicode="." horiz-adv-x="160" 
d="M40 0v80h80v-80h-80z" />
    <glyph glyph-name="slash" unicode="/" horiz-adv-x="400" 
d="M40 0l250 700h70l-250 -700h-70z" />
    <glyph glyph-name="zero" unicode="0" horiz-adv-x="480" 
d="M240 690q-15 0 -34 -15t-36 -53.5t-28.5 -104.5t-11.5 -167t11.5 -167t28.5 -104.5t36 -53.5t34 -15t34 15t36 53.5t28.5 104.5t11.5 167t-11.5 167t-28.5 104.5t-36 53.5t-34 15zM240 710q30 0 65 -22.5t65 -67.5t50 -112.5t20 -157.5t-20 -157.5t-50 -112.5t-65 -67.5
t-65 -22.5t-65 22.5t-65 67.5t-50 112.5t-20 157.5t20 157.5t50 112.5t65 67.5t65 22.5z" />
    <glyph glyph-name="one" unicode="1" horiz-adv-x="260" 
d="M190 720v-720h-80v605l-90 -90v25z" />
    <glyph glyph-name="two" unicode="2" horiz-adv-x="380" 
d="M260 550q0 75 -26 107.5t-64 32.5q-15 0 -29.5 -8t-25.5 -26t-18 -46.5t-7 -69.5l-60 70q7 19 20 37t31 32t40.5 22.5t48.5 8.5q41 0 74.5 -12.5t57 -34t36 -50.5t12.5 -63q0 -38 -11 -78t-29.5 -80t-42 -79t-47.5 -73q-57 -82 -130 -160h270v-80h-360q73 88 130 181
q24 40 47.5 85t42 92.5t29.5 96t11 95.5z" />
    <glyph glyph-name="three" unicode="3" horiz-adv-x="390" 
d="M250 620h-210v80h300l-190 -230q41 0 77.5 -16.5t63.5 -47.5t43 -75.5t16 -100.5t-15.5 -100.5t-42 -75.5t-61 -47.5t-71.5 -16.5q-60 0 -102.5 41t-57.5 109l70 60q0 -49 8.5 -84.5t21.5 -59t29 -35t31 -11.5t31 10.5t29 36t21.5 67.5t8.5 106t-9 106t-24 67.5t-35 36
t-42 10.5h-30z" />
    <glyph glyph-name="four" unicode="4" horiz-adv-x="410" 
d="M250 700h80v-420h70v-20h-70v-260h-80v260h-240zM250 280v370l-205 -370h205z" />
    <glyph glyph-name="five" unicode="5" horiz-adv-x="410" 
d="M100 445q9 7 20 12q9 5 22 9t28 4q41 0 77.5 -16.5t63.5 -47.5t43 -75.5t16 -100.5t-15.5 -100.5t-42 -75.5t-61 -47.5t-71.5 -16.5q-60 0 -102.5 41t-57.5 109l70 60q0 -49 8.5 -84.5t21.5 -59t29 -35t31 -11.5t31 10.5t29 36t21.5 67.5t8.5 106t-8.5 106t-22.5 67.5
t-32 36t-37 10.5t-37 -8t-32 -17q-17 -11 -31 -25v300h280v-80h-250v-175z" />
    <glyph glyph-name="six" unicode="6" horiz-adv-x="430" 
d="M220 -10q-34 0 -66 17.5t-57.5 55t-41 96t-15.5 141.5v40q0 97 18.5 167t47.5 115t64.5 66.5t69.5 21.5q26 0 48.5 -8.5t40.5 -22.5t30.5 -32t20.5 -37l-60 -70q0 41 -7 69.5t-18 46.5t-25.5 26t-29.5 8t-32.5 -13.5t-33.5 -49t-28 -98t-16 -159.5q9 17 22 30
q11 11 28 20.5t40 9.5q34 0 66 -16t57.5 -45t41 -69.5t15.5 -89.5t-15.5 -89.5t-41 -69.5t-57.5 -45t-66 -16zM220 10q15 0 31 10t29 33.5t21.5 62t8.5 94.5t-8.5 94.5t-21.5 62t-29 33.5t-31 10t-31 -10t-29 -31.5t-21.5 -55.5t-8.5 -83q0 -64 8.5 -106t21.5 -67.5t29 -36
t31 -10.5z" />
    <glyph glyph-name="seven" unicode="7" horiz-adv-x="330" 
d="M90 0q0 67 14 139.5t35 141t46 130t46 108t35 73.5t14 28h-270v80h320q-42 -125 -75 -249q-14 -53 -27.5 -111t-24 -116.5t-17 -115.5t-6.5 -108h-90z" />
    <glyph glyph-name="eight" unicode="8" horiz-adv-x="430" 
d="M215 430q-13 0 -29.5 -11.5t-31 -37t-24.5 -65.5t-10 -96t10 -96t24.5 -65.5t31 -37t29.5 -11.5t29.5 11.5t31 37t24.5 65.5t10 96t-10 96t-24.5 65.5t-31 37t-29.5 11.5zM215 690q-11 0 -23.5 -7.5t-23 -22.5t-17 -37.5t-6.5 -52.5t6.5 -52.5t17 -37.5t23 -22.5
t23.5 -7.5t23.5 7.5t23 22.5t17 37.5t6.5 52.5t-6.5 52.5t-17 37.5t-23 22.5t-23.5 7.5zM215 710q34 0 61.5 -10.5t47 -29.5t30.5 -44.5t11 -55.5q0 -45 -20.5 -71t-44.5 -39t-44 -16.5l-20 -3.5q46 -9 82 -35q15 -11 30 -27.5t26.5 -39t18.5 -52t7 -66.5q0 -53 -15.5 -95.5
t-41.5 -72.5t-59 -46t-69 -16t-69 16t-59 46t-41.5 72.5t-15.5 95.5q0 50 12 85.5t30.5 60t39.5 39.5t39.5 22.5t31 10l12.5 2.5q-37 4 -65 20q-25 13 -45 39t-20 71q0 30 11 55.5t30.5 44.5t47 29.5t61.5 10.5z" />
    <glyph glyph-name="nine" unicode="9" horiz-adv-x="430" 
d="M210 710q34 0 66 -17.5t57.5 -55t41 -96.5t15.5 -141v-40q0 -98 -18.5 -168t-47.5 -115t-64.5 -66t-69.5 -21q-26 0 -48.5 8.5t-40.5 22.5t-31 32t-20 37l60 70q0 -41 7 -69.5t18 -46.5t25.5 -26t29.5 -8t32.5 13.5t33.5 49t28 97.5t16 160q-10 -17 -23 -30
q-11 -11 -27.5 -20.5t-39.5 -9.5q-34 0 -66 16t-57.5 45t-41 69.5t-15.5 89.5t15.5 89.5t41 69.5t57.5 45t66 16zM210 690q-15 0 -31 -10t-29 -33.5t-21.5 -62t-8.5 -94.5t8.5 -94.5t21.5 -62t29 -33.5t31 -10t31 10t29 31.5t21.5 55.5t8.5 83q0 64 -8.5 106t-21.5 67.5
t-29 36t-31 10.5z" />
    <glyph glyph-name="colon" unicode=":" horiz-adv-x="160" 
d="M40 0v80h80v-80h-80zM40 420v80h80v-80h-80z" />
    <glyph glyph-name="semicolon" unicode=";" horiz-adv-x="160" 
d="M40 420v80h80v-80h-80zM120 30q0 -30 -10.5 -54t-22.5 -41q-14 -20 -32 -35l-15 10q8 12 15 24q5 11 10 23t5 23q0 4 -1.5 7.5t-3.5 6.5q-3 4 -5 6h-20v80h80v-50z" />
    <glyph glyph-name="less" unicode="&#x3c;" 
d="M40 230v40l360 180v-40l-320 -160l320 -160v-40z" />
    <glyph glyph-name="equal" unicode="=" horiz-adv-x="350" 
d="M30 230v30h290v-30h-290zM30 360v30h290v-30h-290z" />
    <glyph glyph-name="greater" unicode="&#x3e;" 
d="M40 50v40l320 160l-320 160v40l360 -180v-40z" />
    <glyph glyph-name="question" unicode="?" horiz-adv-x="390" 
d="M140 0v80h80v-80h-80zM190 710q37 0 68.5 -12t54 -33t35 -48t12.5 -57q0 -40 -12 -73.5t-29.5 -63t-38.5 -57t-38.5 -56.5t-29.5 -61t-12 -69h-40q0 82 17 135t38 92.5t38 73.5t17 79q0 67 -25 98.5t-55 31.5q-15 0 -32.5 -11.5t-32.5 -36t-25 -62.5t-10 -90l-70 70
q7 30 23.5 57t39 48t50 33t57.5 12z" />
    <glyph glyph-name="at" unicode="@" horiz-adv-x="760" 
d="M435 180v41q0 -1 -5 -8t-14 -15.5t-22 -15.5t-30 -7q-18 0 -35 8t-30 22t-21 33t-8 42q0 53 32.5 84t92.5 31q8 0 14.5 -1t12.5 -2t13 -2v60q0 38 -12 54t-28 16q-17 0 -31.5 -12.5t-25.5 -27.5q-12 -18 -23 -40v75q11 6 23 10q11 4 25.5 7t31.5 3q45 0 70 -23.5
t25 -61.5v-250q41 0 77.5 16t63.5 45t43 69.5t16 89.5t-23 94t-63.5 79.5t-95 55.5t-118.5 21t-122 -26t-102 -70t-70 -102t-26 -122q0 -68 26 -128t70 -105t102 -71t122 -26q42 0 78 6t63 14q32 9 59 20v-30q-27 -11 -59 -20q-27 -8 -63 -14t-78 -6q-71 0 -136.5 29.5
t-115 79t-79 115t-29.5 136.5t29.5 136.5t79 115t115 79t136.5 29.5q79 0 142 -24t107 -64.5t67.5 -93t23.5 -108.5q0 -53 -18 -97t-49.5 -75.5t-76 -49.5t-96.5 -18h-55zM395 380q-26 0 -45.5 -23.5t-19.5 -76.5q0 -42 17.5 -63.5t32.5 -21.5q11 0 21 7.5t18 16.5
q9 11 16 24v131q-7 1 -13 3q-6 1 -12.5 2t-14.5 1z" />
    <glyph glyph-name="A" unicode="A" horiz-adv-x="470" 
d="M90 400q0 75 17.5 131t47.5 93.5t70 56.5t85 19h90v-700h-30v420h-200v-20v-100q0 -86 -14 -145.5t-37.5 -96t-54 -52.5t-64.5 -16v20q11 0 26.5 13t29.5 46t24 89t10 142v100zM310 680q-23 0 -46 -13.5t-42.5 -42.5t-33.5 -74.5t-18 -109.5h200v240h-60z" />
    <glyph glyph-name="B" unicode="B" 
d="M70 0v700h80q56 0 96 -10t65.5 -26t37 -35.5t11.5 -38.5q0 -34 -25 -53.5t-55 -30.5q-35 -12 -80 -16q56 -10 100 -38q19 -12 37 -30t32 -42.5t22.5 -56.5t8.5 -73q0 -56 -18 -102t-51 -79t-79 -51t-102 -18h-80zM310 250q0 60 -12.5 103.5t-34 71.5t-50.5 41.5t-63 13.5
v-460q34 0 63 13.5t50.5 41.5t34 71.5t12.5 103.5zM280 590q0 38 -31 64t-99 26v-180q68 0 99 26t31 64z" />
    <glyph glyph-name="C" unicode="C" horiz-adv-x="450" 
d="M250 10q15 0 32.5 12t32.5 38t25 68t10 102l70 -70q-8 -38 -24 -69t-38.5 -53.5t-50 -35t-57.5 -12.5q-34 0 -71 22.5t-68 67.5t-51 112.5t-20 157.5t20 157.5t51 112.5t68 67.5t71 22.5q30 0 57.5 -12t50 -31.5t38.5 -45t24 -51.5l-70 -70q0 49 -10 84.5t-25 59
t-32.5 35t-32.5 11.5q-19 0 -40 -15t-39 -53.5t-29.5 -104.5t-11.5 -167t11.5 -167t29.5 -104.5t39 -53.5t40 -15z" />
    <glyph glyph-name="D" unicode="D" horiz-adv-x="470" 
d="M180 700q49 0 94 -22.5t79.5 -66.5t55.5 -109.5t21 -151.5t-21 -151.5t-55.5 -109.5t-79.5 -66.5t-94 -22.5h-110v700h110zM150 680v-660h30q34 0 63 15t50.5 52.5t34 101t12.5 161.5q0 97 -12.5 161t-34 101.5t-50.5 52.5t-63 15h-30z" />
    <glyph glyph-name="E" unicode="E" horiz-adv-x="360" 
d="M70 0v700h280v-20h-200v-180h180v-20h-180v-460h200v-20h-280z" />
    <glyph glyph-name="F" unicode="F" horiz-adv-x="360" 
d="M70 0v700h280v-20h-200v-180h180v-20h-180v-480h-80z" />
    <glyph glyph-name="G" unicode="G" horiz-adv-x="470" 
d="M250 10q19 0 37 12t32 45.5t22.5 94t8.5 158.5h-100v20h180v-20q0 -90 -15.5 -153t-41 -102t-57.5 -57t-66 -18t-71 22.5t-68 67.5t-51 112.5t-20 157.5t20 157.5t51 112.5t68 67.5t71 22.5q30 0 57.5 -12t50 -31.5t38.5 -45t24 -51.5l-70 -70q0 49 -10 84.5t-25 59
t-32.5 35t-32.5 11.5q-19 0 -40 -15t-39 -53.5t-29.5 -104.5t-11.5 -167t11.5 -167t29.5 -104.5t39 -53.5t40 -15z" />
    <glyph glyph-name="H" unicode="H" horiz-adv-x="500" 
d="M70 0v700h80v-220h200v220h80v-700h-80v460h-200v-460h-80z" />
    <glyph glyph-name="I" unicode="I" horiz-adv-x="220" 
d="M70 0v700h80v-700h-80z" />
    <glyph glyph-name="J" unicode="J" horiz-adv-x="370" 
d="M310 200q0 -49 -14 -88t-36.5 -66t-51 -41.5t-58.5 -14.5q-26 0 -50 10.5t-43.5 29.5t-34.5 44.5t-22 55.5l70 70q0 -53 8.5 -89t20.5 -58.5t26 -32.5t25 -10q15 0 29.5 8.5t25.5 30t18 58.5t7 93v480h-130v20h210v-500z" />
    <glyph glyph-name="K" unicode="K" 
d="M70 0v700h80v-200q39 7 70 32q26 20 48 60t22 108h80q0 -45 -13.5 -78t-33.5 -56.5t-43 -38t-43 -23t-33 -11.5l-13 -3l16.5 -7t41 -26.5t52.5 -54t52.5 -89t40.5 -131.5t16 -182h-90q0 82 -7.5 146.5t-19.5 114t-27 85t-31 59.5q-38 57 -85 75v-480h-80z" />
    <glyph glyph-name="L" unicode="L" horiz-adv-x="360" 
d="M150 700v-680h210v-20h-290v700h80z" />
    <glyph glyph-name="M" unicode="M" horiz-adv-x="570" 
d="M100 580v-580h-30v710l215 -246l215 246v-710h-80v580l-160 -180z" />
    <glyph glyph-name="N" unicode="N" horiz-adv-x="500" 
d="M350 450l-200 220v-670h-80v700h80l200 -220v220h80v-700h-80v450z" />
    <glyph glyph-name="O" unicode="O" horiz-adv-x="500" 
d="M460 350q0 -90 -20 -157.5t-51 -112.5t-68 -67.5t-71 -22.5t-71 22.5t-68 67.5t-51 112.5t-20 157.5t20 157.5t51 112.5t68 67.5t71 22.5t71 -22.5t68 -67.5t51 -112.5t20 -157.5zM130 350q0 -101 11.5 -167t29.5 -104.5t39 -53.5t40 -15t40 15t39 53.5t29.5 104.5
t11.5 167t-11.5 167t-29.5 104.5t-39 53.5t-40 15t-40 -15t-39 -53.5t-29.5 -104.5t-11.5 -167z" />
    <glyph glyph-name="P" unicode="P" horiz-adv-x="400" 
d="M70 700h80q64 0 108 -10.5t71 -27t39 -38.5t12 -44q0 -23 -12 -44.5t-39 -38t-71 -27t-108 -10.5v-460h-80v700zM290 580q0 45 -32.5 72.5t-107.5 27.5v-200q75 0 107.5 27.5t32.5 72.5z" />
    <glyph glyph-name="Q" unicode="Q" horiz-adv-x="500" 
d="M460 350q0 -60 -9.5 -110t-25.5 -90t-37 -70t-44 -50q19 -24 38 -42t38 -18q14 0 22 5q4 2 8 5q-8 -23 -22.5 -36.5t-37.5 -13.5q-25 0 -47.5 22t-44.5 49q-25 -11 -48 -11q-34 0 -71 22.5t-68 67.5t-51 112.5t-20 157.5t20 157.5t51 112.5t68 67.5t71 22.5t71 -22.5
t68 -67.5t51 -112.5t20 -157.5zM130 350q0 -101 11.5 -166t28.5 -103q8 22 22.5 35.5t37.5 13.5t45.5 -21t44.5 -48q21 37 35.5 106t14.5 183q0 101 -11.5 167t-29.5 104.5t-39 53.5t-40 15t-40 -15t-39 -53.5t-29.5 -104.5t-11.5 -167zM200 90q-14 0 -21 -4.5t-9 -5.5
q18 -39 39.5 -54.5t40.5 -15.5q17 0 33 10q-21 28 -42 49t-41 21z" />
    <glyph glyph-name="R" unicode="R" 
d="M70 0v700h80q60 0 102 -10t68 -26t38 -35.5t12 -38.5q0 -38 -38.5 -70t-121.5 -40q56 -25 100 -86q19 -26 37 -62t32 -84t22.5 -109.5t8.5 -138.5h-90q0 82 -7.5 146.5t-19.5 114t-27 85t-31 59.5q-38 57 -85 75v-480h-80zM280 590q0 38 -31 64t-99 26v-180q68 0 99 26
t31 64z" />
    <glyph glyph-name="S" unicode="S" horiz-adv-x="410" 
d="M230 710q26 0 48.5 -8.5t40.5 -22.5t30.5 -32t20.5 -37l-60 -70q0 41 -7 69.5t-18 46.5t-25.5 26t-29.5 8q-38 0 -64 -27.5t-26 -72.5q0 -30 18 -56.5t44.5 -53.5t57.5 -55t57.5 -61.5t44.5 -73.5t18 -90q0 -49 -14 -88t-38.5 -66t-57.5 -41.5t-70 -14.5
q-30 0 -57.5 12.5t-50 35t-39 53.5t-23.5 69l70 70q0 -60 10 -102t25 -68t32.5 -38t32.5 -12q45 0 77.5 40t32.5 130q0 37 -18 69t-44.5 61t-57.5 57.5t-57.5 59.5t-44.5 65.5t-18 77.5q0 26 12.5 51.5t34 45t50.5 31.5t63 12z" />
    <glyph glyph-name="T" unicode="T" horiz-adv-x="380" 
d="M150 0v680h-150v20h380v-20h-150v-680h-80z" />
    <glyph glyph-name="U" unicode="U" horiz-adv-x="500" 
d="M140 300q0 -86 10 -142t26 -89t35.5 -46t38.5 -13t38.5 13t35.5 46t26 89t10 142v400h80v-400q0 -83 -15.5 -141.5t-42 -96t-61 -55t-71.5 -17.5q-38 0 -72 17.5t-60.5 55t-42 96t-15.5 141.5v400h80v-400z" />
    <glyph glyph-name="V" unicode="V" 
d="M10 700h85l155 -640l155 640h25l-170 -700h-80z" />
    <glyph glyph-name="W" unicode="W" horiz-adv-x="700" 
d="M255 0h-75l-180 700h80l165 -640l130 505l135 -505l165 640h25l-180 -700h-75l-95 370z" />
    <glyph glyph-name="X" unicode="X" horiz-adv-x="410" 
d="M180 305l-145 -305h-25l160 335l-150 365h90l110 -260l125 260h25l-140 -290l170 -410h-90z" />
    <glyph glyph-name="Y" unicode="Y" horiz-adv-x="415" 
d="M415 700l-160 -210v-490h-80v470l-175 230h95l145 -190l145 190h30z" />
    <glyph glyph-name="Z" unicode="Z" horiz-adv-x="380" 
d="M370 700l-270 -680h270v-20h-360l270 680h-250v20h340z" />
    <glyph glyph-name="bracketleft" unicode="[" horiz-adv-x="250" 
d="M230 700v-20h-80v-760h80v-20h-160v800h160z" />
    <glyph glyph-name="backslash" unicode="\" horiz-adv-x="400" 
d="M290 0l-250 700h70l250 -700h-70z" />
    <glyph glyph-name="bracketright" unicode="]" horiz-adv-x="250" 
d="M180 700v-800h-160v20h80v760h-80v20h160z" />
    <glyph glyph-name="asciicircum" unicode="^" horiz-adv-x="370" 
d="M30 380l120 320h70l120 -320h-60l-95 255l-95 -255h-60z" />
    <glyph glyph-name="underscore" unicode="_" horiz-adv-x="320" 
d="M20 -160v50h280v-50h-280z" />
    <glyph glyph-name="grave" unicode="`" horiz-adv-x="215" 
d="M175 610l-145 40l20 50l135 -70z" />
    <glyph glyph-name="a" unicode="a" horiz-adv-x="400" 
d="M340 0h-80v60q-13 -20 -28 -35q-14 -14 -31.5 -24.5t-40.5 -10.5q-26 0 -49.5 11t-41.5 30.5t-28.5 47t-10.5 61.5q0 83 44.5 126.5t135.5 43.5q8 0 16 -1.5t16 -3.5q9 -3 18 -5v90q0 53 -18.5 76.5t-41.5 23.5t-43 -17.5t-35 -37.5q-18 -25 -32 -55v100q15 8 33 15
q15 5 35 10t43 5q67 0 103 -33.5t36 -86.5v-390zM210 290q-19 0 -37 -9.5t-32 -28t-22.5 -47t-8.5 -65.5q0 -64 22 -92t48 -28q15 0 29.5 10.5t25.5 24.5q13 15 25 35v190q-9 2 -18 5q-8 2 -16 3.5t-16 1.5z" />
    <glyph glyph-name="b" unicode="b" horiz-adv-x="450" 
d="M150 0h-80v700h80v-260q9 19 23 35q12 13 29.5 24t42.5 11q28 0 57.5 -16.5t53.5 -49.5t39 -81.5t15 -112.5t-15 -112.5t-39 -81.5t-53.5 -49.5t-57.5 -16.5q-25 0 -42.5 10.5t-29.5 24.5q-14 15 -23 35v-60zM150 90q9 -20 21 -35q11 -14 25.5 -24.5t33.5 -10.5
q15 0 31 10.5t29 37t21.5 70.5t8.5 112q0 67 -8.5 111.5t-21.5 71t-29 37t-31 10.5q-19 0 -33.5 -11t-25.5 -24q-12 -16 -21 -35v-320z" />
    <glyph glyph-name="c" unicode="c" horiz-adv-x="390" 
d="M215 510q28 0 53 -10t44 -25t31.5 -32.5t16.5 -32.5l-65 -60q0 34 -8.5 60t-20.5 44t-26 27t-25 9q-13 0 -28 -11.5t-27.5 -39t-21 -74t-8.5 -115.5t8.5 -115.5t21 -74t27.5 -39t28 -11.5q11 0 25 9.5t26 30.5t20.5 53t8.5 77l65 -60q-4 -26 -16.5 -49.5t-31.5 -41.5
t-44 -28.5t-53 -10.5q-32 0 -63.5 16.5t-56 49.5t-40 81.5t-15.5 112.5t15.5 112.5t40 81.5t56 49.5t63.5 16.5z" />
    <glyph glyph-name="d" unicode="d" horiz-adv-x="450" 
d="M300 60q-9 -20 -23 -35q-12 -14 -30 -24.5t-42 -10.5q-28 0 -57.5 16.5t-53.5 49.5t-39 81.5t-15 112.5t15 112.5t39 81.5t53.5 49.5t57.5 16.5q24 0 42 -11t30 -24q14 -16 23 -35v260h80v-700h-80v60zM300 410q-9 19 -21 35q-11 13 -25.5 24t-33.5 11q-15 0 -31 -10.5
t-29 -37t-21.5 -71t-8.5 -111.5q0 -68 8.5 -112t21.5 -70.5t29 -37t31 -10.5q19 0 33.5 10.5t25.5 24.5q12 15 21 35v320z" />
    <glyph glyph-name="e" unicode="e" horiz-adv-x="420" 
d="M130 260v-10q0 -69 8.5 -115.5t21 -74t27.5 -39t28 -11.5q11 0 25 9.5t26 30.5t20.5 53t8.5 77l65 -60q-4 -26 -16.5 -49.5t-31.5 -41.5t-44 -28.5t-53 -10.5q-32 0 -63.5 16.5t-56 49.5t-40 81.5t-15.5 112.5t15.5 112.5t39.5 81.5t54.5 49.5t60.5 16.5t60.5 -16.5
t54.5 -48.5t39.5 -78.5t15.5 -106.5h-250zM210 490q-11 0 -24 -9.5t-25 -33.5t-20.5 -64.5t-10.5 -102.5h159q-1 61 -9.5 101.5t-20.5 64.5t-25 34t-24 10z" />
    <glyph glyph-name="f" unicode="f" horiz-adv-x="265" 
d="M85 460h-65v20h65v90q0 68 41 109t109 41q15 0 27.5 -3t22.5 -7q11 -4 20 -10v-90q-9 25 -20 45q-10 17 -22.5 31t-27.5 14q-11 0 -23.5 -7.5t-23 -23.5t-17 -40.5t-6.5 -58.5v-90h85v-20h-85v-460h-80v460z" />
    <glyph glyph-name="g" unicode="g" 
d="M380 -30q0 -68 -14 -117t-37 -80.5t-52.5 -47t-61.5 -15.5q-28 0 -53 10.5t-44 28.5t-31.5 41.5t-16.5 49.5l65 60q0 -45 8.5 -77t20.5 -53t26 -30.5t25 -9.5q13 0 28 11.5t27.5 39t21 74t8.5 115.5v90q-9 -20 -23 -35q-12 -14 -30 -24.5t-42 -10.5q-28 0 -57.5 16.5
t-53.5 49.5t-39 81.5t-15 112.5t15 112.5t39 81.5t53.5 49.5t57.5 16.5q24 0 42 -11t30 -24q14 -16 23 -35v60h80v-530zM300 410q-9 19 -21 35q-11 13 -25.5 24t-33.5 11q-15 0 -31 -10.5t-29 -37t-21.5 -71t-8.5 -111.5q0 -68 8.5 -112t21.5 -70.5t29 -37t31 -10.5
q19 0 33.5 10.5t25.5 24.5q12 15 21 35v320z" />
    <glyph glyph-name="h" unicode="h" horiz-adv-x="450" 
d="M390 0h-80v390q0 45 -20 67.5t-50 22.5q-19 0 -35.5 -11t-28.5 -24q-14 -16 -26 -35v-410h-80v700h80v-260q12 19 29 35q14 13 34.5 24t46.5 11q60 0 95 -33.5t35 -86.5v-390z" />
    <glyph glyph-name="i" unicode="i" horiz-adv-x="190" 
d="M135 0h-80v500h80v-500zM95 700q23 0 36.5 -13.5t13.5 -36.5t-13.5 -36.5t-36.5 -13.5t-36.5 13.5t-13.5 36.5t13.5 36.5t36.5 13.5z" />
    <glyph glyph-name="j" unicode="j" horiz-adv-x="200" 
d="M145 -140q0 -68 -41 -109t-109 -41q-15 0 -28 3t-22 7q-11 4 -20 10v90q9 -26 20 -45q9 -17 22 -31t28 -14q11 0 23.5 7.5t23 23.5t17 40.5t6.5 58.5v640h80v-640zM105 700q23 0 36.5 -13.5t13.5 -36.5t-13.5 -36.5t-36.5 -13.5t-36.5 13.5t-13.5 36.5t13.5 36.5
t36.5 13.5z" />
    <glyph glyph-name="k" unicode="k" horiz-adv-x="400" 
d="M70 0v700h80v-360q30 2 55 20q20 15 37.5 47.5t17.5 92.5h80q0 -60 -25 -94.5t-55 -50.5q-35 -20 -80 -25q53 -8 95 -45q18 -16 35 -40t30.5 -58.5t21.5 -80.5t8 -106h-90q0 58 -5.5 102.5t-15 78t-21 57t-23.5 38.5q-29 36 -65 44v-320h-80z" />
    <glyph glyph-name="l" unicode="l" horiz-adv-x="220" 
d="M150 700v-700h-80v700h80z" />
    <glyph glyph-name="m" unicode="m" horiz-adv-x="660" 
d="M600 0h-80v390q0 45 -19.5 67.5t-45.5 22.5q-17 0 -32 -11t-27 -24q-14 -16 -26 -35v-410h-80v390q0 45 -19.5 67.5t-45.5 22.5q-17 0 -32 -11t-27 -24q-14 -16 -26 -35v-410h-80v500h80v-60q12 19 28 35q14 13 33 24t44 11q35 0 58.5 -12.5t37.5 -27.5q16 -18 24 -40
q14 22 31 40q14 15 34 27.5t45 12.5q57 0 91 -33.5t34 -86.5v-390z" />
    <glyph glyph-name="n" unicode="n" 
d="M380 0h-80v390q0 45 -20 67.5t-50 22.5q-19 0 -35.5 -11t-28.5 -24q-14 -16 -26 -35v-410h-80v500h80v-60q12 19 29 35q14 13 34.5 24t46.5 11q60 0 95 -33.5t35 -86.5v-390z" />
    <glyph glyph-name="o" unicode="o" horiz-adv-x="430" 
d="M215 490q-13 0 -28 -11t-27.5 -38t-21 -73.5t-8.5 -117.5t8.5 -117.5t21 -73.5t27.5 -38t28 -11t28 11t27.5 38t21 73.5t8.5 117.5t-8.5 117.5t-21 73.5t-27.5 38t-28 11zM215 -10q-32 0 -63.5 16.5t-56 49.5t-40 81.5t-15.5 112.5t15.5 112.5t40 81.5t56 49.5t63.5 16.5
t63.5 -16.5t56 -49.5t40 -81.5t15.5 -112.5t-15.5 -112.5t-40 -81.5t-56 -49.5t-63.5 -16.5z" />
    <glyph glyph-name="p" unicode="p" 
d="M140 440q9 19 23 35q12 13 29.5 24t42.5 11q28 0 57.5 -16.5t53.5 -49.5t39 -81.5t15 -112.5t-15 -112.5t-39 -81.5t-53.5 -49.5t-57.5 -16.5q-25 0 -42.5 10.5t-29.5 24.5q-14 15 -23 35v-330h-80v770h80v-60zM140 90q9 -20 21 -35q11 -14 25.5 -24.5t33.5 -10.5
q15 0 31 10.5t29 37t21.5 70.5t8.5 112q0 67 -8.5 111.5t-21.5 71t-29 37t-31 10.5q-19 0 -33.5 -11t-25.5 -24q-12 -16 -21 -35v-320z" />
    <glyph glyph-name="q" unicode="q" 
d="M300 500h80v-770h-80v330q-9 -20 -23 -35q-12 -14 -30 -24.5t-42 -10.5q-28 0 -57.5 16.5t-53.5 49.5t-39 81.5t-15 112.5t15 112.5t39 81.5t53.5 49.5t57.5 16.5q24 0 42 -11t30 -24q14 -16 23 -35v60zM300 410q-9 19 -21 35q-11 13 -25.5 24t-33.5 11q-15 0 -31 -10.5
t-29 -37t-21.5 -71t-8.5 -111.5q0 -68 8.5 -112t21.5 -70.5t29 -37t31 -10.5q19 0 33.5 10.5t25.5 24.5q12 15 21 35v320z" />
    <glyph glyph-name="r" unicode="r" horiz-adv-x="300" 
d="M290 410q-9 17 -20 30q-10 11 -22.5 20.5t-27.5 9.5t-29.5 -11t-25.5 -24q-13 -16 -25 -35v-400h-80v500h80v-60q11 19 27 35q13 13 31.5 24t41.5 11q11 0 20 -1.5t16 -3.5q8 -3 14 -5v-90z" />
    <glyph glyph-name="s" unicode="s" horiz-adv-x="360" 
d="M270 110q0 27 -16 48.5t-40 40t-51.5 36.5t-51.5 40t-40 49.5t-16 65.5q0 53 35.5 86.5t99.5 33.5q28 0 51.5 -8.5t40.5 -21.5t28 -29t15 -31l-55 -50q0 60 -25 90t-55 30q-34 0 -54.5 -21t-20.5 -59q0 -25 16 -44.5t40 -37t51.5 -36t51.5 -41t40 -52t16 -69.5
q0 -30 -10.5 -55.5t-30 -44.5t-46 -29.5t-58.5 -10.5t-58.5 10.5t-47 28.5t-33 41.5t-16.5 49.5l65 60q0 -45 8.5 -77t21.5 -53t29 -30.5t31 -9.5q34 0 59.5 27.5t25.5 72.5z" />
    <glyph glyph-name="t" unicode="t" horiz-adv-x="305" 
d="M85 630h80v-130h85v-20h-85v-350q0 -34 6.5 -58.5t17 -40.5t23 -23.5t23.5 -7.5q15 0 27.5 14t22.5 31q11 19 20 45v-90q-9 -6 -20 -10q-10 -4 -22.5 -7t-27.5 -3q-68 0 -109 41t-41 109v350h-65v20h65v130z" />
    <glyph glyph-name="u" unicode="u" 
d="M60 500h80v-390q0 -45 20 -67.5t50 -22.5q19 0 35.5 10.5t28.5 24.5q14 15 26 35v410h80v-500h-80v60q-12 -20 -29 -35q-14 -14 -34.5 -24.5t-46.5 -10.5q-60 0 -95 33.5t-35 86.5v390z" />
    <glyph glyph-name="v" unicode="v" horiz-adv-x="380" 
d="M370 500l-140 -500h-80l-140 500h80l125 -450l125 450h30z" />
    <glyph glyph-name="w" unicode="w" horiz-adv-x="585" 
d="M320 435l110 -380l130 445h25l-145 -500h-75l-75 250l-70 -250h-75l-145 500h80l130 -445z" />
    <glyph glyph-name="x" unicode="x" horiz-adv-x="355" 
d="M315 500l-115 -210l145 -290h-85l-105 209l-115 -209h-30l131 238l-131 262h85l90 -181l100 181h30z" />
    <glyph glyph-name="y" unicode="y" horiz-adv-x="400" 
d="M195 -30l-164 530h79l125 -400l125 400h30l-190 -610q-17 -53 -33 -87.5t-34 -55t-38.5 -29t-44.5 -8.5q-16 0 -28 5q-7 2 -12 5v90q9 -14 19 -25q8 -10 19 -17.5t22 -7.5q26 0 51.5 27.5t48.5 102.5z" />
    <glyph glyph-name="z" unicode="z" horiz-adv-x="330" 
d="M10 0l220 480h-210v20h300l-220 -480h210v-20h-300z" />
    <glyph glyph-name="braceleft" unicode="{" horiz-adv-x="300" 
d="M110 180q0 26 -6.5 46.5t-17 34.5t-23 21.5t-23.5 7.5h-20v20h20q11 0 23.5 7.5t23 21.5t17 34.5t6.5 46.5v150q0 26 11 49.5t30.5 41.5t47 28.5t61.5 10.5h20v-20h-20q-11 0 -23.5 -7.5t-23 -21.5t-17 -34.5t-6.5 -46.5v-150q0 -34 -15.5 -57t-34.5 -37q-22 -17 -50 -26
q28 -9 50 -26q19 -14 34.5 -37t15.5 -57v-150q0 -26 6.5 -46.5t17 -34.5t23 -21.5t23.5 -7.5h20v-20h-20q-34 0 -61.5 10.5t-47 28.5t-30.5 41.5t-11 49.5v150z" />
    <glyph glyph-name="bar" unicode="|" horiz-adv-x="170" 
d="M100 750v-800h-30v800h30z" />
    <glyph glyph-name="braceright" unicode="}" horiz-adv-x="300" 
d="M190 30q0 -26 -11 -49.5t-30.5 -41.5t-47 -28.5t-61.5 -10.5h-20v20h20q11 0 23.5 7.5t23 21.5t17 34.5t6.5 46.5v150q0 34 15.5 57t34.5 37q22 17 50 26q-28 9 -50 26q-19 14 -34.5 37t-15.5 57v150q0 26 -6.5 46.5t-17 34.5t-23 21.5t-23.5 7.5h-20v20h20
q34 0 61.5 -10.5t47 -28.5t30.5 -41.5t11 -49.5v-150q0 -26 6.5 -46.5t17 -34.5t23 -21.5t23.5 -7.5h20v-20h-20q-11 0 -23.5 -7.5t-23 -21.5t-17 -34.5t-6.5 -46.5v-150z" />
    <glyph glyph-name="asciitilde" unicode="~" horiz-adv-x="380" 
d="M260 370q45 0 67.5 -25t22.5 -85q-9 14 -20 25q-10 9 -22.5 17t-27.5 8q-19 0 -38 -6.5t-38.5 -14t-40.5 -13.5t-43 -6q-45 0 -67.5 25t-22.5 85q9 -14 20 -25q9 -10 22 -17.5t28 -7.5q19 0 38 6t38.5 13.5t40 14t43.5 6.5z" />
    <glyph glyph-name="nonbreakingspace" unicode="&#xa0;" horiz-adv-x="180" 
 />
    <glyph glyph-name="currency" unicode="&#xa4;" horiz-adv-x="420" 
d="M20 400h70v60h-70v20h70v220h80q64 0 108 -10.5t71 -27t39 -38.5t12 -44q0 -23 -12 -44.5t-39 -38t-71 -27t-108 -10.5v-60h170v-20h-170v-380h-80v380h-70v20zM310 580q0 45 -32.5 72.5t-107.5 27.5v-200q75 0 107.5 27.5t32.5 72.5z" />
    <glyph glyph-name="brokenbar" unicode="&#xa6;" horiz-adv-x="190" 
d="M80 -50v350h30v-350h-30zM110 750v-350h-30v350h30z" />
    <glyph glyph-name="section" unicode="&#xa7;" horiz-adv-x="385" 
d="M280 110q0 27 -16.5 48.5t-41.5 40t-54.5 36.5t-54.5 40t-41.5 49.5t-16.5 65.5q0 23 8 40.5t19 31.5q12 15 28 28q-10 10 -18 24q-7 12 -12 31t-5 45q0 53 35.5 86.5t99.5 33.5q28 0 51.5 -8.5t40.5 -21.5t28 -29t15 -31l-55 -50q0 60 -25 90t-55 30q-34 0 -54.5 -21
t-20.5 -59q0 -25 15 -44.5t38 -37t49.5 -36t49.5 -41t38 -52t15 -69.5q0 -23 -6 -41.5t-14 -31.5q-9 -16 -20 -27q11 -10 20 -24q8 -12 14 -31t6 -45q0 -30 -10.5 -55.5t-30 -44.5t-46 -29.5t-58.5 -10.5t-58.5 10.5t-47 28.5t-33 41.5t-16.5 49.5l65 60q0 -45 8.5 -77
t21.5 -53t29 -30.5t31 -9.5q34 0 59.5 27.5t25.5 72.5zM280 310q0 26 -15 46t-37.5 38t-49 35.5t-48.5 40.5q-4 -6 -8 -15q-3 -8 -5 -19t-2 -26q0 -26 15 -46t37.5 -36.5t49 -32.5t49.5 -35q-1 0 6.5 13.5t7.5 36.5z" />
    <glyph glyph-name="copyright" unicode="&#xa9;" horiz-adv-x="780" 
d="M30 350q0 71 29.5 136.5t79 115t115 79t136.5 29.5t136.5 -29.5t115 -79t79 -115t29.5 -136.5t-29.5 -136.5t-79 -115t-115 -79t-136.5 -29.5t-136.5 29.5t-115 79t-79 115t-29.5 136.5zM710 350q0 64 -26 122t-70 102t-102 70t-122 26t-122 -26t-102 -70t-70 -102
t-26 -122t26 -122t70 -102t102 -70t122 -26t122 26t102 70t70 102t26 122zM390 535q19 0 36 -7.5t30.5 -19t22.5 -24.5t11 -24l-50 -40q0 52 -17.5 76t-32.5 24q-9 0 -19.5 -8t-19.5 -27.5t-15 -51t-6 -78.5t6 -78.5t15 -51t19.5 -27.5t19.5 -8t19 6t18 19.5t13 35.5t5 54
l50 -40q-2 -17 -11 -33t-23 -29t-32 -20.5t-39 -7.5q-23 0 -44.5 11t-38 33.5t-27 56.5t-10.5 79t10.5 78.5t27 56t38 34t44.5 11.5z" />
    <glyph glyph-name="guillemotleft" unicode="&#xab;" horiz-adv-x="380" 
d="M220 70l-20 -20l-170 200l170 200l20 -20l-151 -180zM350 70l-20 -20l-170 200l170 200l20 -20l-151 -180z" />
    <glyph glyph-name="logicalnot" unicode="&#xac;" horiz-adv-x="370" 
d="M340 240h-30v100h-280v30h310v-130z" />
    <glyph glyph-name="uni00AD" unicode="&#xad;" horiz-adv-x="360" 
d="M30 290v30h300v-30h-300z" />
    <glyph glyph-name="registered" unicode="&#xae;" horiz-adv-x="780" 
d="M30 350q0 71 29.5 136.5t79 115t115 79t136.5 29.5t136.5 -29.5t115 -79t79 -115t29.5 -136.5t-29.5 -136.5t-79 -115t-115 -79t-136.5 -29.5t-136.5 29.5t-115 79t-79 115t-29.5 136.5zM710 350q0 64 -26 122t-70 102t-102 70t-122 26t-122 -26t-102 -70t-70 -102
t-26 -122t26 -122t70 -102t102 -70t122 -26t122 26t102 70t70 102t26 122zM300 530h55q34 0 57 -5t37 -13.5t20 -19.5t6 -22q0 -19 -15 -30.5t-33 -18.5q-21 -8 -47 -11q34 -5 60 -31q11 -11 22 -27.5t19.5 -40.5t13.5 -56.5t5 -74.5h-60q0 82 -13.5 127t-29.5 67
q-18 25 -42 30v-224h-55v350zM355 420q34 0 49.5 13.5t15.5 36.5q0 19 -15.5 32t-49.5 13v-95z" />
    <glyph glyph-name="degree" unicode="&#xb0;" horiz-adv-x="290" 
d="M250 600q0 -23 -8.5 -43t-23 -35t-33.5 -23.5t-40 -8.5t-40 8.5t-33.5 23.5t-23 35t-8.5 43q0 22 8.5 42t23 35t33.5 24t40 9t40 -9t33.5 -24t23 -35t8.5 -42zM210 600q0 38 -19.5 59t-45.5 21t-45.5 -21t-19.5 -59t19.5 -59t45.5 -21t45.5 21t19.5 59z" />
    <glyph glyph-name="plusminus" unicode="&#xb1;" horiz-adv-x="350" 
d="M30 100v30h130v160h-130v30h130v130h30v-130h130v-30h-130v-160h130v-30h-290z" />
    <glyph glyph-name="mu" unicode="&#xb5;" 
d="M60 -270v770h80v-390q0 -45 20 -67.5t50 -22.5q19 0 35.5 10.5t28.5 24.5q14 15 26 35v410h80v-500h-80v60q-12 -20 -29 -35q-14 -14 -34.5 -24.5t-46.5 -10.5q-11 0 -20 3t-16 7q-8 4 -14 10v-280h-80z" />
    <glyph glyph-name="mu" unicode="&#x3bc;" 
d="M60 -270v770h80v-390q0 -45 20 -67.5t50 -22.5q19 0 35.5 10.5t28.5 24.5q14 15 26 35v410h80v-500h-80v60q-12 -20 -29 -35q-14 -14 -34.5 -24.5t-46.5 -10.5q-11 0 -20 3t-16 7q-8 4 -14 10v-280h-80z" />
    <glyph glyph-name="paragraph" unicode="&#xb6;" horiz-adv-x="350" 
d="M240 0v680h-60v-680h-30v480q-26 0 -48 8.5t-38 23.5t-25 35t-9 43q0 22 9 42t25 35t38 24t48 9h180v-20h-60v-680h-30z" />
    <glyph glyph-name="periodcentered" unicode="&#xb7;" horiz-adv-x="180" 
d="M50 310v80h80v-80h-80z" />
    <glyph glyph-name="guillemotright" unicode="&#xbb;" horiz-adv-x="380" 
d="M181 250l-151 180l20 20l170 -200l-170 -200l-20 20zM311 250l-151 180l20 20l170 -200l-170 -200l-20 20z" />
    <glyph glyph-name="afii10023" unicode="&#x401;" horiz-adv-x="360" 
d="M70 0v700h280v-20h-200v-180h180v-20h-180v-460h200v-20h-280zM190 830q0 -15 -12.5 -27.5t-27.5 -12.5t-27.5 12.5t-12.5 27.5t12.5 27.5t27.5 12.5t27.5 -12.5t12.5 -27.5zM330 830q0 -15 -12.5 -27.5t-27.5 -12.5t-27.5 12.5t-12.5 27.5t12.5 27.5t27.5 12.5
t27.5 -12.5t12.5 -27.5z" />
    <glyph glyph-name="afii10051" unicode="&#x402;" horiz-adv-x="500" 
d="M110 0v680h-110v20h340v-20h-150v-260q12 8 26 15q12 5 28.5 10t35.5 5q37 0 70 -14.5t57.5 -40.5t38.5 -63t14 -82v-150q0 -68 -41 -109t-109 -41v20q11 0 23.5 7.5t23 23.5t17 40.5t6.5 58.5v150q0 49 -8.5 83t-22.5 55.5t-32 31.5t-37 10t-35.5 -5.5t-28.5 -12.5
q-14 -8 -26 -17v-395h-80z" />
    <glyph glyph-name="afii10052" unicode="&#x403;" horiz-adv-x="360" 
d="M155 810l135 70l20 -50l-145 -40zM70 0v700h290v-20h-210v-680h-80z" />
    <glyph glyph-name="afii10053" unicode="&#x404;" horiz-adv-x="450" 
d="M250 10q15 0 32.5 12t32.5 38t25 68t10 102l70 -70q-8 -38 -24 -69t-38.5 -53.5t-50 -35t-57.5 -12.5q-34 0 -71 22.5t-68 67.5t-51 112.5t-20 157.5t20 157.5t51 112.5t68 67.5t71 22.5q30 0 57.5 -12t50 -31.5t38.5 -45t24 -51.5l-70 -70q0 49 -10 84.5t-25 59
t-32.5 35t-32.5 11.5q-18 0 -37.5 -13.5t-36.5 -46.5t-29.5 -89t-15.5 -141h158v-20h-158q0 -8 -0.5 -15t-0.5 -15q0 -101 11.5 -167t29.5 -104.5t39 -53.5t40 -15z" />
    <glyph glyph-name="afii10054" unicode="&#x405;" horiz-adv-x="410" 
d="M230 710q26 0 48.5 -8.5t40.5 -22.5t30.5 -32t20.5 -37l-60 -70q0 41 -7 69.5t-18 46.5t-25.5 26t-29.5 8q-38 0 -64 -27.5t-26 -72.5q0 -30 18 -56.5t44.5 -53.5t57.5 -55t57.5 -61.5t44.5 -73.5t18 -90q0 -49 -14 -88t-38.5 -66t-57.5 -41.5t-70 -14.5
q-30 0 -57.5 12.5t-50 35t-39 53.5t-23.5 69l70 70q0 -60 10 -102t25 -68t32.5 -38t32.5 -12q45 0 77.5 40t32.5 130q0 37 -18 69t-44.5 61t-57.5 57.5t-57.5 59.5t-44.5 65.5t-18 77.5q0 26 12.5 51.5t34 45t50.5 31.5t63 12z" />
    <glyph glyph-name="afii10055" unicode="&#x406;" horiz-adv-x="220" 
d="M70 0v700h80v-700h-80z" />
    <glyph glyph-name="afii10056" unicode="&#x407;" horiz-adv-x="220" 
d="M70 0v700h80v-700h-80zM80 830q0 -15 -12.5 -27.5t-27.5 -12.5t-27.5 12.5t-12.5 27.5t12.5 27.5t27.5 12.5t27.5 -12.5t12.5 -27.5zM220 830q0 -15 -12.5 -27.5t-27.5 -12.5t-27.5 12.5t-12.5 27.5t12.5 27.5t27.5 12.5t27.5 -12.5t12.5 -27.5z" />
    <glyph glyph-name="afii10057" unicode="&#x408;" horiz-adv-x="370" 
d="M310 200q0 -49 -14 -88t-36.5 -66t-51 -41.5t-58.5 -14.5q-26 0 -50 10.5t-43.5 29.5t-34.5 44.5t-22 55.5l70 70q0 -53 8.5 -89t20.5 -58.5t26 -32.5t25 -10q15 0 29.5 8.5t25.5 30t18 58.5t7 93v480h-130v20h210v-500z" />
    <glyph glyph-name="afii10058" unicode="&#x409;" horiz-adv-x="700" 
d="M310 680q-23 0 -47.5 -15.5t-45 -49.5t-34 -87t-13.5 -128v-100q0 -86 -14 -145.5t-37.5 -96t-54 -52.5t-64.5 -16v20q11 0 26.5 13t29.5 46t24 89t10 142v100q0 75 17.5 131t47.5 93.5t70 56.5t85 19h110v-200q52 0 98 -19.5t79.5 -53t53 -79.5t19.5 -98
q0 -53 -19.5 -98.5t-53 -79t-79.5 -53t-98 -19.5h-80v680h-30zM580 250q0 60 -12.5 103.5t-34 71.5t-50.5 41.5t-63 13.5v-460q34 0 63 13.5t50.5 41.5t34 71.5t12.5 103.5z" />
    <glyph glyph-name="afii10059" unicode="&#x40a;" horiz-adv-x="690" 
d="M410 700v-220q52 0 98 -19t79.5 -52t53 -76.5t19.5 -92.5t-19.5 -92.5t-53 -76.5t-79.5 -52t-98 -19h-80v460h-180v-460h-80v700h80v-220h180v220h80zM570 240q0 56 -12.5 97.5t-34 68.5t-50.5 40.5t-63 13.5v-440q34 0 63 13.5t50.5 40.5t34 68.5t12.5 97.5z" />
    <glyph glyph-name="afii10060" unicode="&#x40b;" horiz-adv-x="510" 
d="M110 0v680h-110v20h340v-20h-150v-260q12 8 26 15q12 5 28.5 10t35.5 5q37 0 70 -14.5t57.5 -40.5t38.5 -63t14 -82v-250h-80v250q0 49 -8.5 83t-22.5 55.5t-32 31.5t-37 10t-35.5 -5.5t-28.5 -12.5q-14 -8 -26 -17v-395h-80z" />
    <glyph glyph-name="afii10061" unicode="&#x40c;" 
d="M155 820l135 70l20 -50l-145 -40zM70 0v700h80v-200q39 7 70 32q26 20 48 60t22 108h80q0 -45 -13.5 -78t-33.5 -56.5t-43 -38t-43 -23t-33 -11.5l-13 -3l16.5 -7t41 -26.5t52.5 -54t52.5 -89t40.5 -131.5t16 -182h-90q0 82 -7.5 146.5t-19.5 114t-27 85t-31 59.5
q-38 57 -85 75v-480h-80z" />
    <glyph glyph-name="afii10062" unicode="&#x40e;" horiz-adv-x="410" 
d="M230 810q23 0 42.5 23.5t27.5 76.5l50 -40q-4 -11 -14.5 -25t-26.5 -26t-36.5 -20.5t-42.5 -8.5q-23 0 -43 8.5t-36 20.5t-26.5 26t-14.5 25l50 40q8 -53 27.5 -76.5t42.5 -23.5zM235 170q-17 -53 -32.5 -87.5t-31.5 -55t-31 -29t-30 -8.5q-38 0 -61.5 21t-38.5 59l50 60
q0 -34 5 -57t12.5 -37t16 -20t16.5 -6q11 0 22.5 6.5t23.5 24.5t25.5 49t28.5 80l-185 530h85l140 -405l125 405h25z" />
    <glyph glyph-name="afii10145" unicode="&#x40f;" horiz-adv-x="500" 
d="M350 0q-15 0 -30 -8.5t-27.5 -26t-20 -44t-7.5 -61.5h-30q0 35 -7.5 61.5t-20 44t-27.5 26t-30 8.5h-80v700h80v-680h200v680h80v-700h-80z" />
    <glyph glyph-name="afii10017" unicode="&#x410;" horiz-adv-x="470" 
d="M90 400q0 75 17.5 131t47.5 93.5t70 56.5t85 19h90v-700h-30v420h-200v-120q0 -86 -14 -145.5t-37.5 -96t-54 -52.5t-64.5 -16v20q11 0 26.5 13t29.5 46t24 89t10 142v100zM310 680q-23 0 -46 -13.5t-42.5 -42.5t-33.5 -74.5t-18 -109.5h200v240h-60z" />
    <glyph glyph-name="afii10018" unicode="&#x411;" 
d="M350 700v-20h-200v-180q52 0 98 -19.5t79.5 -53t53 -79.5t19.5 -98q0 -53 -19.5 -98.5t-53 -79t-79.5 -53t-98 -19.5h-80v700h280zM310 250q0 60 -12.5 103.5t-34 71.5t-50.5 41.5t-63 13.5v-460q34 0 63 13.5t50.5 41.5t34 71.5t12.5 103.5z" />
    <glyph glyph-name="afii10019" unicode="&#x412;" 
d="M70 0v700h80q56 0 96 -10t65.5 -26t37 -35.5t11.5 -38.5q0 -34 -25 -53.5t-55 -30.5q-35 -12 -80 -16q56 -10 100 -38q19 -12 37 -30t32 -42.5t22.5 -56.5t8.5 -73q0 -56 -18 -102t-51 -79t-79 -51t-102 -18h-80zM310 250q0 60 -12.5 103.5t-34 71.5t-50.5 41.5t-63 13.5
v-460q34 0 63 13.5t50.5 41.5t34 71.5t12.5 103.5zM280 590q0 38 -31 64t-99 26v-180q68 0 99 26t31 64z" />
    <glyph glyph-name="afii10020" unicode="&#x413;" horiz-adv-x="360" 
d="M70 0v700h290v-20h-210v-680h-80z" />
    <glyph glyph-name="afii10021" unicode="&#x414;" horiz-adv-x="470" 
d="M100 0q-30 0 -55 -32.5t-25 -107.5h-40v160h20q11 0 26.5 13t29.5 46t24 89t10 142v90q0 75 17.5 131t47.5 93.5t70 56.5t85 19h80v-680h60v-160h-40q0 75 -25 107.5t-55 32.5h-230zM310 680q-41 0 -76 -15.5t-60.5 -49.5t-39.5 -87t-14 -128v-90q0 -87 -12.5 -142.5
t-27.5 -88.5q-18 -39 -40 -59h270v660z" />
    <glyph glyph-name="afii10022" unicode="&#x415;" horiz-adv-x="360" 
d="M70 0v700h280v-20h-200v-180h180v-20h-180v-460h200v-20h-280z" />
    <glyph glyph-name="afii10024" unicode="&#x416;" horiz-adv-x="600" 
d="M260 0v480q-42 -18 -75 -75q-14 -24 -27.5 -59.5t-24 -85t-17 -114t-6.5 -146.5h-90q0 102 14.5 178t37 130t48.5 89t49 55t39.5 28.5t19.5 9.5q-1 0 -13.5 3.5t-31.5 12t-40.5 23t-40 38t-30.5 56t-12 77.5h80q0 -68 18.5 -108t41.5 -60q26 -25 60 -32v200h80v-200
q34 7 60 32q23 20 41.5 60t18.5 108h80q0 -66 -25.5 -107t-56.5 -63.5t-57.5 -31t-29.5 -8.5q3 -1 19.5 -9.5t39.5 -28.5t49.5 -55t49 -89t37 -130t14.5 -178h-90q0 82 -6.5 146.5t-17 114t-24 85t-27.5 59.5q-33 57 -75 75v-480h-80z" />
    <glyph glyph-name="afii10025" unicode="&#x417;" horiz-adv-x="410" 
d="M200 710q34 0 61.5 -10.5t47 -27t30.5 -38.5t11 -44q0 -19 -6.5 -33.5t-17 -26t-24 -19.5t-27.5 -14q-33 -13 -75 -17q50 -10 90 -38q17 -12 33 -30t29 -42.5t20.5 -56.5t7.5 -73q0 -56 -14 -102t-39.5 -79t-60.5 -51t-76 -18q-30 0 -57.5 12.5t-50 35t-39 53.5t-23.5 69
l70 70q0 -60 10 -102t25 -68t32.5 -38t32.5 -12t32.5 12t32.5 39t25 71t10 108t-10 108t-26 71t-35.5 39t-38.5 12h-40v20h40q38 0 64 27.5t26 72.5q0 22 -6.5 40.5t-17 32t-23 20.5t-23.5 7q-15 0 -29.5 -8t-25.5 -26t-18 -46.5t-7 -69.5l-60 70q7 19 20 37t31 32
t40.5 22.5t48.5 8.5z" />
    <glyph glyph-name="afii10026" unicode="&#x418;" horiz-adv-x="500" 
d="M150 0h-80v700h80v-220l200 220h80v-700h-80v670l-200 -220v-450z" />
    <glyph glyph-name="afii10027" unicode="&#x419;" horiz-adv-x="500" 
d="M150 0h-80v700h80v-220l200 220h80v-700h-80v670l-200 -220v-450zM250 810q23 0 42.5 23.5t27.5 76.5l50 -40q-4 -11 -14.5 -25t-26.5 -26t-36.5 -20.5t-42.5 -8.5q-23 0 -43 8.5t-36 20.5t-26.5 26t-14.5 25l50 40q8 -53 27.5 -76.5t42.5 -23.5z" />
    <glyph glyph-name="afii10028" unicode="&#x41a;" 
d="M70 0v700h80v-200q39 7 70 32q26 20 48 60t22 108h80q0 -45 -13.5 -78t-33.5 -56.5t-43 -38t-43 -23t-33 -11.5l-13 -3l16.5 -7t41 -26.5t52.5 -54t52.5 -89t40.5 -131.5t16 -182h-90q0 82 -7.5 146.5t-19.5 114t-27 85t-31 59.5q-38 57 -85 75v-480h-80z" />
    <glyph glyph-name="afii10029" unicode="&#x41b;" horiz-adv-x="470" 
d="M310 680q-23 0 -47.5 -15.5t-45 -49.5t-34 -87t-13.5 -128v-100q0 -86 -14 -145.5t-37.5 -96t-54 -52.5t-64.5 -16v20q11 0 26.5 13t29.5 46t24 89t10 142v100q0 75 17.5 131t47.5 93.5t70 56.5t85 19h90v-700h-30v680h-60v0z" />
    <glyph glyph-name="afii10030" unicode="&#x41c;" horiz-adv-x="570" 
d="M100 580v-580h-30v710l215 -246l215 246v-710h-80v580l-160 -180z" />
    <glyph glyph-name="afii10031" unicode="&#x41d;" horiz-adv-x="500" 
d="M70 0v700h80v-220h200v220h80v-700h-80v460h-200v-460h-80z" />
    <glyph glyph-name="afii10032" unicode="&#x41e;" horiz-adv-x="500" 
d="M460 350q0 -90 -20 -157.5t-51 -112.5t-68 -67.5t-71 -22.5t-71 22.5t-68 67.5t-51 112.5t-20 157.5t20 157.5t51 112.5t68 67.5t71 22.5t71 -22.5t68 -67.5t51 -112.5t20 -157.5zM130 350q0 -101 11.5 -167t29.5 -104.5t39 -53.5t40 -15t40 15t39 53.5t29.5 104.5
t11.5 167t-11.5 167t-29.5 104.5t-39 53.5t-40 15t-40 -15t-39 -53.5t-29.5 -104.5t-11.5 -167z" />
    <glyph glyph-name="afii10033" unicode="&#x41f;" horiz-adv-x="500" 
d="M70 0v700h360v-700h-80v680h-200v-680h-80z" />
    <glyph glyph-name="afii10034" unicode="&#x420;" horiz-adv-x="400" 
d="M70 700h80q64 0 108 -10.5t71 -27t39 -38.5t12 -44q0 -23 -12 -44.5t-39 -38t-71 -27t-108 -10.5v-460h-80v700zM290 580q0 45 -32.5 72.5t-107.5 27.5v-200q75 0 107.5 27.5t32.5 72.5z" />
    <glyph glyph-name="afii10035" unicode="&#x421;" horiz-adv-x="450" 
d="M250 10q15 0 32.5 12t32.5 38t25 68t10 102l70 -70q-8 -38 -24 -69t-38.5 -53.5t-50 -35t-57.5 -12.5q-34 0 -71 22.5t-68 67.5t-51 112.5t-20 157.5t20 157.5t51 112.5t68 67.5t71 22.5q30 0 57.5 -12t50 -31.5t38.5 -45t24 -51.5l-70 -70q0 49 -10 84.5t-25 59
t-32.5 35t-32.5 11.5q-19 0 -40 -15t-39 -53.5t-29.5 -104.5t-11.5 -167t11.5 -167t29.5 -104.5t39 -53.5t40 -15z" />
    <glyph glyph-name="afii10036" unicode="&#x422;" horiz-adv-x="380" 
d="M150 0v680h-150v20h380v-20h-150v-680h-80z" />
    <glyph glyph-name="afii10037" unicode="&#x423;" horiz-adv-x="410" 
d="M235 170q-17 -53 -32.5 -87.5t-31.5 -55t-31 -29t-30 -8.5q-38 0 -61.5 21t-38.5 59l50 60q0 -34 5 -57t12.5 -37t16 -20t16.5 -6q11 0 22.5 6.5t23.5 24.5t25.5 49t28.5 80l-185 530h85l140 -405l125 405h25z" />
    <glyph glyph-name="afii10038" unicode="&#x424;" horiz-adv-x="680" 
d="M380 -20h-80v70q-53 4 -100 27.5t-82.5 62.5t-56.5 92.5t-21 117.5t21 117.5t56.5 92.5t82.5 62.5t100 27.5v70h80v-70q52 -4 99.5 -27.5t83 -62.5t56.5 -92.5t21 -117.5t-21 -117.5t-56.5 -92.5t-83 -62.5t-99.5 -27.5v-70zM550 350q0 67 -15.5 118t-39.5 85.5
t-54.5 53.5t-60.5 23v-560q30 4 60.5 23t54.5 53.5t39.5 85t15.5 118.5zM130 350q0 -68 15.5 -118.5t39.5 -85t54.5 -53.5t60.5 -23v560q-30 -4 -60.5 -23t-54.5 -53.5t-39.5 -85.5t-15.5 -118z" />
    <glyph glyph-name="afii10039" unicode="&#x425;" horiz-adv-x="410" 
d="M180 305l-145 -305h-25l160 335l-150 365h90l110 -260l125 260h25l-140 -290l170 -410h-90z" />
    <glyph glyph-name="afii10040" unicode="&#x426;" horiz-adv-x="500" 
d="M70 0v700h80v-680h190v680h80v-680h60v-160h-40q0 75 -25 107.5t-55 32.5h-290z" />
    <glyph glyph-name="afii10041" unicode="&#x427;" horiz-adv-x="470" 
d="M400 700v-700h-80v320q-12 -9 -26 -15q-12 -6 -28.5 -10.5t-35.5 -4.5q-38 0 -70.5 14.5t-57 40.5t-38.5 63t-14 82v210h80v-210q0 -49 8.5 -83t22.5 -55.5t32 -31.5t37 -10t35.5 5t28.5 12q14 8 26 18v355h80z" />
    <glyph glyph-name="afii10042" unicode="&#x428;" horiz-adv-x="720" 
d="M400 700v-680h170v680h80v-700h-580v700h80v-680h170v680h80z" />
    <glyph glyph-name="afii10043" unicode="&#x429;" horiz-adv-x="730" 
d="M400 700v-680h170v680h80v-680h60v-160h-40q0 75 -25 107.5t-55 32.5h-520v700h80v-680h170v680h80z" />
    <glyph glyph-name="afii10044" unicode="&#x42a;" horiz-adv-x="490" 
d="M220 700v-200q49 0 92.5 -19.5t76.5 -53t52 -79.5t19 -98q0 -53 -19 -98.5t-52 -79t-76.5 -53t-92.5 -19.5h-80v680q-38 0 -64 -32.5t-26 -107.5h-40v160h210zM370 250q0 60 -12 103.5t-33 71.5t-48 41.5t-57 13.5v-460q30 0 57 13.5t48 41.5t33 71.5t12 103.5z" />
    <glyph glyph-name="afii10045" unicode="&#x42b;" horiz-adv-x="580" 
d="M480 0v700h30v-700h-30zM150 700v-200q52 0 98 -19.5t79.5 -53t53 -79.5t19.5 -98q0 -53 -19.5 -98.5t-53 -79t-79.5 -53t-98 -19.5h-80v700h80zM310 250q0 60 -12.5 103.5t-34 71.5t-50.5 41.5t-63 13.5v-460q34 0 63 13.5t50.5 41.5t34 71.5t12.5 103.5z" />
    <glyph glyph-name="afii10046" unicode="&#x42c;" horiz-adv-x="430" 
d="M150 700v-200q52 0 98 -19.5t79.5 -53t53 -79.5t19.5 -98q0 -53 -19.5 -98.5t-53 -79t-79.5 -53t-98 -19.5h-80v700h80zM310 250q0 60 -12.5 103.5t-34 71.5t-50.5 41.5t-63 13.5v-460q34 0 63 13.5t50.5 41.5t34 71.5t12.5 103.5z" />
    <glyph glyph-name="afii10047" unicode="&#x42d;" horiz-adv-x="460" 
d="M210 10q19 0 40 15t39 53.5t29.5 104.5t11.5 167q0 8 -0.5 15t-0.5 15h-158v20h158q-3 85 -15.5 141t-29.5 89t-36.5 46.5t-37.5 13.5q-15 0 -32.5 -11.5t-32.5 -35t-25 -59t-10 -84.5l-70 70q7 26 23.5 51.5t39 45t50 31.5t57.5 12q34 0 71 -22.5t68 -67.5t51 -112.5
t20 -157.5t-20 -157.5t-51 -112.5t-68 -67.5t-71 -22.5q-30 0 -57.5 12.5t-50 35t-39 53.5t-23.5 69l70 70q0 -60 10 -102t25 -68t32.5 -38t32.5 -12z" />
    <glyph glyph-name="afii10048" unicode="&#x42e;" horiz-adv-x="690" 
d="M650 350q0 -90 -20 -157.5t-50 -112.5t-65 -67.5t-65 -22.5t-65 22.5t-65 67.5t-50 112.5t-20 157.5v20h-100v-370h-80v700h80v-310h101q4 80 25 140t50.5 100t62 60t61.5 20q30 0 65 -22.5t65 -67.5t50 -112.5t20 -157.5zM340 350q0 -101 11.5 -167t28.5 -104.5
t36 -53.5t34 -15t34 15t36 53.5t28.5 104.5t11.5 167t-11.5 167t-28.5 104.5t-36 53.5t-34 15t-34 -15t-36 -53.5t-28.5 -104.5t-11.5 -167z" />
    <glyph glyph-name="afii10049" unicode="&#x42f;" 
d="M160 590q0 -38 31 -64t99 -26v180q-68 0 -99 -26t-31 -64zM290 0v480q-48 -18 -85 -75q-16 -24 -31.5 -59.5t-27.5 -85t-19 -114t-7 -146.5h-90q0 77 8.5 138.5t22.5 109.5t32 84t37 62q44 61 100 86q-83 8 -121.5 40t-38.5 70q0 19 12 38.5t38 35.5t68 26t102 10h80
v-700h-80z" />
    <glyph glyph-name="afii10065" unicode="&#x430;" horiz-adv-x="400" 
d="M340 0h-80v60q-13 -20 -28 -35q-14 -14 -31.5 -24.5t-40.5 -10.5q-26 0 -49.5 11t-41.5 30.5t-28.5 47t-10.5 61.5q0 83 44.5 126.5t135.5 43.5q8 0 16 -1.5t16 -3.5q9 -3 18 -5v90q0 53 -18.5 76.5t-41.5 23.5t-43 -17.5t-35 -37.5q-18 -25 -32 -55v100q15 8 33 15
q15 5 35 10t43 5q67 0 103 -33.5t36 -86.5v-390zM210 290q-19 0 -37 -9.5t-32 -28t-22.5 -47t-8.5 -65.5q0 -64 22 -92t48 -28q15 0 29.5 10.5t25.5 24.5q13 15 25 35v190q-9 2 -18 5q-8 2 -16 3.5t-16 1.5z" />
    <glyph glyph-name="afii10066" unicode="&#x431;" horiz-adv-x="430" 
d="M390 220q0 -54 -14.5 -97t-38.5 -72.5t-54.5 -45t-62.5 -15.5t-62.5 15.5t-54.5 45t-38.5 72.5t-14.5 97v150q0 86 13.5 145.5t34.5 96t47 52.5t50 16q11 0 24 -4.5t26 -10.5t26 -10.5t24 -4.5q15 0 28 4.5t22 9.5t14.5 10t5.5 6q0 -53 -25 -81.5t-55 -28.5
q-11 0 -24 4.5t-26 10.5t-26 10.5t-24 4.5q-15 0 -29.5 -9t-25.5 -34.5t-18 -70.5t-7 -116q10 22 27 40q14 15 36 27.5t52 12.5q32 0 62.5 -15.5t54.5 -45t38.5 -72.5t14.5 -97zM220 430q-13 0 -27 -9.5t-26 -33.5t-19.5 -64.5t-7.5 -102.5t7.5 -102.5t19.5 -64.5t26 -33.5
t27 -9.5t27 9.5t26 33.5t19.5 64.5t7.5 102.5t-7.5 102.5t-19.5 64.5t-26 33.5t-27 9.5z" />
    <glyph glyph-name="afii10067" unicode="&#x432;" horiz-adv-x="380" 
d="M190 330q45 -10 80 -31q30 -18 55 -49t25 -80q0 -34 -14.5 -64.5t-41.5 -54t-66 -37.5t-88 -14h-80v500h80q52 0 87 -7t55.5 -19t29 -28.5t8.5 -35.5q0 -30 -20.5 -46t-44.5 -24q-29 -9 -65 -10zM260 170q0 75 -33.5 112.5t-86.5 37.5v-300q53 0 86.5 37.5t33.5 112.5z
M140 340q53 0 76.5 20t23.5 50t-23.5 50t-76.5 20v-140z" />
    <glyph glyph-name="afii10068" unicode="&#x433;" horiz-adv-x="300" 
d="M300 480h-160v20h160v-20zM60 0v500h80v-500h-80z" />
    <glyph glyph-name="afii10069" unicode="&#x434;" horiz-adv-x="410" 
d="M75 0q-21 -2 -38 -29t-17 -91h-40v140h20q11 0 23.5 8.5t23 30t17 58.5t6.5 93v60q0 64 11 108t32.5 71t53.5 39t73 12h100v-480h50v-140h-40q0 64 -17 91t-39 29h-219zM100 210q0 -53 -9.5 -89t-20.5 -59q-13 -26 -30 -42h220v460h-20q-38 0 -64.5 -10.5t-43 -34.5
t-24.5 -64.5t-8 -100.5v-60z" />
    <glyph glyph-name="afii10070" unicode="&#x435;" horiz-adv-x="410" 
d="M130 260v-10q0 -69 8.5 -115.5t21 -74t27.5 -39t28 -11.5q11 0 25 9.5t26 30.5t20.5 53t8.5 77l65 -60q-4 -26 -16.5 -49.5t-31.5 -41.5t-44 -28.5t-53 -10.5q-32 0 -63.5 16.5t-56 49.5t-40 81.5t-15.5 112.5t15.5 112.5t39.5 81.5t54.5 49.5t60.5 16.5t60.5 -16.5
t54.5 -48.5t39.5 -78.5t15.5 -106.5h-250zM210 490q-11 0 -24 -9.5t-25 -33.5t-20.5 -64.5t-10.5 -102.5h159q-1 61 -9.5 101.5t-20.5 64.5t-25 34t-24 10z" />
    <glyph glyph-name="afii10072" unicode="&#x436;" horiz-adv-x="560" 
d="M240 0v320q-34 -8 -60 -44q-11 -15 -22 -38.5t-19.5 -57t-13.5 -78t-5 -102.5h-90q0 60 8 106t21.5 80.5t30.5 58.5t35 40q41 37 95 45q-45 5 -80 25q-30 16 -55 50.5t-25 94.5h80q0 -60 15.5 -92.5t34.5 -47.5q22 -18 50 -20v160h80v-500h-80zM240 0v500h80v-160
q28 2 50 20q19 15 34.5 47.5t15.5 92.5h80q0 -60 -25 -94.5t-55 -50.5q-35 -20 -80 -25q53 -8 95 -45q18 -16 35 -40t30.5 -58.5t21.5 -80.5t8 -106h-90q0 58 -5 102.5t-13.5 78t-19.5 57t-22 38.5q-26 36 -60 44v-320h-80z" />
    <glyph glyph-name="afii10073" unicode="&#x437;" horiz-adv-x="355" 
d="M165 10q11 0 23.5 8t23 26t17 46.5t6.5 69.5t-7 69.5t-19 46.5t-28.5 26t-35.5 8h-20v20h20q38 0 59 21t21 59t-17.5 59t-32.5 21q-23 0 -41.5 -26.5t-18.5 -93.5l-55 50q11 38 40.5 64t74.5 26q26 0 48 -8.5t38 -22.5t25 -32t9 -37q0 -30 -17.5 -48t-37.5 -27
q-25 -11 -55 -15q39 -9 70 -28q26 -17 48 -48t22 -84q0 -38 -12.5 -69t-34 -53.5t-50.5 -35t-63 -12.5q-28 0 -53 10.5t-44 28.5t-31.5 41.5t-16.5 49.5l65 60q0 -45 8.5 -77t20.5 -53t26 -30.5t25 -9.5z" />
    <glyph glyph-name="afii10074" unicode="&#x438;" horiz-adv-x="430" 
d="M60 0v500h80v-165l150 165h80v-500h-80v470l-150 -165v-305h-80z" />
    <glyph glyph-name="afii10075" unicode="&#x439;" horiz-adv-x="430" 
d="M60 0v500h80v-165l150 165h80v-500h-80v470l-150 -165v-305h-80zM215 610q19 0 35.5 20t24.5 65l45 -35q-4 -11 -13 -23.5t-22.5 -23t-31 -17t-38.5 -6.5t-38.5 6.5t-31 17t-22.5 23t-13 23.5l45 35q8 -45 24.5 -65t35.5 -20z" />
    <glyph glyph-name="afii10076" unicode="&#x43a;" horiz-adv-x="390" 
d="M60 0v500h80v-160q30 2 55 20q20 15 37.5 47.5t17.5 92.5h80q0 -60 -25 -94.5t-55 -50.5q-35 -20 -80 -25q53 -8 95 -45q18 -16 35 -40t30.5 -58.5t21.5 -80.5t8 -106h-90q0 58 -5.5 102.5t-15 78t-21 57t-23.5 38.5q-29 36 -65 44v-320h-80z" />
    <glyph glyph-name="afii10077" unicode="&#x43b;" horiz-adv-x="390" 
d="M150 210q0 -53 -12 -92t-33 -65.5t-48 -39.5t-57 -13v20q11 0 23.5 8.5t23 30t17 58.5t6.5 93v60q0 64 11 108t32.5 71t53.5 39t73 12h90v-500h-30v480h-60q-19 0 -35.5 -10.5t-28.5 -34.5t-19 -64.5t-7 -100.5v-60z" />
    <glyph glyph-name="afii10078" unicode="&#x43c;" horiz-adv-x="500" 
d="M90 380v-380h-30v510l190 -206l190 206v-510h-80v380l-135 -140z" />
    <glyph glyph-name="afii10079" unicode="&#x43d;" horiz-adv-x="430" 
d="M60 0v500h80v-170h150v170h80v-500h-80v310h-150v-310h-80z" />
    <glyph glyph-name="afii10080" unicode="&#x43e;" horiz-adv-x="430" 
d="M215 490q-13 0 -28 -11t-27.5 -38t-21 -73.5t-8.5 -117.5t8.5 -117.5t21 -73.5t27.5 -38t28 -11t28 11t27.5 38t21 73.5t8.5 117.5t-8.5 117.5t-21 73.5t-27.5 38t-28 11zM215 -10q-32 0 -63.5 16.5t-56 49.5t-40 81.5t-15.5 112.5t15.5 112.5t40 81.5t56 49.5t63.5 16.5
t63.5 -16.5t56 -49.5t40 -81.5t15.5 -112.5t-15.5 -112.5t-40 -81.5t-56 -49.5t-63.5 -16.5z" />
    <glyph glyph-name="afii10081" unicode="&#x43f;" horiz-adv-x="430" 
d="M60 0v500h310v-500h-80v480h-150v-480h-80z" />
    <glyph glyph-name="afii10082" unicode="&#x440;" 
d="M140 440q9 19 23 35q12 13 29.5 24t42.5 11q28 0 57.5 -16.5t53.5 -49.5t39 -81.5t15 -112.5t-15 -112.5t-39 -81.5t-53.5 -49.5t-57.5 -16.5q-25 0 -42.5 10.5t-29.5 24.5q-14 15 -23 35v-330h-80v770h80v-60zM140 90q9 -20 21 -35q11 -14 25.5 -24.5t33.5 -10.5
q15 0 31 10.5t29 37t21.5 70.5t8.5 112q0 67 -8.5 111.5t-21.5 71t-29 37t-31 10.5q-19 0 -33.5 -11t-25.5 -24q-12 -16 -21 -35v-320z" />
    <glyph glyph-name="afii10083" unicode="&#x441;" horiz-adv-x="390" 
d="M215 510q28 0 53 -10t44 -25t31.5 -32.5t16.5 -32.5l-65 -60q0 34 -8.5 60t-20.5 44t-26 27t-25 9q-13 0 -28 -11.5t-27.5 -39t-21 -74t-8.5 -115.5t8.5 -115.5t21 -74t27.5 -39t28 -11.5q11 0 25 9.5t26 30.5t20.5 53t8.5 77l65 -60q-4 -26 -16.5 -49.5t-31.5 -41.5
t-44 -28.5t-53 -10.5q-32 0 -63.5 16.5t-56 49.5t-40 81.5t-15.5 112.5t15.5 112.5t40 81.5t56 49.5t63.5 16.5z" />
    <glyph glyph-name="afii10084" unicode="&#x442;" horiz-adv-x="330" 
d="M125 0v480h-115v20h310v-20h-115v-480h-80z" />
    <glyph glyph-name="afii10085" unicode="&#x443;" horiz-adv-x="400" 
d="M195 -30l-164 530h79l125 -400l125 400h30l-190 -610q-17 -53 -33 -87.5t-34 -55t-38.5 -29t-44.5 -8.5q-16 0 -28 5q-7 2 -12 5v90q9 -14 19 -25q8 -10 19 -17.5t22 -7.5q26 0 51.5 27.5t48.5 102.5z" />
    <glyph glyph-name="afii10086" unicode="&#x444;" horiz-adv-x="600" 
d="M340 70q6 -14 15 -25q8 -10 19 -17.5t26 -7.5q11 0 22 9t19.5 34.5t13.5 70.5t5 116t-5 116t-13.5 70.5t-19.5 34.5t-22 9q-15 0 -26 -8t-19 -17q-9 -11 -15 -25v-360zM340 700v-240q6 14 17 25q9 9 23 17t35 8q24 0 48.5 -15.5t43.5 -47t31 -81t12 -116.5
q0 -68 -12 -117t-31 -80.5t-43.5 -47t-48.5 -15.5q-21 0 -35 7.5t-23 17.5q-11 11 -17 25v-310h-80v310q-6 -14 -17 -25q-9 -10 -23.5 -17.5t-34.5 -7.5q-24 0 -48.5 15.5t-43.5 47t-31 80.5t-12 117q0 67 12 116.5t31 81t43.5 47t48.5 15.5q20 0 34.5 -8t23.5 -17
q11 -11 17 -25v240h80zM260 430q-6 14 -15 25q-8 9 -19 17t-26 8q-11 0 -22 -9t-19.5 -34.5t-13.5 -70.5t-5 -116t5 -116t13.5 -70.5t19.5 -34.5t22 -9q15 0 26 7.5t19 17.5q9 11 15 25v360z" />
    <glyph glyph-name="afii10087" unicode="&#x445;" horiz-adv-x="355" 
d="M315 500l-115 -210l145 -290h-85l-105 209l-115 -209h-30l131 238l-131 262h85l90 -181l100 181h30z" />
    <glyph glyph-name="afii10088" unicode="&#x446;" horiz-adv-x="430" 
d="M60 0v500h80v-480h140v480h80v-480h50v-140h-40q0 34 -5 57t-13.5 37t-19.5 20t-22 6h-250z" />
    <glyph glyph-name="afii10089" unicode="&#x447;" horiz-adv-x="410" 
d="M270 210q-9 -6 -20 -10q-10 -4 -22.5 -7t-27.5 -3q-68 0 -109 42.5t-41 117.5v150h80v-150q0 -41 5.5 -68t14.5 -43t22 -22.5t28 -6.5t27.5 3t22.5 7q11 4 20 10v270h80v-500h-80v210z" />
    <glyph glyph-name="afii10090" unicode="&#x448;" horiz-adv-x="620" 
d="M350 500v-480h130v480h80v-500h-500v500h80v-480h130v480h80z" />
    <glyph glyph-name="afii10091" unicode="&#x449;" horiz-adv-x="630" 
d="M60 0v500h80v-480h130v480h80v-480h130v480h80v-480h50v-140h-40q0 34 -5 57t-13.5 37t-19.5 20t-22 6h-450z" />
    <glyph glyph-name="afii10092" unicode="&#x44a;" 
d="M210 500v-150q45 0 82 -14t63 -38t40.5 -55.5t14.5 -67.5t-14.5 -67.5t-40.5 -55.5t-63 -38t-82 -14h-80v480q-38 0 -59 -26t-21 -94h-40v140h120h80zM210 20q45 0 77.5 38t32.5 117t-32.5 117t-77.5 38v-310z" />
    <glyph glyph-name="afii10093" unicode="&#x44b;" horiz-adv-x="500" 
d="M140 350q45 0 82 -14t63 -38t40.5 -55.5t14.5 -67.5t-14.5 -67.5t-40.5 -55.5t-63 -38t-82 -14h-80v500h80v-150zM140 20q45 0 77.5 38t32.5 117t-32.5 117t-77.5 38v-310zM410 0v500h30v-500h-30z" />
    <glyph glyph-name="afii10094" unicode="&#x44c;" horiz-adv-x="370" 
d="M140 350q45 0 82 -14t63 -38t40.5 -55.5t14.5 -67.5t-14.5 -67.5t-40.5 -55.5t-63 -38t-82 -14h-80v500h80v-150zM140 20q45 0 77.5 38t32.5 117t-32.5 117t-77.5 38v-310z" />
    <glyph glyph-name="afii10095" unicode="&#x44d;" horiz-adv-x="390" 
d="M140 280h119q-2 60 -10.5 100.5t-21 65t-26.5 34.5t-26 10q-11 0 -25 -9t-26 -27t-20.5 -44t-8.5 -60l-65 60q4 15 16.5 32.5t31.5 32.5t44 25t53 10q32 0 63.5 -16.5t56 -49.5t40 -81.5t15.5 -112.5t-15.5 -112.5t-40 -81.5t-56 -49.5t-63.5 -16.5q-28 0 -53 10.5
t-44 28.5t-31.5 41.5t-16.5 49.5l65 60q0 -45 8.5 -77t20.5 -53t26 -30.5t25 -9.5q13 0 28 11.5t27.5 39t21 74t8.5 115.5v10h-120v20z" />
    <glyph glyph-name="afii10096" unicode="&#x44e;" horiz-adv-x="590" 
d="M380 -10q-34 0 -64.5 16.5t-54 49.5t-37.5 81.5t-14 112.5v20h-70v-270h-80v500h80v-210h72q5 54 21.5 95t39.5 69t51 42t56 14q30 0 60.5 -16.5t54.5 -49.5t39.5 -81.5t15.5 -112.5t-14 -112.5t-37.5 -81.5t-54 -49.5t-64.5 -16.5zM380 490q-11 0 -25 -11t-26 -38
t-20.5 -73.5t-8.5 -117.5t7 -117.5t18 -73.5t25.5 -38t29.5 -11t29.5 11t25.5 38t18 73.5t7 117.5t-8.5 117.5t-20.5 73.5t-26 38t-25 11z" />
    <glyph glyph-name="afii10097" unicode="&#x44f;" horiz-adv-x="390" 
d="M330 0h-80v320q-37 -8 -65 -44q-12 -15 -24 -38.5t-21 -57t-14.5 -78t-5.5 -102.5h-90q0 60 8 106t21.5 80.5t30.5 58.5t35 40q41 37 95 45q-42 1 -75 10q-29 8 -52 24t-23 46q0 19 8.5 35.5t29 28.5t55 19t87.5 7h80v-500zM250 480q-53 0 -76.5 -20t-23.5 -50t23.5 -50
t76.5 -20v140z" />
    <glyph glyph-name="afii10071" unicode="&#x451;" horiz-adv-x="410" 
d="M130 260v-10q0 -69 8.5 -115.5t21 -74t27.5 -39t28 -11.5q11 0 25 9.5t26 30.5t20.5 53t8.5 77l65 -60q-4 -26 -16.5 -49.5t-31.5 -41.5t-44 -28.5t-53 -10.5q-32 0 -63.5 16.5t-56 49.5t-40 81.5t-15.5 112.5t15.5 112.5t39.5 81.5t54.5 49.5t60.5 16.5t60.5 -16.5
t54.5 -48.5t39.5 -78.5t15.5 -106.5h-250zM210 490q-11 0 -24 -9.5t-25 -33.5t-20.5 -64.5t-10.5 -102.5h159q-1 61 -9.5 101.5t-20.5 64.5t-25 34t-24 10zM180 640q0 -15 -12.5 -27.5t-27.5 -12.5t-27.5 12.5t-12.5 27.5t12.5 27.5t27.5 12.5t27.5 -12.5t12.5 -27.5z
M320 640q0 -15 -12.5 -27.5t-27.5 -12.5t-27.5 12.5t-12.5 27.5t12.5 27.5t27.5 12.5t27.5 -12.5t12.5 -27.5z" />
    <glyph glyph-name="afii10099" unicode="&#x452;" horiz-adv-x="445" 
d="M395 100q0 -68 -41 -109t-109 -41v20q11 0 23.5 7.5t23 23.5t17 40.5t6.5 58.5v210q0 45 -20 67.5t-50 22.5q-19 0 -35.5 -11t-28.5 -24q-14 -16 -26 -35v-330h-80v550h-65v20h65v130h80v-130h85v-20h-85v-190q12 19 29 35q14 13 34.5 24t46.5 11q60 0 95 -33.5t35 -86.5
v-210z" />
    <glyph glyph-name="afii10100" unicode="&#x453;" horiz-adv-x="300" 
d="M115 610l135 70l20 -50l-145 -40zM300 480h-160v20h160v-20zM60 0v500h80v-500h-80z" />
    <glyph glyph-name="afii10101" unicode="&#x454;" horiz-adv-x="390" 
d="M250 260h-120v-10q0 -69 8.5 -115.5t21 -74t27.5 -39t28 -11.5q11 0 25 9.5t26 30.5t20.5 53t8.5 77l65 -60q-4 -26 -16.5 -49.5t-31.5 -41.5t-44 -28.5t-53 -10.5q-32 0 -63.5 16.5t-56 49.5t-40 81.5t-15.5 112.5t15.5 112.5t40 81.5t56 49.5t63.5 16.5q28 0 53 -10
t44 -25t31.5 -32.5t16.5 -32.5l-65 -60q0 34 -8.5 60t-20.5 44t-26 27t-25 9q-12 0 -26 -10t-26.5 -34.5t-21 -65t-10.5 -100.5h119v-20z" />
    <glyph glyph-name="afii10102" unicode="&#x455;" horiz-adv-x="360" 
d="M270 110q0 27 -16 48.5t-40 40t-51.5 36.5t-51.5 40t-40 49.5t-16 65.5q0 53 35.5 86.5t99.5 33.5q28 0 51.5 -8.5t40.5 -21.5t28 -29t15 -31l-55 -50q0 60 -25 90t-55 30q-34 0 -54.5 -21t-20.5 -59q0 -25 16 -44.5t40 -37t51.5 -36t51.5 -41t40 -52t16 -69.5
q0 -30 -10.5 -55.5t-30 -44.5t-46 -29.5t-58.5 -10.5t-58.5 10.5t-47 28.5t-33 41.5t-16.5 49.5l65 60q0 -45 8.5 -77t21.5 -53t29 -30.5t31 -9.5q34 0 59.5 27.5t25.5 72.5z" />
    <glyph glyph-name="afii10103" unicode="&#x456;" horiz-adv-x="190" 
d="M135 0h-80v500h80v-500zM95 700q23 0 36.5 -13.5t13.5 -36.5t-13.5 -36.5t-36.5 -13.5t-36.5 13.5t-13.5 36.5t13.5 36.5t36.5 13.5z" />
    <glyph glyph-name="afii10104" unicode="&#x457;" horiz-adv-x="190" 
d="M135 0h-80v500h80v-500zM70 660q0 -15 -12.5 -27.5t-27.5 -12.5t-27.5 12.5t-12.5 27.5t12.5 27.5t27.5 12.5t27.5 -12.5t12.5 -27.5zM210 660q0 -15 -12.5 -27.5t-27.5 -12.5t-27.5 12.5t-12.5 27.5t12.5 27.5t27.5 12.5t27.5 -12.5t12.5 -27.5z" />
    <glyph glyph-name="afii10105" unicode="&#x458;" horiz-adv-x="200" 
d="M145 -140q0 -68 -41 -109t-109 -41q-15 0 -28 3t-22 7q-11 4 -20 10v90q9 -26 20 -45q9 -17 22 -31t28 -14q11 0 23.5 7.5t23 23.5t17 40.5t6.5 58.5v640h80v-640zM105 700q23 0 36.5 -13.5t13.5 -36.5t-13.5 -36.5t-36.5 -13.5t-36.5 13.5t-13.5 36.5t13.5 36.5
t36.5 13.5z" />
    <glyph glyph-name="afii10106" unicode="&#x459;" horiz-adv-x="600" 
d="M370 350q45 0 82 -14t63 -38t40.5 -55.5t14.5 -67.5t-14.5 -67.5t-40.5 -55.5t-63 -38t-82 -14h-80v480h-50q-19 0 -35.5 -10.5t-28.5 -34.5t-19 -64.5t-7 -100.5v-60q0 -53 -12 -92t-33 -65.5t-48 -39.5t-57 -13v20q11 0 23.5 8.5t23 30t17 58.5t6.5 93v60q0 64 11 108
t32.5 71t53.5 39t73 12h130v-150zM370 20q45 0 77.5 38t32.5 117t-32.5 117t-77.5 38v-310z" />
    <glyph glyph-name="afii10107" unicode="&#x45a;" horiz-adv-x="580" 
d="M350 330q45 0 82 -14t63 -37t40.5 -52.5t14.5 -61.5t-14.5 -61.5t-40.5 -52.5t-63 -37t-82 -14h-80v310h-130v-310h-80v500h80v-170h130v170h80v-170zM350 20q45 0 77.5 36.5t32.5 108.5t-32.5 108.5t-77.5 36.5v-290z" />
    <glyph glyph-name="afii10108" unicode="&#x45b;" horiz-adv-x="455" 
d="M75 700h80v-130h85v-20h-85v-190q12 19 29 35q14 13 34.5 24t46.5 11q60 0 95 -33.5t35 -86.5v-310h-80v310q0 45 -20 67.5t-50 22.5q-19 0 -35.5 -11t-28.5 -24q-14 -16 -26 -35v-330h-80v550h-65v20h65v130z" />
    <glyph glyph-name="afii10109" unicode="&#x45c;" horiz-adv-x="390" 
d="M125 620l135 70l20 -50l-145 -40zM60 0v500h80v-160q30 2 55 20q20 15 37.5 47.5t17.5 92.5h80q0 -60 -25 -94.5t-55 -50.5q-35 -20 -80 -25q53 -8 95 -45q18 -16 35 -40t30.5 -58.5t21.5 -80.5t8 -106h-90q0 58 -5.5 102.5t-15 78t-21 57t-23.5 38.5q-29 36 -65 44v-320
h-80z" />
    <glyph glyph-name="afii10110" unicode="&#x45e;" horiz-adv-x="400" 
d="M225 610q19 0 35.5 20t24.5 65l45 -35q-4 -11 -13 -23.5t-22.5 -23t-31 -17t-38.5 -6.5t-38.5 6.5t-31 17t-22.5 23t-13 23.5l45 35q8 -45 24.5 -65t35.5 -20zM195 -30l-164 530h79l125 -400l125 400h30l-190 -610q-17 -53 -33 -87.5t-34 -55t-38.5 -29t-44.5 -8.5
q-16 0 -28 5q-7 2 -12 5v90q9 -14 19 -25q8 -10 19 -17.5t22 -7.5q26 0 51.5 27.5t48.5 102.5z" />
    <glyph glyph-name="afii10193" unicode="&#x45f;" horiz-adv-x="430" 
d="M140 500v-480h150v480h80v-500h-80q-23 0 -41.5 -26.5t-18.5 -93.5h-30q0 34 -5 57t-13.5 37t-19.5 20t-22 6h-80v500h80z" />
    <glyph glyph-name="afii10050" unicode="&#x490;" horiz-adv-x="360" 
d="M70 0v700h260v100h30v-120h-210v-680h-80z" />
    <glyph glyph-name="afii10098" unicode="&#x491;" horiz-adv-x="310" 
d="M60 0v500h220v100h30v-120h-170v-480h-80z" />
    <glyph glyph-name="endash" unicode="&#x2013;" horiz-adv-x="420" 
d="M30 290v30h360v-30h-360z" />
    <glyph glyph-name="emdash" unicode="&#x2014;" horiz-adv-x="610" 
d="M30 290v30h550v-30h-550z" />
    <glyph glyph-name="quoteleft" unicode="&#x2018;" horiz-adv-x="160" 
d="M40 570q0 30 10 54t22 41q14 19 33 35l15 -10q-9 -12 -15 -24q-6 -11 -10.5 -23t-4.5 -23q0 -7 5 -14q2 -4 5 -6h20v-80h-80v50v0z" />
    <glyph glyph-name="quoteright" unicode="&#x2019;" horiz-adv-x="160" 
d="M120 650q0 -30 -10.5 -54t-22.5 -41q-14 -20 -32 -35l-15 10q8 12 15 24q5 11 10 23t5 23q0 4 -1.5 7.5t-3.5 6.5q-3 4 -5 6h-20v80h80v-50v0z" />
    <glyph glyph-name="quotesinglbase" unicode="&#x201a;" horiz-adv-x="160" 
d="M120 30q0 -30 -10.5 -54t-22.5 -41q-14 -20 -32 -35l-15 10q8 12 15 24q5 11 10 23t5 23q0 4 -1.5 7.5t-3.5 6.5q-3 4 -5 6h-20v80h80v-50v0z" />
    <glyph glyph-name="quotedblleft" unicode="&#x201c;" horiz-adv-x="290" 
d="M170 570q0 30 10 54t22 41q14 19 33 35l15 -10q-9 -12 -15 -24q-6 -11 -10.5 -23t-4.5 -23q0 -7 5 -14q2 -4 5 -6h20v-80h-80v50zM40 570q0 30 10 54t22 41q14 19 33 35l15 -10q-9 -12 -15 -24q-6 -11 -10.5 -23t-4.5 -23q0 -7 5 -14q2 -4 5 -6h20v-80h-80v50z" />
    <glyph glyph-name="quotedblright" unicode="&#x201d;" horiz-adv-x="290" 
d="M120 650q0 -30 -10.5 -54t-22.5 -41q-14 -20 -32 -35l-15 10q8 12 15 24q5 11 10 23t5 23q0 4 -1.5 7.5t-3.5 6.5q-3 4 -5 6h-20v80h80v-50zM250 650q0 -30 -10.5 -54t-22.5 -41q-14 -20 -32 -35l-15 10q8 12 15 24q5 11 10 23t5 23q0 4 -1.5 7.5t-3.5 6.5q-3 4 -5 6h-20
v80h80v-50z" />
    <glyph glyph-name="quotedblbase" unicode="&#x201e;" horiz-adv-x="290" 
d="M120 30q0 -30 -10.5 -54t-22.5 -41q-14 -20 -32 -35l-15 10q8 12 15 24q5 11 10 23t5 23q0 4 -1.5 7.5t-3.5 6.5q-3 4 -5 6h-20v80h80v-50zM250 30q0 -30 -10.5 -54t-22.5 -41q-14 -20 -32 -35l-15 10q8 12 15 24q5 11 10 23t5 23q0 4 -1.5 7.5t-3.5 6.5q-3 4 -5 6h-20
v80h80v-50z" />
    <glyph glyph-name="dagger" unicode="&#x2020;" horiz-adv-x="340" 
d="M210 700v-270h130v-20h-130v-680h-80v680h-130v20h130v270h80z" />
    <glyph glyph-name="daggerdbl" unicode="&#x2021;" horiz-adv-x="340" 
d="M210 700v-270h130v-20h-130v-390h130v-20h-130v-270h-80v270h-130v20h130v390h-130v20h130v270h80z" />
    <glyph glyph-name="bullet" unicode="&#x2022;" horiz-adv-x="300" 
d="M150 260q-38 0 -64 26t-26 64t26 64t64 26t64 -26t26 -64t-26 -64t-64 -26z" />
    <glyph glyph-name="ellipsis" unicode="&#x2026;" horiz-adv-x="500" 
d="M40 0v80h80v-80h-80zM210 0v80h80v-80h-80zM380 0v80h80v-80h-80z" />
    <glyph glyph-name="perthousand" unicode="&#x2030;" horiz-adv-x="740" 
d="M60 0l350 700h50l-350 -700h-50zM145 690q-19 0 -37 -22.5t-18 -67.5t18 -67.5t37 -22.5t37 22.5t18 67.5t-18 67.5t-37 22.5zM145 710q24 0 45 -9t36.5 -24t24.5 -35t9 -42q0 -23 -9 -43t-24.5 -35t-36.5 -23.5t-45 -8.5t-45 8.5t-36.5 23.5t-24.5 35t-9 43q0 22 9 42
t24.5 35t36.5 24t45 9zM335 190q-19 0 -37 -22.5t-18 -67.5t18 -67.5t37 -22.5t37 22.5t18 67.5t-18 67.5t-37 22.5zM335 210q24 0 45 -9t36.5 -24t24.5 -35t9 -42q0 -23 -9 -43t-24.5 -35t-36.5 -23.5t-45 -8.5t-45 8.5t-36.5 23.5t-24.5 35t-9 43q0 22 9 42t24.5 35
t36.5 24t45 9zM595 190q-19 0 -37 -22.5t-18 -67.5t18 -67.5t37 -22.5t37 22.5t18 67.5t-18 67.5t-37 22.5zM595 210q24 0 45 -9t36.5 -24t24.5 -35t9 -42q0 -23 -9 -43t-24.5 -35t-36.5 -23.5t-45 -8.5t-45 8.5t-36.5 23.5t-24.5 35t-9 43q0 22 9 42t24.5 35t36.5 24t45 9z
" />
    <glyph glyph-name="guilsinglleft" unicode="&#x2039;" horiz-adv-x="330" 
d="M69 250l241 -250h-50l-240 250l240 250h50z" />
    <glyph glyph-name="guilsinglright" unicode="&#x203a;" horiz-adv-x="330" 
d="M20 500h50l240 -250l-240 -250h-50l241 250z" />
    <glyph glyph-name="Euro" unicode="&#x20ac;" horiz-adv-x="490" 
d="M170 300q4 -86 16 -142t29 -89t36.5 -46t38.5 -13q15 0 32.5 12t32.5 38t25 68t10 102l70 -70q-8 -38 -24 -69t-38.5 -53.5t-50 -35t-57.5 -12.5q-32 0 -66.5 19.5t-64.5 58.5t-51.5 97t-27.5 135h-60v20h60v80h-60v20h60q7 71 29.5 125.5t52.5 91t64 55t64 18.5
t57.5 -12t50 -31.5t38.5 -45t24 -51.5l-70 -70q0 49 -10 84.5t-25 59t-32.5 35t-32.5 11.5q-17 0 -36.5 -12.5t-37 -43.5t-30 -83t-16.5 -131h210v-20h-210v-80h210v-20h-210z" />
    <glyph glyph-name="uni20BD" unicode="&#x20bd;" horiz-adv-x="420" 
d="M20 400h70v60h-70v20h70v220h80q64 0 108 -10.5t71 -27t39 -38.5t12 -44q0 -23 -12 -44.5t-39 -38t-71 -27t-108 -10.5v-60h170v-20h-170v-380h-80v380h-70v20zM310 580q0 45 -32.5 72.5t-107.5 27.5v-200q75 0 107.5 27.5t32.5 72.5z" />
    <glyph glyph-name="afii61352" unicode="&#x2116;" horiz-adv-x="770" 
d="M350 450l-200 220v-670h-80v700h80l200 -220v220h80v-700h-80v450zM605 420q-19 0 -37 -22.5t-18 -67.5t18 -67.5t37 -22.5t37 22.5t18 67.5t-18 67.5t-37 22.5zM605 440q24 0 45 -9t36.5 -24t24.5 -35t9 -42q0 -23 -9 -43t-24.5 -35t-36.5 -23.5t-45 -8.5t-45 8.5
t-36.5 23.5t-24.5 35t-9 43q0 22 9 42t24.5 35t36.5 24t45 9zM500 140v20h210v-20h-210zM500 70v20h210v-20h-210zM500 0v20h210v-20h-210z" />
    <glyph glyph-name="trademark" unicode="&#x2122;" horiz-adv-x="525" 
d="M85 460v220h-65v20h200v-20h-65v-220h-70zM275 595v-135h-25v250l115 -135l120 135v-250h-70v135l-70 -75z" />
    </font>
</defs>
</svg>
