<?xml version="1.0" standalone="no"?>
<!DOCTYPE svg PUBLIC "-//W3C//DTD SVG 1.1//EN" "http://www.w3.org/Graphics/SVG/1.1/DTD/svg11.dtd" >
<svg xmlns="http://www.w3.org/2000/svg" xmlns:xlink="http://www.w3.org/1999/xlink" version="1.1">
<metadata>
Created by FontForge 20201107 at Thu May 19 18:19:49 2022
 By 
</metadata>
<defs>
<font id="LiteratureDecor" horiz-adv-x="792" >
  <font-face 
    font-family="Literature Decor"
    font-weight="400"
    font-stretch="normal"
    units-per-em="1000"
    panose-1="2 0 0 0 0 0 0 0 0 0"
    ascent="800"
    descent="-200"
    x-height="694"
    cap-height="694"
    bbox="-16 -212 1185 985"
    underline-thickness="0"
    underline-position="0"
    unicode-range="U+000A-F000"
  />
<missing-glyph horiz-adv-x="527" 
d="M477 700v-700h-427v700h427zM263 371l186 309h-371zM71 650v-601l180 301zM79 21h370l-185 308zM457 47v605l-181 -302z" />
    <glyph glyph-name=".notdef" horiz-adv-x="527" 
d="M477 700v-700h-427v700h427zM263 371l186 309h-371zM71 650v-601l180 301zM79 21h370l-185 308zM457 47v605l-181 -302z" />
    <glyph glyph-name=".null" horiz-adv-x="0" 
 />
    <glyph glyph-name=".null" horiz-adv-x="0" 
 />
    <glyph glyph-name="nonmarkingreturn" horiz-adv-x="333" 
 />
    <glyph glyph-name="LF" unicode="&#xa;" horiz-adv-x="0" 
 />
    <glyph glyph-name="controlCR" unicode="&#xd;" horiz-adv-x="0" 
 />
    <glyph glyph-name="space" unicode=" " horiz-adv-x="390" 
 />
    <glyph glyph-name="exclam" unicode="!" horiz-adv-x="261" 
d="M131 -7q-21 0 -36 15t-15 36t15 36t36 15t36 -15t15 -36t-15 -36t-36 -15zM122 199l-71 493h161l-71 -493h-19z" />
    <glyph glyph-name="quotedbl" unicode="&#x22;" horiz-adv-x="350" 
d="M230 706q18 0 34.5 -15t27.5 -39t13.5 -55t-6.5 -63.5t-32.5 -64t-65.5 -55.5l-10 16q37 22 57 49t26.5 53t3 49.5t-12.5 39.5q-15 -18 -38 -18q-21 0 -36 15t-15 36t15 36t36 15h6zM86 707q18 0 34.5 -15t27.5 -39t13.5 -55t-6.5 -63.5t-32.5 -64t-65.5 -55.5l-10 16
q37 22 57 49t26.5 53t3 49.5t-12.5 39.5q-15 -18 -38 -18q-21 0 -36 15t-15 36t15 36t36 15h6z" />
    <glyph glyph-name="numbersign" unicode="#" horiz-adv-x="579" 
d="M408 333l-52 -216h133l-4 -16h-133l-24 -102h-16l24 102h-153l-24 -102h-16l24 102h-133l4 16h133l52 216h-133l4 16h133l24 102h16l-24 -102h153l24 102h16l-24 -102h133l-4 -16h-133zM392 333h-153l-52 -216h153z" />
    <glyph glyph-name="dollar" unicode="$" horiz-adv-x="627" 
d="M462 566q-29 60 -71 91t-84 38v-259q19 -9 42 -18q42 -15 81.5 -35.5t70.5 -48t50 -64.5t19 -85q0 -54 -22.5 -91.5t-59.5 -61t-84.5 -33t-96.5 -7.5v-43h-16v44q-53 5 -101 22t-83 45l-56 -55l-9 3l35 178h13q11 -36 32.5 -65.5t48.5 -52t58.5 -37t63.5 -20.5v345
q-36 15 -71 31t-62.5 37t-44.5 48t-17 65q0 49 16.5 82.5t43.5 54t62 29t73 7.5v45h16v-46q39 -3 76.5 -13.5t67.5 -25.5l130 45l7 -7l-113 -143h-12zM484 164q0 39 -15 67t-39.5 50t-56.5 38t-66 31v-341q34 -4 66 3t57 25.5t39.5 50t14.5 76.5zM291 697q-26 1 -48.5 -6
t-40 -22t-27.5 -37t-10 -50q0 -47 31.5 -79t94.5 -61v255z" />
    <glyph glyph-name="percent" unicode="%" horiz-adv-x="407" 
d="M199 601q0 -38 -19.5 -64.5t-60.5 -26.5q-42 0 -60.5 26.5t-18.5 64.5t18 64.5t61 26.5q22 0 37.5 -7t25 -19.5t13.5 -29t4 -35.5zM56 601q0 -32 15 -54t47 -22t47 22t15 54t-13.5 54t-47.5 22q-33 0 -47 -22t-14 -54h-2zM285 182q22 0 37.5 -7t25 -19.5t13.5 -29
t4 -35.5q0 -38 -19.5 -64.5t-60.5 -26.5q-42 0 -60.5 26.5t-18.5 64.5t18 64.5t61 26.5zM283 15q32 0 47 22t15 54t-13.5 54t-47.5 22q-33 0 -47 -22t-14 -54t15 -54t47 -22h-2zM311 692l-209 -691h-16l209 691h16z" />
    <glyph glyph-name="ampersand" unicode="&#x26;" horiz-adv-x="714" 
d="M688 385q-35 -31 -64.5 -42t-55.5 -10t-49.5 10t-45.5 17.5t-44 12.5t-46 -5q26 4 58 -5.5t59.5 -30.5t46 -52.5t18.5 -71.5q0 -54 -20.5 -94.5t-53 -68t-73 -41t-79.5 -13.5q-44 0 -93.5 11.5t-92.5 38t-71 71t-28 110.5q0 48 16.5 84t43.5 60t61 38t69 19
q-78 14 -118.5 47.5t-40.5 90.5q0 43 24.5 71.5t62 45.5t82 24t83.5 7q40 0 71 -8.5t52.5 -22t33 -30t13.5 -33.5v-6q0 -20 -13.5 -33.5t-33.5 -13.5t-34.5 14.5t-14.5 34.5q0 15 8 27t21 17q-15 17 -40.5 25.5t-54.5 9t-59 -7t-54 -23t-39 -40t-15 -56.5q0 -71 44.5 -102
t129.5 -30v-16q-100 0 -152.5 -50.5t-52.5 -145.5q0 -47 15 -85.5t41.5 -66t61.5 -42.5t75 -15q69 0 107.5 52.5t38.5 146.5q0 52 -18 82.5t-42 44t-48.5 14t-37.5 -6.5l-13 8q45 40 80.5 50.5t65 6.5t54.5 -16.5t49 -20t48 -3t53 34.5l12 -16z" />
    <glyph glyph-name="quotesingle" unicode="'" horiz-adv-x="209" 
d="M89 706q18 0 34.5 -15t27.5 -39t13.5 -55t-6.5 -63.5t-32.5 -64t-65.5 -55.5l-10 16q37 22 57 49t26.5 53t3 49.5t-12.5 39.5q-15 -18 -38 -18q-22 0 -37 15t-15 36t15 36t37 15h6z" />
    <glyph glyph-name="parenleft" unicode="(" horiz-adv-x="285" 
d="M129 263q0 -68 7 -124.5t18 -101.5t26 -80t30 -61q35 -62 81 -93l-9 -14q-64 54 -113 125q-21 30 -41.5 67.5t-36.5 81t-25.5 94t-9.5 106.5t9.5 106t25.5 94t36.5 81.5t41.5 67.5q49 71 113 125l9 -14q-46 -33 -81 -94q-15 -26 -30 -61t-26 -80t-18 -101t-7 -124z" />
    <glyph glyph-name="parenright" unicode=")" horiz-adv-x="285" 
d="M3 736q63 -54 113 -125q21 -30 41.5 -67.5t36 -81.5t25.5 -94t10 -106t-10 -106.5t-25.5 -94t-36 -81t-41.5 -67.5q-50 -71 -113 -125l-9 14q45 31 81 93q15 26 29.5 61t26 80t18.5 101.5t7 124.5t-7 124t-18.5 101t-26 80t-29.5 61q-36 61 -81 94l9 14v0z" />
    <glyph glyph-name="asterisk" unicode="*" horiz-adv-x="387" 
d="M345 543q7 -20 -3 -39t-30 -26q-17 -6 -33 0q-11 4 -22.5 8.5t-21 7.5t-16 2t-9.5 -9t2 -13t14 -8.5t21 -6.5t24 -7q17 -5 28 -20q13 -17 9.5 -38t-20.5 -34t-38 -9.5t-34 20.5q-10 14 -10 32q0 12 1.5 24.5t1.5 22.5t-3 16.5t-11 6.5q-9 0 -12 -6t-4 -16t0 -22.5
t1 -24.5q0 -18 -10 -32q-13 -17 -34 -20.5t-38 9.5t-20.5 34t9.5 38q11 15 28 20q12 3 24 5.5t21.5 6t14.5 8t3 12.5t-9 9.5t-16.5 -1t-21 -7t-23.5 -8.5q-16 -6 -33 0q-20 7 -30 26t-3 39t26 30t39 3q17 -6 26 -20q7 -10 13 -20.5t12 -18.5t12 -11.5t13 1.5t6 12t-6.5 15
t-13.5 17.5t-15 19.5q-11 14 -11 32q0 21 15 36t36 15q22 0 37 -15t15 -37q0 -18 -11 -32q-7 -10 -15 -19t-14 -17.5t-7 -15t5 -11.5q7 -5 13 -2t12.5 10.5t13 18.5t13.5 21q9 14 26 20q20 7 39 -3t26 -30z" />
    <glyph glyph-name="plus" unicode="+" horiz-adv-x="305" 
d="M275 239v-16h-115v-115h-16v115h-115v16h115v115h16v-115h115z" />
    <glyph glyph-name="comma" unicode="," horiz-adv-x="177" 
d="M77 89q18 0 34.5 -15t27.5 -39t13.5 -55t-6.5 -63.5t-32.5 -64t-65.5 -55.5l-10 16q37 22 57 49t26.5 53t3 49.5t-12.5 39.5q-15 -18 -38 -18q-22 0 -37 15t-15 37q0 21 15 36t37 15h6h-3z" />
    <glyph glyph-name="hyphen" unicode="-" horiz-adv-x="267" 
d="M10 223v16h246v-16h-246z" />
    <glyph glyph-name="period" unicode="." horiz-adv-x="154" 
d="M77 -7q-21 0 -36 15t-15 36t15 36t36 15t36 -15t15 -36t-15 -36t-36 -15z" />
    <glyph glyph-name="slash" unicode="/" horiz-adv-x="231" 
d="M184 634l-133 -691h-16l133 691h16z" />
    <glyph glyph-name="zero" unicode="0" horiz-adv-x="720" 
d="M360 705q63 0 119 -24.5t97.5 -70t65.5 -111.5t24 -150q0 -87 -24 -153.5t-65.5 -111.5t-97.5 -68t-119 -23t-119 23.5t-97.5 69t-65.5 112t-24 151.5q0 83 24 149t65.5 112t97.5 70.5t119 24.5zM360 11q44 0 83 22t68 64.5t46 105.5t17 145q0 79 -17 141.5t-46 106
t-68 66.5t-83 23t-83 -23t-68 -66.5t-46 -106t-17 -141.5q0 -81 17 -143.5t46 -105.5t68 -65.5t83 -22.5z" />
    <glyph glyph-name="one" unicode="1" horiz-adv-x="373" 
d="M298 675q-12 -2 -19.5 -11.5t-7.5 -21.5v-599q0 -12 7.5 -21.5t19.5 -11.5l26 -5v-8h-195v8l26 5q12 2 19.5 11.5t7.5 21.5v600q-23 -15 -50.5 -20.5t-51.5 -7.5q-28 -2 -57 1v23q25 1 51 7q23 5 51 15.5t56 28.5h142v-8l-26 -5z" />
    <glyph glyph-name="two" unicode="2" horiz-adv-x="586" 
d="M549 168q-30 -36 -54.5 -70t-47.5 -60t-45.5 -42t-49.5 -16q-17 0 -38 13t-44 28.5t-48 29t-50 15.5t-50.5 -13t-49.5 -57l-17 9q26 57 58 103.5t65 88t65.5 79.5t58.5 78t43.5 84t21.5 96q5 59 -14 91t-48.5 43.5t-63 5.5t-56.5 -22q-2 -2 -7.5 -5.5t-13.5 -10.5
q-17 -12 -30 -45t0 -73q10 -30 30.5 -40.5t42.5 -7t42 17t29 31.5l14 -9q-10 -31 -30 -55q-17 -20 -44.5 -37t-69.5 -17t-69.5 27.5t-31 68.5t23.5 88t95 87q46 27 92.5 35.5t87 2t71.5 -27.5t45 -53t7.5 -74.5t-39.5 -91.5q-40 -60 -77 -102.5t-72 -80t-70 -76.5t-72 -93
q36 23 73 18.5t70.5 -19.5t63 -31t51.5 -16q24 0 47.5 18t43.5 41q21 24 43 60z" />
    <glyph glyph-name="three" unicode="3" horiz-adv-x="599" 
d="M352 429q36 -5 70.5 -18.5t62 -38t44.5 -60t17 -84.5q0 -66 -30.5 -110.5t-75 -71t-93.5 -38t-86 -11.5t-76.5 10.5t-70 32.5t-46.5 54.5t-7 76.5q6 31 21.5 47t31.5 24q18 9 41 9q20 0 34.5 -14.5t14.5 -34.5t-14.5 -34.5t-34.5 -14.5t-35 15q-8 -6 -14 -17t-6 -28
q0 -22 12 -42t33 -35.5t50 -24.5t64 -9q34 0 68.5 15t62.5 42.5t45 66t17 85.5q0 95 -52.5 145.5t-152.5 50.5v16q85 -1 129.5 35t44.5 107q0 35 -20 59.5t-51 36.5t-69 11t-73.5 -15t-64 -42t-41.5 -71h-15q-6 30 -11 52.5t-10.5 40.5t-11.5 32.5t-13 28.5l12 5
q13 -12 31 -24t32 -20q19 4 38 11.5t41.5 14.5t50 12t63.5 5q39 0 76 -6t65.5 -21.5t45.5 -42.5t17 -70q0 -57 -41 -93.5t-121 -52.5z" />
    <glyph glyph-name="four" unicode="4" horiz-adv-x="585" 
d="M483 46q0 -12 7.5 -21.5t19.5 -11.5l26 -5v-8h-195v8l26 5q12 2 19.5 11.5t7.5 21.5v197h-337v1l-1 -1l-30 35q85 65 169 144q36 34 76 73.5t80.5 84.5t80.5 94t76 102l39 -23l-15 -16q-11 -12 -20 -24t-15.5 -29t-10 -40.5t-3.5 -57.5v-541v1zM394 265v329l-317 -329
h317z" />
    <glyph glyph-name="five" unicode="5" horiz-adv-x="526" 
d="M116 439q24 34 61 49.5t77.5 14t81 -18t72 -47t50.5 -74t17 -97.5q-2 -60 -22.5 -110t-54 -86t-78 -56t-95.5 -20t-85.5 15.5t-55.5 34.5q-25 22 -40 50l11 9q43 -46 99.5 -64t107.5 -2t86 70t35 152q0 65 -18 106.5t-45.5 63.5t-60 27.5t-62.5 -1t-53 -23t-30 -37.5h-22
v301h344l5 -9q-27 -35 -72 -55q-19 -9 -44 -15.5t-56.5 -8.5t-69.5 1.5t-84 15.5v-187z" />
    <glyph glyph-name="six" unicode="6" horiz-adv-x="585" 
d="M332 410q33 4 69 -5.5t66 -33t49 -62t19 -93.5q0 -67 -24.5 -110t-59 -68t-72.5 -35t-65 -10q-18 0 -44 2.5t-55 14t-57 33.5t-51 61t-37 97.5t-14 142.5q0 82 22 147.5t58.5 112.5t83 76t95.5 39t96.5 1t85.5 -38l-17 -20q-14 16 -44.5 28.5t-67.5 12.5t-76 -16.5
t-71 -59.5t-52.5 -116t-20.5 -186q0 -103 22 -169t54.5 -99.5t71 -37.5t71 16t54.5 60.5t22 97.5q0 60 -16 96.5t-40.5 54.5t-54.5 20.5t-58 -5.5t-50.5 -24.5t-32.5 -36.5l-14 8q13 26 35 48q19 19 48.5 35.5t71.5 21.5v-1z" />
    <glyph glyph-name="seven" unicode="7" horiz-adv-x="594" 
d="M577 692q-85 -93 -135 -191t-76.5 -190t-34.5 -172t-8 -138h-102q10 87 33.5 168t56 155t71.5 139.5t79 121.5q-23 -17 -49 -25.5t-61 -5.5q-26 2 -52 15t-52.5 27.5t-52 26.5t-51 13t-50.5 -14.5t-49 -54.5l-20 13q34 62 69.5 90t70.5 33.5t69.5 -5t66.5 -26t60 -29
t52 -13.5q35 0 61 12t43 26q20 17 34 38z" />
    <glyph glyph-name="eight" unicode="8" horiz-adv-x="635" 
d="M376 413q37 -5 74 -19t66 -40t47 -64t18 -89q0 -62 -26.5 -103t-66 -66t-85.5 -35t-85 -10t-85 10t-85.5 35t-66 66t-26.5 103q0 51 18 89t47 64t65.5 40t74.5 19q-83 17 -125 56t-47 99q-3 38 11.5 68.5t44.5 52.5t74 33.5t100 11.5q55 0 99 -11.5t74 -33.5t45 -52.5
t12 -68.5q-5 -60 -47 -99t-125 -56zM176 580q0 -38 11.5 -67.5t31 -49.5t45.5 -31t54 -11t54 11t45.5 31t31 49.5t11.5 67.5q0 30 -11.5 54t-30.5 41t-45 26t-55 9t-55 -9t-45 -26t-30.5 -41t-11.5 -54zM318 7q30 0 60.5 13.5t55 38.5t40 60t15.5 78t-14 80t-37.5 64
t-54.5 42.5t-65 15.5t-65 -15.5t-54.5 -42.5t-37.5 -64t-14 -80t15.5 -78t40 -60t55 -38.5t60.5 -13.5z" />
    <glyph glyph-name="nine" unicode="9" horiz-adv-x="585" 
d="M269 726q18 0 44 -2.5t55 -14t57 -33.5t51 -61t37 -97.5t14 -142.5q0 -82 -22 -147.5t-58.5 -112.5t-83 -76t-95.5 -39t-96.5 -1t-85.5 38l17 20q14 -16 44.5 -28.5t67.5 -12.5t76 16.5t71 59.5t52.5 116t20.5 186q0 103 -22 169t-54.5 99.5t-71 37.5t-71 -16t-54.5 -61
t-22 -97q0 -60 16 -96.5t40.5 -54.5t54.5 -20.5t58 5.5t50.5 24.5t32.5 36.5l14 -8q-13 -26 -35 -48q-19 -19 -48 -35.5t-71 -21.5q-33 -4 -69 5.5t-66 33t-49 62t-19 93.5q0 67 24.5 110t59 68t72.5 35t65 10z" />
    <glyph glyph-name="colon" unicode=":" horiz-adv-x="176" 
d="M88 -7q-21 0 -36 15t-15 36t15 36t36 15t36 -15t15 -36t-15 -36t-36 -15zM88 534q-21 0 -36 15t-15 36t15 36t36 15t36 -15t15 -36t-15 -36t-36 -15z" />
    <glyph glyph-name="semicolon" unicode=";" horiz-adv-x="197" 
d="M88 94q18 0 34.5 -15t27.5 -39t13.5 -55t-6.5 -63.5t-32.5 -64t-65.5 -55.5l-10 16q37 22 57 49t26.5 53t3 49.5t-12.5 39.5q-15 -18 -38 -18q-22 0 -37 15t-15 37q0 21 15 36t37 15h6h-3zM83 532q-21 0 -36 15t-15 36t15 36t36 15t36 -15t15 -36t-15 -36t-36 -15z" />
    <glyph glyph-name="less" unicode="&#x3c;" horiz-adv-x="290" 
d="M105 299q65 -23 97 -78.5t41 -149.5h-20q-3 50 -22 87.5t-46 64t-60 43t-64 24.5v18q31 8 64 24.5t60 43t46 64t22 87.5h20q-9 -94 -41 -149.5t-97 -78.5z" />
    <glyph glyph-name="equal" unicode="=" horiz-adv-x="277" 
d="M15 299v16h246v-16h-246zM15 146v16h246v-16h-246z" />
    <glyph glyph-name="greater" unicode="&#x3e;" horiz-adv-x="290" 
d="M67 527q3 -50 22 -87.5t46 -64t59.5 -43t64.5 -24.5v-18q-32 -8 -64.5 -24.5t-59.5 -43t-46 -64t-22 -87.5h-20q9 94 41 149.5t97 78.5q-65 23 -97 78.5t-41 149.5h20v0z" />
    <glyph glyph-name="question" unicode="?" horiz-adv-x="573" 
d="M287 -7q-21 0 -36 15t-15 36t15 36t36 15t36 -15t15 -36t-15 -36t-36 -15zM256 699q60 9 111 -3t88 -38t57.5 -62t20 -75.5t-25 -77.5t-77.5 -68q-48 -27 -78.5 -47t-45.5 -39.5t-16 -41.5t10 -51h-26q-17 42 -9.5 75.5t28.5 64t49.5 61.5t53.5 68q27 41 30.5 74.5
t-10 58.5t-39.5 42t-57.5 24t-65 4.5t-60.5 -16t-44.5 -38.5t-17.5 -62t21.5 -57t51.5 -26t60.5 0t47.5 21l11 -15q-30 -27 -65 -45q-30 -15 -69.5 -21.5t-84.5 10.5q-30 11 -46.5 34t-19.5 51t8 58t37.5 57.5t69 48.5t101.5 31h1z" />
    <glyph glyph-name="at" unicode="@" horiz-adv-x="837" 
d="M463 711q76 0 139 -28t106.5 -76.5t64 -113.5t11.5 -139q-4 -37 -17 -75q-15 -36 -40 -60.5t-54 -38.5t-60.5 -18.5t-59 -0.5t-49.5 15.5t-32 29.5q-41 -23 -74 -23q-48 0 -78.5 13.5t-48 37t-22.5 54.5t0 67q4 36 22 67t45 54.5t61 37t71 13.5q21 0 45.5 -7t42.5 -33
q12 8 29 15t35 7l3 -12q-9 -5 -12.5 -13.5t-5.5 -14.5q-9 -41 -20 -94t-31 -129q-9 -36 4.5 -55t36.5 -19t49.5 19.5t43.5 59.5q9 24 15.5 49.5t9.5 51.5q9 70 -5 131t-45.5 107t-78 72.5t-103.5 26.5t-110 -26.5t-95.5 -72.5t-71.5 -107t-38 -131t5 -129t45.5 -103.5
t78 -71.5t102.5 -33q42 -4 75.5 -3.5t63.5 7t59.5 20.5t63.5 36l14 -22q-32 -20 -63 -33t-65 -19.5t-71 -7.5t-81 2q-76 5 -139 33.5t-106.5 75.5t-64 110t-11.5 137t46 139t93 113.5t126 76.5t146 28v3zM471 276q14 65 24.5 110t17.5 73q-8 29 -25.5 39t-39.5 10
q-55 0 -89 -42.5t-42 -110.5q-4 -34 -2.5 -62.5t11 -49.5t27 -33t44.5 -12q22 0 42 16t29 50l3 12v0z" />
    <glyph glyph-name="A" unicode="A" horiz-adv-x="868" 
d="M867 13v-8h-206v8l9 2q13 2 18.5 14t-1.5 23l-88 156h-379l-78 -138q-10 -17 -1.5 -34.5t28.5 -19.5l28 -3v-8h-195v8l21 2q31 3 57 20t42 44l276 485l-32 56q-15 26 -40.5 43t-56.5 20l-33 3v8h212v-8q-7 -2 -9.5 -8.5t0.5 -12.5l337 -597q13 -22 33.5 -36t45.5 -18z
M587 230l-176 312l-178 -312h354z" />
    <glyph glyph-name="B" unicode="B" horiz-adv-x="606" 
d="M175 423q75 21 149.5 13.5t132 -39.5t89.5 -86.5t22 -127.5q-8 -56 -30 -94t-55 -60.5t-75 -32t-91 -9.5q-42 0 -71 2.5t-56 5.5t-57.5 5.5t-73.5 2.5h-26v8l26 5q12 2 19.5 11.5t7.5 21.5v599q0 12 -7.5 21.5t-19.5 11.5l-26 5v8h26q43 0 73 2.5t58 5.5t61 5.5t84 2.5
q86 0 125.5 -37t31.5 -98q-5 -32 -27 -58t-62 -42t-97 -18.5t-130 13.5v-46zM174 491q37 -10 79.5 -14.5t79 3t61 30t24.5 67.5q0 37 -14 59.5t-36 35t-49 16.5t-54 3t-51 -5.5t-39 -7.5zM480 189q10 68 -15 118t-70.5 78.5t-104.5 33t-116 -18.5v-382q16 -4 43 -9t58.5 -5
t64 7.5t61.5 27.5t50.5 56t29.5 93z" />
    <glyph glyph-name="C" unicode="C" horiz-adv-x="768" 
d="M404 684q-57 0 -107.5 -26.5t-88 -72.5t-59.5 -107t-22 -131t22 -131.5t59.5 -107t88 -72t107.5 -26.5q69 0 127.5 27t100.5 75l24 -25q-50 -45 -114 -70t-137 -25q-77 0 -144 28t-117 76.5t-79 113.5t-29 139t29 139t79 113.5t117 76.5t144 28q53 0 101 -13.5t90 -37.5
l169 58l7 -7l-113 -143h-12q-45 57 -107.5 90t-134.5 33z" />
    <glyph glyph-name="D" unicode="D" horiz-adv-x="815" 
d="M119 694q23 0 64 4.5t92 8.5t108.5 3.5t113.5 -10.5t107 -32.5t89 -63.5t60 -103.5t19 -151.5t-27.5 -151.5t-64 -103.5t-90 -63.5t-106 -32.5t-111.5 -10.5t-105.5 3.5t-89.5 8.5t-63 4.5h-81v8l26 5q12 2 19.5 11.5t7.5 21.5v599q0 12 -7.5 21.5t-19.5 11.5l-26 5v8h84
zM177 25q30 -5 79 -14t105 -10t112.5 12t102.5 51t75 107.5t29 181.5q0 98 -24.5 163.5t-65.5 104.5t-93.5 55.5t-108.5 18t-111 -9.5t-100 -27v-633v0z" />
    <glyph glyph-name="E" unicode="E" horiz-adv-x="687" 
d="M664 156l-86 -150h-544v8l26 5q12 2 19.5 11.5t7.5 21.5v599q0 12 -7.5 21.5t-19.5 11.5l-26 5v8h552l40 -157l-12 -5q-8 10 -16.5 20t-18.5 20q-17 17 -38.5 37t-46.5 38q-34 17 -80.5 25t-92 7.5t-85 -9t-59.5 -23.5v-252q14 -2 38.5 -3.5t53.5 3.5q11 10 18.5 26
t12.5 32q3 9 5.5 18.5t4.5 19.5h10q5 -41 13.5 -74t17 -58.5t16 -42t10.5 -23.5l-10 -5q-27 30 -50 49.5t-37 29.5q-32 10 -60.5 8t-43.5 -6v-322q20 -15 63 -23t95 -8.5t104.5 7t91.5 22.5q26 19 49.5 38.5t40.5 36.5l19 19t17 18z" />
    <glyph glyph-name="F" unicode="F" horiz-adv-x="639" 
d="M626 540l-12 -5q-16 20 -35 40q-17 17 -38.5 37t-46.5 38q-34 17 -80 25t-92 7.5t-85.5 -9t-59.5 -23.5v-252q14 -2 38.5 -3.5t53.5 3.5q11 10 18.5 26t12.5 32q6 18 10 38h10q5 -41 13 -74t17 -58.5t16.5 -42t10.5 -23.5l-10 -5q-27 30 -50 49.5t-37 29.5
q-32 10 -60.5 8t-43.5 -6v-322q0 -12 7.5 -21.5t19.5 -11.5l26 -5v-8h-195v8l26 5q12 2 19.5 11.5t7.5 21.5v599q0 12 -7.5 21.5t-19.5 11.5l-26 5v8h552z" />
    <glyph glyph-name="G" unicode="G" horiz-adv-x="796" 
d="M573 323v8h195v-8l-26 -5q-12 -2 -19.5 -11.5t-7.5 -21.5v-155q-36 -38 -75.5 -64.5t-79.5 -43t-79.5 -24t-75.5 -7.5q-77 0 -144 28t-117 76.5t-79 113.5t-29 139t29 139t79 113.5t117 76.5t144 28q53 0 101 -13.5t90 -37.5l169 58l7 -7l-113 -143h-12q-45 57 -107.5 90
t-134.5 33q-57 0 -107.5 -26.5t-88 -72.5t-59.5 -107t-22 -131t22 -131.5t59.5 -107t88 -72t107.5 -26.5q67 0 123.5 25t98.5 70v181q0 12 -7.5 21.5t-19.5 11.5l-26 5z" />
    <glyph glyph-name="H" unicode="H" 
d="M731 681q-12 -2 -19.5 -11.5t-7.5 -21.5v-599q0 -12 7.5 -21.5t19.5 -11.5l26 -5v-8h-195v8l26 5q12 2 19.5 11.5t7.5 21.5v373h-439v-373q0 -12 7.5 -21.5t19.5 -11.5l26 -5v-8h-195v8l26 5q12 2 19.5 11.5t7.5 21.5v599q0 12 -7.5 21.5t-19.5 11.5l-26 5v8h195v-8
l-26 -5q-12 -2 -19.5 -11.5t-7.5 -21.5v-205h439v205q0 12 -7.5 21.5t-19.5 11.5l-26 5v8h195v-8l-26 -5v0z" />
    <glyph glyph-name="I" unicode="I" horiz-adv-x="264" 
d="M203 681q-12 -2 -19.5 -11.5t-7.5 -21.5v-599q0 -12 7.5 -21.5t19.5 -11.5l26 -5v-8h-195v8l26 5q12 2 19.5 11.5t7.5 21.5v599q0 12 -7.5 21.5t-19.5 11.5l-26 5v8h195v-8zM131 759q-20 0 -34.5 14.5t-14.5 34.5t14.5 34.5t34.5 14.5t34.5 -14.5t14.5 -34.5t-14.5 -34.5
t-34.5 -14.5z" />
    <glyph glyph-name="J" unicode="J" horiz-adv-x="449" 
d="M419 693v-8l-26 -5q-12 -2 -19.5 -11.5t-7.5 -21.5v-437q0 -38 -9.5 -77.5t-31.5 -72t-59.5 -53t-92.5 -20.5q-56 0 -90 20t-50.5 48.5t-16.5 58.5t13 51q4 8 16 17t27 9q20 0 34.5 -14.5t14.5 -34.5t-14.5 -34.5t-34.5 -14.5q-6 0 -9 1q-5 -14 0.5 -29.5t19 -28.5
t34.5 -21t48 -8q36 0 58 17t34 45t16 65t4 78v430q0 15 -10 26t-25 13l-67 6v8z" />
    <glyph glyph-name="K" unicode="K" horiz-adv-x="597" 
d="M581 71q-3 -14 -9.5 -28.5t-17 -26.5t-25 -20t-32.5 -8q-27 0 -53 10t-46.5 40t-33 85t-12.5 145v53q0 62 -15 96.5t-40 50t-56.5 16.5t-65.5 -5v-430q0 -12 7.5 -21.5t19.5 -11.5l26 -5v-8h-195v8l26 5q12 2 19.5 11.5t7.5 21.5v599q0 12 -7.5 21.5t-19.5 11.5l-26 5v8
h195v-8l-26 -5q-12 -2 -19.5 -11.5t-7.5 -21.5v-112q40 -8 75 11t68 73q19 30 38.5 47t37.5 25t32.5 9.5t23.5 0.5q25 -2 44.5 -16.5t27.5 -34.5q5 -11 5 -25.5t-6 -27.5t-18 -21.5t-30 -8.5q-19 0 -32 13t-13 32t13 32t32 13q12 0 23 -6q-3 12 -18.5 23t-38.5 10.5
t-49.5 -17.5t-51.5 -60q-13 -23 -29 -41.5t-35.5 -31t-43.5 -17t-52 0.5v-22q45 4 85 -0.5t70 -28t47.5 -71.5t17.5 -130q0 -87 8 -139t21.5 -79t31.5 -35t38 -8q18 0 29 7.5t17.5 18.5t9 23.5t4.5 23.5z" />
    <glyph glyph-name="L" unicode="L" horiz-adv-x="674" 
d="M664 154l-86 -150h-544v8l26 5q12 2 19.5 11.5t7.5 21.5v599q0 12 -7.5 21.5t-19.5 11.5l-26 5v8h195v-8l-26 -5q-12 -2 -19.5 -11.5t-7.5 -21.5v-599q13 -10 37 -17t55 -10.5t66 -4t70 3t67.5 10t58.5 16.5q26 19 49.5 38.5t40.5 36.5q20 19 36 37z" />
    <glyph glyph-name="M" unicode="M" horiz-adv-x="1131" 
d="M1048 79q11 -26 32.5 -43.5t49.5 -22.5v-8h-206v8l15 3q12 2 18 13t1 22l-212 543l-192 -224l-172 208l-246 -509q-8 -17 1 -34t28 -19l32 -4v-8h-195v8l9 1q37 4 66.5 25t45.5 54l243 504l-34 42q-33 39 -84 44l-51 5v8h187l206 -249l214 249h112v-8l-99 -10l-3 -4
l232 -595z" />
    <glyph glyph-name="N" unicode="N" horiz-adv-x="715" 
d="M697 697v-8l-23 -3q-27 -3 -45.5 -23.5t-18.5 -48.5v-609h-27l-454 596v-514q0 -28 18.5 -48.5t45.5 -23.5l23 -3v-8h-195v8l23 3q27 3 45.5 23.5t18.5 48.5v523q0 23 -14 41.5t-37 24.5l-35 10v8h153l415 -545v463q0 28 -18.5 48.5t-45.5 23.5l-23 3v8z" />
    <glyph glyph-name="O" unicode="O" horiz-adv-x="804" 
d="M402 705q76 0 142.5 -28t116 -76.5t78.5 -113.5t29 -139t-29 -139t-78.5 -113.5t-116 -76.5t-142.5 -28t-142.5 28t-116 76.5t-78.5 113.5t-29 139t29 139t78.5 113.5t116 76.5t142.5 28zM402 11q57 0 106.5 26.5t87 72t59 107t21.5 131.5t-21.5 131t-59 107t-87 72.5
t-106.5 26.5t-106.5 -26.5t-87 -72.5t-59 -107t-21.5 -131t21.5 -131.5t59 -107t87 -72t106.5 -26.5z" />
    <glyph glyph-name="P" unicode="P" horiz-adv-x="573" 
d="M360 710q99 0 150.5 -35t44.5 -104q-5 -46 -37.5 -78.5t-84 -46t-118 -4t-138.5 48.5v-442q0 -12 7.5 -21.5t19.5 -11.5l26 -5v-8h-195v8l26 5q12 2 19.5 11.5t7.5 21.5v599q0 12 -7.5 21.5t-19.5 11.5l-26 5v8h26q43 0 76.5 2.5t66 5.5t69 5.5t87.5 2.5zM463 578
q1 38 -15 60.5t-42 35t-59 16t-65 2t-60 -6t-45 -7.5v-164q14 -12 40.5 -24.5t57.5 -20t64 -8t60 11t44.5 36t19.5 68.5v1z" />
    <glyph glyph-name="Q" unicode="Q" horiz-adv-x="805" 
d="M768 349q0 -74 -29 -139t-78.5 -113.5t-116 -76.5t-142.5 -28t-142.5 28t-116 76.5t-78.5 113.5t-29 139t29 139t78.5 113.5t116 76.5t142.5 28t142.5 -28t116 -76.5t78.5 -113.5t29 -139zM128 349q0 -70 21.5 -131.5t59 -107t87 -72t106.5 -26.5t106.5 26.5t87 72
t59 107t21.5 131.5t-21.5 131t-59 107t-87 72.5t-106.5 26.5t-106.5 -26.5t-87 -72.5t-59 -107t-21.5 -131zM837 -56q-46 -66 -88.5 -96t-82 -36t-77 7t-74.5 33t-74 42.5t-76.5 36t-81 12t-87.5 -29.5l-11 15q65 29 120.5 34.5t103 -3t88 -27t76.5 -36t68 -30t62 -10.5
t59.5 24t59.5 73z" />
    <glyph glyph-name="R" unicode="R" horiz-adv-x="674" 
d="M400 288q16 -29 30.5 -60.5t30 -61.5t34 -57.5t43.5 -47.5t57.5 -32t76.5 -11v-12q-57 -6 -104 6t-86 39t-70.5 69t-57.5 96q-14 30 -26 57t-24.5 49t-27 36.5t-33.5 18.5q-17 0 -34 1.5t-33 3.5v-331q0 -12 7.5 -21.5t19.5 -11.5l26 -5v-8h-195v8l26 5q12 2 19.5 11.5
t7.5 21.5v599q0 12 -7.5 21.5t-19.5 11.5l-26 5v8h100q26 0 62 4.5t75.5 8t78.5 2t72.5 -14t57.5 -38t33 -71.5q10 -51 -5 -88t-46 -62.5t-74 -39.5t-89 -19q29 -11 54.5 -33t47.5 -60zM175 401q22 -6 51 -6.5t58.5 5t57.5 18.5t47.5 35.5t29 54t3.5 75.5q-9 58 -39.5 81.5
t-69 27t-76.5 -6t-62 -18.5v-266v0z" />
    <glyph glyph-name="S" unicode="S" horiz-adv-x="597" 
d="M335 415q42 -15 81.5 -35.5t70.5 -48t50 -64.5t19 -85q0 -51 -20.5 -87.5t-54 -60t-77.5 -35t-90 -11.5q-63 0 -122 18t-100 52l-56 -55l-9 3l35 178h13q13 -41 38.5 -73.5t58 -55.5t69 -35.5t72.5 -13.5q32 -1 61 7.5t50.5 27.5t34.5 49t13 72q0 55 -28.5 90t-72 59.5
t-93.5 43.5t-93.5 42.5t-72 55.5t-28.5 82q0 52 17.5 86t47 54t66.5 27t76.5 4.5t77.5 -13t68 -25.5l130 45l7 -7l-113 -143h-12q-23 46 -54 74.5t-64 42.5t-65 13t-57.5 -14.5t-41.5 -39t-16 -61.5q0 -56 46.5 -92.5t138.5 -70.5h-1z" />
    <glyph glyph-name="T" unicode="T" horiz-adv-x="632" 
d="M630 709l-53 -138l-10 1q-4 34 -28 60q-20 22 -62 37t-118 8v-629q0 -12 7.5 -21.5t19.5 -11.5l26 -5v-8h-195v8l26 5q12 2 19.5 11.5t7.5 21.5v629q-76 7 -118 -8t-62 -37q-24 -26 -28 -60l-10 -1l-53 138l9 3q6 -5 16 -9q8 -4 21.5 -6.5t33.5 -2.5h471q20 0 33.5 2.5
t21.5 6.5q10 4 16 9z" />
    <glyph glyph-name="U" unicode="U" horiz-adv-x="766" 
d="M555 694h195v-8l-20 -2q-29 -3 -47.5 -24t-18.5 -50v-379v-3q0 -21 -3 -47t-12 -53t-26 -52.5t-46 -46t-71 -32.5t-100 -12q-101 0 -164.5 19.5t-99.5 53t-49 77.5t-13 93v420q0 12 -7.5 21.5t-19.5 11.5l-26 5v8h195v-8l-26 -5q-12 -2 -19.5 -11.5t-7.5 -21.5v-420
q0 -109 64 -162t176 -53q71 0 116.5 18.5t71.5 49t35.5 69t9.5 78.5v3v379q0 29 -18.5 50t-47.5 24l-20 2z" />
    <glyph glyph-name="V" unicode="V" horiz-adv-x="727" 
d="M532 694h195v-8l-13 -1q-34 -4 -60.5 -24.5t-38.5 -52.5l-227 -604h-22l-290 631q-9 20 -26 33t-38 17l-8 1v8h195v-8l-11 -2q-17 -3 -24.5 -17.5t-0.5 -29.5l242 -527l194 517q7 19 -4 36t-31 19l-34 4z" />
    <glyph glyph-name="W" unicode="W" horiz-adv-x="1056" 
d="M861 692h195v-8l-13 -1q-34 -4 -60.5 -24.5t-38.5 -52.5l-227 -604h-22q-20 120 -53 234q-14 48 -32 99.5t-40 101t-49 93.5t-59 79q5 -47 11.5 -105.5t3 -133t-23 -165.5t-66.5 -202h-22l-290 631q-9 20 -26 33t-38 17l-8 1v8h195v-8l-11 -2q-17 -3 -24.5 -17.5
t-0.5 -29.5l241 -525q15 37 26 84t17 99t7 105.5t-3 103t-14 91.5t-25 72l49 58q44 -37 81 -86t67.5 -103t53.5 -111t40 -110t27.5 -99.5t14.5 -79.5l185 492q7 19 -4 36t-31 19l-34 4z" />
    <glyph glyph-name="X" unicode="X" horiz-adv-x="757" 
d="M751 10v-8h-206v8l5 1q8 2 11.5 9.5t-1.5 14.5l-217 315l-194 -286q-11 -15 -3.5 -31.5t25.5 -18.5l28 -3v-8h-195v8l10 1q37 4 68.5 23t52.5 50l194 285l-189 274q-22 33 -62 38l-30 4v8h207v-8q-7 -2 -9.5 -8.5t2.5 -12.5l140 -207l130 190q8 11 2.5 22t-18.5 13l-25 3
v8h195v-8l-26 -2q-38 -4 -71.5 -23.5t-55.5 -51.5l-117 -170l261 -379q14 -20 37.5 -32t48.5 -16z" />
    <glyph glyph-name="Y" unicode="Y" horiz-adv-x="687" 
d="M491 695h195v-8l-15 -2q-32 -4 -55 -25.5t-28 -53.5q-14 -81 -39.5 -176t-63.5 -186q-18 -43 -41.5 -88t-52 -81.5t-62 -59.5t-70.5 -23q-54 0 -80.5 21.5t-30 48t12.5 48t46 21.5q22 0 37 -15t15 -36t-15 -36t-37 -15h-6q20 -14 57 -14q55 0 109 66q49 60 95 171
q6 14 12 29t11 30h-224l-166 315q-13 23 -35 38.5t-48 19.5l-12 2v8h240v-8l-22 -2q-19 -2 -27.5 -18.5t0.5 -33.5l158 -298h144q24 71 41.5 141t28.5 132q5 29 -11.5 51.5t-45.5 25.5l-17 2z" />
    <glyph glyph-name="Z" unicode="Z" horiz-adv-x="747" 
d="M735 154l-86 -150h-642v8q30 5 55 22t40 43l346 593q-29 6 -66 8t-75.5 0t-75.5 -7.5t-67 -15.5l-13 -131h-10l-81 159l7 11h581v-8q-46 -5 -85 -29.5t-62 -64.5l-324 -557q36 -10 93.5 -14t119.5 -2.5t119 9t91 20.5q26 19 49.5 38.5t40.5 36.5q20 19 36 37z" />
    <glyph glyph-name="bracketleft" unicode="[" horiz-adv-x="188" 
d="M118 710v-895h72v-16h-120v927h120v-16h-72z" />
    <glyph glyph-name="backslash" unicode="\" horiz-adv-x="231" 
d="M195 -57h-16l-133 691h16z" />
    <glyph glyph-name="bracketright" unicode="]" horiz-adv-x="188" 
d="M118 726v-927h-120v16h72v895h-72v16h120z" />
    <glyph glyph-name="asciicircum" unicode="^" horiz-adv-x="499" 
d="M258 633q8 -32 24.5 -64.5t43 -59.5t64 -46t87.5 -22v-20q-94 9 -149.5 41t-78.5 97q-23 -65 -78.5 -97t-149.5 -41v20q50 3 87.5 22t64 46t43 59.5t24.5 64.5h18v0z" />
    <glyph glyph-name="underscore" unicode="_" horiz-adv-x="472" 
d="M10 0v16h452v-16h-452z" />
    <glyph glyph-name="a" unicode="a" horiz-adv-x="715" 
d="M626 77q11 -26 33.5 -43.5t51.5 -22.5v-8h-206v8l15 3q12 2 18 13t1 22l-131 312h-159l-115 -282q-9 -22 3 -42t35 -23l23 -3v-8h-195v8l16 2q33 4 59.5 23.5t39.5 50.5l196 482q8 20 6 40t-12 36.5t-27 27.5t-38 13v8h195v-8l-58 -10l251 -598zM397 383l-72 171
l-69 -171h141z" />
    <glyph glyph-name="b" unicode="b" horiz-adv-x="589" 
d="M178 300q49 41 100 61.5t98 23.5t86 -11.5t63.5 -44t30.5 -74t-12 -101.5q-17 -52 -45 -83t-61.5 -48t-70 -22t-72 -4.5t-66.5 3.5t-53 3h-140v8l26 5q12 2 19.5 11.5t7.5 21.5v599q0 12 -7.5 21.5t-19.5 11.5l-26 5v8h76q67 0 128 7.5t129 5.5q34 -1 59 -14t39 -34.5
t15 -51.5t-12 -65q-14 -38 -50 -60t-79.5 -28t-88.5 5.5t-76 41.5v-200zM178 521q19 -22 50.5 -35t63.5 -11t59 22t38 65q11 49 -7.5 77.5t-52.5 40t-75.5 8.5t-75.5 -18v-149zM463 216q2 47 -13 76t-40 42.5t-57 14t-64.5 -9t-61.5 -27.5t-48 -40v-242q42 -23 90 -22.5
t89.5 23.5t70.5 69t32 116h2z" />
    <glyph glyph-name="c" unicode="c" horiz-adv-x="701" 
d="M688 198q-21 -46 -52.5 -84t-71.5 -65.5t-87 -42.5t-98 -15q-71 0 -133 28.5t-108 77t-73 114t-27 140.5t27 140.5t73 114t108 77t133 28.5q23 0 44 -4t41 -12q7 -2 20 -6t27 -4t28 6.5t24 24.5l9 -3q-5 -23 -7.5 -51t-3.5 -53q-1 -29 -1 -59h-7q-30 65 -75 105t-105 40
q-58 0 -103.5 -27t-77 -73.5t-48 -108.5t-16.5 -133t22 -133t60 -108.5t88.5 -73.5t108.5 -27q42 0 81 15t72 41.5t59 63.5t43 82z" />
    <glyph glyph-name="d" unicode="d" horiz-adv-x="813" 
d="M117 693q23 0 64 4.5t92 8.5t108.5 3.5t113.5 -10.5t107 -32.5t89 -63.5t60 -103.5t19 -151.5t-27.5 -151.5t-64 -103.5t-90 -63.5t-106 -32.5t-111.5 -10.5t-105.5 3.5t-89.5 8.5t-63 4.5h-28v645q0 12 -7.5 21.5t-19.5 11.5l-26 5v8h84zM175 24q30 -5 79 -14t105 -10
t112.5 12t102.5 51t75 107.5t29 181.5q0 98 -24.5 163.5t-65.5 104.5t-93.5 55.5t-108.5 18t-111 -9.5t-100 -27v-633v0z" />
    <glyph glyph-name="e" unicode="e" horiz-adv-x="771" 
d="M737 139q-38 -35 -74 -62.5t-75.5 -46t-85 -28t-101.5 -9.5q-76 0 -142.5 28t-116 76.5t-78.5 113.5t-29 139t29 139t78.5 113.5t116 76.5t142.5 28q75 0 140 -27.5t108.5 -75.5t58.5 -112t-9 -137h-92h-480v-6q0 -70 21.5 -131.5t59 -107t87 -72t106.5 -26.5
q59 0 103.5 11t81 30.5t67.5 47.5t62 62zM403 685q-54 0 -102 -24t-84.5 -66t-59.5 -98.5t-27 -121.5h486q18 65 7 122t-42 99t-78 66t-101 24z" />
    <glyph glyph-name="f" unicode="f" horiz-adv-x="639" 
d="M625 538l-12 -5q-16 20 -35 40q-17 17 -38.5 37t-46.5 38q-34 17 -80 25t-92 7.5t-85.5 -9t-59.5 -23.5v-200q21 12 41.5 15t39.5 0.5t37 -9.5t35 -15q25 -11 47 -19t40 -9t32 7t23 29l11 -5q-23 -42 -47.5 -56.5t-51 -12.5t-53.5 15t-53.5 25.5t-52 19t-48.5 -3.5v-380
q0 -12 7.5 -21.5t19.5 -11.5l26 -5v-8h-195v8l26 5q12 2 19.5 11.5t7.5 21.5v599q0 12 -7.5 21.5t-19.5 11.5l-26 5v8h552z" />
    <glyph glyph-name="g" unicode="g" horiz-adv-x="797" 
d="M770 332v-8l-26 -5q-12 -2 -19.5 -11.5t-7.5 -21.5v-284h-19l-53 68q-60 -43 -122 -61t-119 -18q-77 0 -144 28t-117 76.5t-79 113.5t-29 139t29 139t79 113.5t117 76.5t144 28q54 0 102.5 -13.5t90.5 -38.5q18 11 26.5 26.5t13.5 39.5h10l48 -180l-9 -4q-22 28 -55.5 55
t-71.5 48t-78 34t-76 13q-57 0 -107.5 -26.5t-88 -72.5t-59.5 -107t-22 -131t22 -131.5t59.5 -107t88 -72t107.5 -26.5q68 0 125 26t99 71v179q0 12 -7.5 21.5t-19.5 11.5l-26 5v8z" />
    <glyph glyph-name="h" unicode="h" 
d="M729 681q-12 -2 -19.5 -11.5t-7.5 -21.5v-599q0 -12 7.5 -21.5t19.5 -11.5l26 -5v-8h-195v8l26 5q12 2 19.5 11.5t7.5 21.5v350q-33 -17 -93 -18.5t-157 24.5q-1 0 -8.5 2.5t-16.5 4.5t-16.5 4.5t-8.5 2.5q-49 13 -82.5 11t-55.5 -15v-366q0 -12 7.5 -21.5t19.5 -11.5
l26 -5v-8h-195v8l26 5q12 2 19.5 11.5t7.5 21.5v599q0 12 -7.5 21.5t-19.5 11.5l-26 5v8h195v-8l-26 -5q-12 -2 -19.5 -11.5t-7.5 -21.5v-207q31 19 79.5 22t122.5 -17q100 -26 155.5 -29t82.5 9v222q0 12 -7.5 21.5t-19.5 11.5l-26 5v8h195v-8l-26 -5h-2z" />
    <glyph glyph-name="i" unicode="i" horiz-adv-x="262" 
d="M132 759q-20 0 -34.5 14.5t-14.5 34.5t14.5 34.5t34.5 14.5t34.5 -14.5t14.5 -34.5t-14.5 -34.5t-34.5 -14.5zM230 11v-8h-195v8l26 5q12 2 19.5 11.5t7.5 21.5v599q0 12 -7.5 21.5t-19.5 11.5l-26 5v8h142v-645q0 -12 7.5 -21.5t19.5 -11.5z" />
    <glyph glyph-name="j" unicode="j" horiz-adv-x="449" 
d="M420 692v-8l-26 -5q-12 -2 -19.5 -11.5t-7.5 -21.5v-437q0 -38 -9.5 -77.5t-31.5 -72t-59.5 -53t-92.5 -20.5q-56 0 -90 20t-50.5 48.5t-16.5 58.5t13 51q4 8 15.5 17t26.5 9q20 0 34.5 -14.5t14.5 -34.5t-14.5 -34.5t-34.5 -14.5q-6 0 -9 1q-5 -14 0.5 -29.5t19 -28.5
t34.5 -21t48 -8q36 0 58 17t34 45t16 65t4 78v430q0 15 -10 26t-25 13l-67 6v8zM322 756q-20 0 -34.5 14.5t-14.5 34.5t14.5 34.5t34.5 14.5t34.5 -14.5t14.5 -34.5t-14.5 -34.5t-34.5 -14.5z" />
    <glyph glyph-name="k" unicode="k" horiz-adv-x="676" 
d="M672 27q-28 -22 -54 -24t-49.5 11.5t-45 38.5t-39.5 57q-26 46 -48 96t-53.5 90t-79 62t-125.5 13v-322q0 -12 7.5 -21.5t19.5 -11.5l26 -5v-8h-195v8l26 5q12 2 19.5 11.5t7.5 21.5v599q0 12 -7.5 21.5t-19.5 11.5l-26 5v8h195v-8l-26 -5q-12 -2 -19.5 -11.5t-7.5 -21.5
v-188q35 -5 63 6.5t52 32t45 47.5t41.5 53t42.5 48t47.5 33.5t56 9t68.5 -25.5l-10 -14q-29 24 -52.5 24.5t-44.5 -14.5t-41.5 -42t-42.5 -58q-18 -25 -38 -49t-46.5 -41t-61 -24.5t-80.5 0.5v-60q64 12 117 3.5t96 -35.5t77.5 -71t62.5 -102q18 -38 32.5 -70t29 -52.5
t31 -27t38.5 5.5z" />
    <glyph glyph-name="l" unicode="l" horiz-adv-x="635" 
d="M627 13l-5 -9h-589v8l26 5q12 2 19.5 11.5t7.5 21.5v599q0 12 -7.5 21.5t-19.5 11.5l-26 5v8h195v-8l-26 -5q-12 -2 -19.5 -11.5t-7.5 -21.5v-599q17 -13 58.5 -20.5t94 -10t108.5 1t101 12.5q0 20 -2 40.5t-4 37.5l-6 38l12 5z" />
    <glyph glyph-name="m" unicode="m" horiz-adv-x="859" 
d="M799 681q-12 -2 -19.5 -11.5t-7.5 -21.5v-599q0 -12 7.5 -21.5t19.5 -11.5l26 -5v-8h-195v8l26 5q12 2 19.5 11.5t7.5 21.5v593l-270 -225l-282 221v-551q0 -28 18.5 -48.5t46.5 -23.5l21 -2v-8h-195v8l21 2q28 3 46.5 23.5t18.5 48.5v533q0 25 -16.5 43t-41.5 20l-29 3
v8h185l260 -203l245 203h113v-8l-26 -5h1z" />
    <glyph glyph-name="n" unicode="n" horiz-adv-x="715" 
d="M697 696v-8l-23 -3q-27 -3 -45.5 -23.5t-18.5 -48.5v-609h-27l-454 596v-514q0 -28 18.5 -48.5t45.5 -23.5l23 -3v-8h-195v8l23 3q27 3 45.5 23.5t18.5 48.5v523q0 23 -14 41.5t-37 24.5l-35 10v8h153l415 -545v463q0 28 -18.5 48.5t-45.5 23.5l-23 3v8z" />
    <glyph glyph-name="o" unicode="o" horiz-adv-x="804" 
d="M402 705q76 0 142.5 -28t116 -76.5t78.5 -113.5t29 -139t-29 -139t-78.5 -113.5t-116 -76.5t-142.5 -28t-142.5 28t-116 76.5t-78.5 113.5t-29 139t29 139t78.5 113.5t116 76.5t142.5 28zM402 11q57 0 106.5 26.5t87 72t59 107t21.5 131.5t-21.5 131t-59 107t-87 72.5
t-106.5 26.5t-106.5 -26.5t-87 -72.5t-59 -107t-21.5 -131t21.5 -131.5t59 -107t87 -72t106.5 -26.5z" />
    <glyph glyph-name="p" unicode="p" horiz-adv-x="544" 
d="M301 710q57 0 105 -14.5t78 -41t38.5 -63.5t-12.5 -83q-16 -35 -42 -52.5t-57 -22t-65 2t-66 19.5t-59 31t-45 36v-473q0 -12 7.5 -21.5t19.5 -11.5l26 -5v-8h-195v8l26 5q12 2 19.5 11.5t7.5 21.5v599q0 12 -7.5 21.5t-19.5 11.5l-26 5v8h26q43 0 75.5 2.5t59.5 5.5
t51.5 5.5t53.5 2.5h1zM439 556q5 33 -5 57.5t-30 40.5t-47.5 24.5t-58.5 11t-62 -0.5t-58 -10v-125q22 -37 62.5 -59t82.5 -24.5t75.5 18t40.5 68.5v-1z" />
    <glyph glyph-name="q" unicode="q" horiz-adv-x="902" 
d="M915 -16q-102 -75 -181.5 -100t-141.5 -16t-109.5 43.5t-85.5 79.5q-75 1 -141 29.5t-114.5 77t-77 113t-28.5 137.5q0 74 29 139t78.5 113.5t116 76.5t142.5 28t142.5 -28t116 -76.5t78.5 -113.5t29 -139q0 -64 -22 -121t-60 -103t-91 -78t-114 -45q37 -39 78.5 -68
t91.5 -35t111 17t136 88zM154 206q31 -81 91 -133t135 -60q-31 39 -58 78t-53.5 68t-54.5 43t-60 3v1zM148 225q50 19 91.5 5.5t79 -45.5t72.5 -76.5t72 -86.5q46 13 85 43t67.5 73.5t44.5 97.5t16 114q0 70 -21.5 131t-59 107t-87 72.5t-106.5 26.5t-106.5 -26.5t-87 -72.5
t-59 -107t-21.5 -131q0 -67 20 -127v2z" />
    <glyph glyph-name="r" unicode="r" horiz-adv-x="745" 
d="M706 152q15 -15 22.5 -41.5t-1 -52.5t-37 -45.5t-85.5 -19.5q-40 0 -71 10.5t-55 29.5t-43 46t-34 60q-20 44 -35 93t-37 93t-57.5 77.5t-95.5 47.5v-400q0 -12 7.5 -21.5t19.5 -11.5l26 -5v-8h-195v8l26 5q12 2 19.5 11.5t7.5 21.5v599q0 12 -7.5 21.5t-19.5 11.5l-26 5
v8h26q43 0 75.5 2.5t59.5 5.5t51.5 5.5t53.5 2.5q57 0 105 -14.5t78 -41t38.5 -63.5t-12.5 -83q-16 -35 -42 -52.5t-57 -22t-65 2t-66 19.5t-59 31t-45 36v-49q92 -30 148.5 -75t91 -95.5t55 -101.5t42 -91.5t51.5 -66t83 -25.5q23 0 39 12.5t22 30t1 36.5t-24 32l20 19z
M177 556q22 -37 62.5 -59t82.5 -24.5t75.5 18t40.5 68.5q5 33 -5 57.5t-30 40.5t-47.5 24.5t-58.5 11t-62 -0.5t-58 -10v-126z" />
    <glyph glyph-name="s" unicode="s" horiz-adv-x="610" 
d="M349 415q42 -15 81.5 -35.5t70.5 -48t50 -64.5t19 -85q0 -50 -20 -86.5t-53.5 -59t-76 -33.5t-88.5 -10.5t-91.5 11t-83.5 29.5q-19 -4 -33 -8.5t-23 -9.5q-11 -5 -18 -10h-15l-41 190l8 6q35 -49 82 -87t97 -62.5t98.5 -32t87 4t62 45.5t23.5 93q0 41 -16.5 70.5
t-44 51.5t-62.5 39t-71 32t-71 31t-62.5 36.5t-44 47.5t-16.5 65q0 52 18 86t47 54t66.5 27.5t76.5 5t77 -13.5t68 -26l130 45l7 -7l-113 -143h-12q-22 46 -53 75t-64 42.5t-65.5 12.5t-58 -15t-41.5 -39.5t-16 -60.5q0 -56 46.5 -92.5t138.5 -70.5z" />
    <glyph glyph-name="t" unicode="t" horiz-adv-x="779" 
d="M771 684l-73 -165l-9 3l-25 159h-229v-632q0 -12 7.5 -21.5t19.5 -11.5l26 -5v-8h-195v8l26 5q12 2 19.5 11.5t7.5 21.5v632h-229l-25 -159l-9 -3l-73 165l5 10h749z" />
    <glyph glyph-name="u" unicode="u" horiz-adv-x="766" 
d="M555 694h195v-8l-20 -2q-29 -3 -47.5 -24t-18.5 -50v-379v-3q0 -21 -3 -47t-12 -53t-26 -52.5t-46 -46t-71 -32.5t-100 -12q-101 0 -164.5 19.5t-99.5 53t-49 77.5t-13 93v420q0 12 -7.5 21.5t-19.5 11.5l-26 5v8h195v-8l-26 -5q-12 -2 -19.5 -11.5t-7.5 -21.5v-420
q0 -109 64 -162t176 -53q71 0 116.5 18.5t71.5 49t35.5 69t9.5 78.5v3v379q0 29 -18.5 50t-47.5 24l-20 2z" />
    <glyph glyph-name="v" unicode="v" horiz-adv-x="669" 
d="M616 647q26 -47 24 -112.5t-32 -132.5q-18 -39 -40.5 -74t-47.5 -70q-32 -46 -69 -106.5t-65 -147.5h-22l-290 631q-9 20 -26 33t-38 17l-8 1v8h195v-8l-11 -2q-17 -3 -24.5 -17.5t-0.5 -29.5l242 -528q24 51 49.5 89.5t48.5 70.5q24 35 46.5 69t39.5 72q28 63 30.5 123
t-21.5 102q-33 57 -110 66l3 22q89 -11 127 -78v2z" />
    <glyph glyph-name="w" unicode="w" horiz-adv-x="1056" 
d="M864 696h195v-8l-13 -1q-34 -4 -60.5 -24.5t-38.5 -52.5l-227 -604h-22l-169 368l-139 -368h-22l-290 631q-9 20 -26 33t-38 17l-8 1v8h195v-8l-11 -2q-17 -3 -24.5 -17.5t-0.5 -29.5l242 -527l109 288l-49 106l-3 3q-15 33 -22.5 71t-1 70.5t30.5 53.5t71 21
q43 0 59 -20.5t16 -50.5t-11 -64t-21 -61l-19 -51l169 -368l194 517q7 19 -4 36t-31 19l-34 4zM550 709q-28 0 -37 -17.5t-5 -46.5t17.5 -65.5t31.5 -74.5l14 38l3 9q10 25 17 52.5t7 50.5t-10.5 38.5t-36.5 15.5h-1z" />
    <glyph glyph-name="x" unicode="x" horiz-adv-x="757" 
d="M751 10v-8h-206v8l5 1q8 2 11.5 9.5t-1.5 14.5l-217 315l-194 -286q-11 -15 -3.5 -31.5t25.5 -18.5l28 -3v-8h-195v8l10 1q37 4 68.5 23t52.5 50l194 285l-189 274q-22 33 -62 38l-30 4v8h207v-8q-7 -2 -9.5 -8.5t2.5 -12.5l140 -207l130 190q8 11 2.5 22t-18.5 13l-25 3
v8h195v-8l-26 -2q-38 -4 -71.5 -23.5t-55.5 -51.5l-117 -170l261 -379q14 -20 37.5 -32t48.5 -16z" />
    <glyph glyph-name="y" unicode="y" horiz-adv-x="645" 
d="M647 694v-8l-33 -4q-23 -3 -41 -16.5t-28 -33.5l-266 -570q-14 -29 -34 -47t-51 -18q-33 0 -52.5 9t-30 22t-13.5 27t-2 24q2 22 16.5 37.5t36.5 14.5q20 -1 34.5 -15t15.5 -34q2 -41 -35 -49q6 -8 18 -10.5t25.5 2t26.5 16t23 31.5l112 239h-89l-180 319
q-12 22 -32.5 36t-45.5 18l-16 2v8h240v-8l-39 -4q-12 -2 -17.5 -12.5t0.5 -21.5l184 -326l149 319q6 14 -1.5 26t-21.5 14l-51 5v8h198z" />
    <glyph glyph-name="z" unicode="z" horiz-adv-x="754" 
d="M741 154l-86 -150h-642v8q30 5 55 22t40 43l346 594q-29 6 -66 8t-75 -0.5t-74.5 -10t-65.5 -19.5q-26 -19 -48.5 -38.5t-39.5 -35.5q-19 -19 -36 -37l-8 6l86 150h528v-8q-46 -5 -85 -29.5t-62 -64.5l-324 -557q36 -10 93.5 -14t119.5 -2.5t119 9t91 20.5
q26 19 49.5 38.5t40.5 36.5q20 19 36 37z" />
    <glyph glyph-name="braceleft" unicode="{" horiz-adv-x="228" 
d="M145 366q0 -25 -9.5 -44t-21.5 -32.5t-23.5 -21.5t-15.5 -10q4 -2 15.5 -10t23.5 -21.5t21.5 -32.5t9.5 -44v-221q0 -68 18.5 -94.5t58.5 -26.5v-16q-39 0 -59 11t-33 31q-25 41 -25 96v221q0 42 -19 72q-17 28 -41 28v16q24 0 41 28q19 30 19 72v221q0 55 25 96
q13 20 33 31t59 11v-16q-40 0 -58.5 -26.5t-18.5 -94.5v-221v-2z" />
    <glyph glyph-name="verticalbar" unicode="|" horiz-adv-x="157" 
d="M70 -201v927h16v-927h-16z" />
    <glyph glyph-name="braceright" unicode="}" horiz-adv-x="228" 
d="M140 298q17 -28 41 -28v-16q-24 0 -41 -28q-19 -30 -19 -72v-221q0 -55 -25 -96q-13 -20 -33 -31t-59 -11v16q40 0 58.5 26.5t18.5 94.5v221q0 25 9.5 44t21.5 32.5t23.5 21.5t15.5 10q-4 2 -15.5 10t-23.5 21.5t-21.5 32.5t-9.5 44v221q0 68 -18.5 94.5t-58.5 26.5v16
q39 0 59 -11t33 -31q25 -41 25 -96v-221q0 -42 19 -72v2z" />
    <glyph glyph-name="nonbreakingspace" unicode="&#xa0;" horiz-adv-x="390" 
 />
    <glyph glyph-name="section" unicode="&#xa7;" horiz-adv-x="441" 
d="M387 338q1 -32 -6.5 -57t-21 -43.5t-31.5 -30.5t-36 -18q21 -23 34.5 -47t13.5 -49q0 -51 -37.5 -75.5t-92.5 -24.5q-24 0 -46 5t-39 16t-27.5 28t-10.5 40q0 22 15.5 37.5t37.5 15.5t37.5 -15.5t15.5 -37.5q0 -20 -12.5 -34.5t-31.5 -17.5q16 -12 41 -17t48 -0.5t40 20
t17 43.5q0 24 -17.5 46.5t-43.5 44.5t-57 45t-58 48.5t-45.5 54t-19.5 62.5q-2 32 6 57t21.5 43.5t31.5 30.5t36 18q-21 23 -34.5 47t-13.5 49q0 51 37.5 75.5t92.5 24.5q24 0 46 -5t39 -16t27.5 -28t10.5 -40q0 -22 -15.5 -37.5t-37.5 -15.5t-37.5 15.5t-15.5 37.5
q0 20 12.5 34.5t31.5 17.5q-16 12 -41 17t-48 0.5t-40 -20t-17 -43.5q0 -24 17.5 -46.5t43.5 -44.5t57 -45t58 -48.5t45 -54t20 -62.5zM334 259q18 30 6.5 59.5t-39 59.5t-63.5 60.5t-68 62.5q-17 -2 -33 -12.5t-30 -33.5q-18 -30 -6.5 -59.5t39 -59.5t63.5 -61t68 -62
q17 2 33 12.5t30 33.5z" />
    <glyph glyph-name="copyright" unicode="&#xa9;" horiz-adv-x="832" 
d="M416 706q76 0 142.5 -28t116 -76.5t78.5 -113.5t29 -139t-29 -139t-78.5 -113.5t-116 -76.5t-142.5 -28t-142.5 28t-116 76.5t-78.5 113.5t-29 139t29 139t78.5 113.5t116 76.5t142.5 28zM415 12q57 0 106.5 26.5t87 72t59 107t21.5 131.5q0 59 -15.5 111.5t-42.5 95.5
l-64 -81h-7q-26 33 -63 52.5t-79 19.5q-34 0 -63.5 -15.5t-51.5 -42.5t-35 -63t-13 -77t13 -77t35 -63t51.5 -42.5t63.5 -15.5q41 0 75 16t59 44l14 -15q-29 -26 -67 -41t-81 -15q-45 0 -84.5 16.5t-69 45t-46.5 66.5t-17 82q0 43 17 81.5t46.5 67t69 45t84.5 16.5
q31 0 59 -8t53 -22l97 33q-38 57 -92.5 90t-118.5 33q-57 0 -106.5 -26.5t-87 -72.5t-59 -107t-21.5 -131t21.5 -131.5t59 -107t87 -72t106.5 -26.5h-1z" />
    <glyph glyph-name="guillemotleft" unicode="&#xab;" horiz-adv-x="368" 
d="M102 299q65 -23 97 -78.5t41 -149.5h-20q-3 50 -22 87.5t-46 64t-60 43t-64 24.5v18q31 8 64 24.5t60 43t46 64t22 87.5h20q-9 -94 -41 -149.5t-97 -78.5zM231 298q25 -17 40.5 -36t24.5 -45t13.5 -62t7.5 -86h-17q-8 85 -34.5 139t-78.5 80v20q52 26 78.5 80t34.5 139
h17q-3 -50 -8.5 -86.5t-15 -63.5t-24.5 -45.5t-38 -32.5v-1z" />
    <glyph glyph-name="softhyphen" unicode="&#xad;" horiz-adv-x="0" 
 />
    <glyph glyph-name="registered" unicode="&#xae;" horiz-adv-x="832" 
d="M416 706q76 0 142.5 -28t116 -76.5t78.5 -113.5t29 -139t-29 -139t-78.5 -113.5t-116 -76.5t-142.5 -28t-142.5 28t-116 76.5t-78.5 113.5t-29 139t29 139t78.5 113.5t116 76.5t142.5 28zM642 153q23 42 36 91t13 103q0 70 -21.5 131t-59 107t-87 72.5t-106.5 26.5
t-106.5 -26.5t-87 -72.5t-59 -107t-21.5 -131t21.5 -131.5t59 -107t87 -72t106.5 -26.5q68 0 125 36.5t95 98.5q-61 -2 -102.5 31t-70.5 93q-8 17 -15 33t-14.5 29t-16 21.5t-19.5 11.5q-21 0 -40 3v-194q0 -15 16 -19l15 -3v-5h-115v5l15 3q16 4 16 19v352q0 15 -16 19
l-15 3v5h59q23 0 58 5t69 3.5t60.5 -16.5t34.5 -55q6 -30 -3 -52t-27.5 -36.5t-43.5 -22.5t-52 -11q17 -7 31.5 -19.5t27.5 -34.5q14 -25 26 -52t28 -50t38.5 -39t58.5 -17zM360 378q20 -5 47 -3.5t51 13t38.5 35t8.5 61.5q-5 34 -23 47.5t-40.5 16t-45 -3.5t-36.5 -11v-156
v1z" />
    <glyph glyph-name="degree" unicode="&#xb0;" horiz-adv-x="331" 
d="M165 687q27 0 50 -10t40.5 -27.5t27.5 -40.5t10 -50t-10 -50t-27.5 -40.5t-40.5 -27.5t-50 -10t-50 10t-40.5 27.5t-27.5 40.5t-10 50t10 50t27.5 40.5t40.5 27.5t50 10zM165 448q23 0 43 9t35 24t24 35t9 43t-9 43t-24 35t-35 24t-43 9t-43 -9t-35 -24t-24 -35t-9 -43
t9 -43t24 -35t35 -24t43 -9z" />
    <glyph glyph-name="guillemotright" unicode="&#xbb;" horiz-adv-x="368" 
d="M147 527q3 -50 22 -87.5t46 -64t59.5 -43t64.5 -24.5v-18q-32 -8 -64.5 -24.5t-59.5 -43t-46 -64t-22 -87.5h-20q9 94 41 149.5t97 78.5q-65 23 -97 78.5t-41 149.5h20v0zM180 289q-52 -26 -78.5 -80t-34.5 -139h-17q3 50 7.5 86t13.5 62t24 45t41 36q-23 14 -38 32.5
t-24.5 45.5t-15 63.5t-8.5 86.5h17q8 -85 34.5 -139t78.5 -80v-20v1z" />
    <glyph glyph-name="afii10023" unicode="&#x401;" horiz-adv-x="687" 
d="M664 153l-86 -150h-544v8l26 5q12 2 19.5 11.5t7.5 21.5v599q0 12 -7.5 21.5t-19.5 11.5l-26 5v8h552l40 -157l-12 -5q-16 20 -35 40q-17 17 -38.5 37t-46.5 38q-34 17 -80 25t-92 7.5t-85.5 -9t-59.5 -23.5v-252q14 -2 38.5 -3.5t53.5 3.5q11 10 18.5 26t12.5 32
q6 18 10 38h10q5 -41 13 -74t17 -58.5t16.5 -42t10.5 -23.5l-10 -5q-27 30 -50 49.5t-37 29.5q-32 10 -60.5 8t-43.5 -6v-322q13 -10 37 -17t55 -10.5t66 -4t70 3t67.5 10t58.5 16.5q26 19 49.5 38.5t40.5 36.5q20 19 36 37zM242 753q-21 0 -36 15t-15 36t15 36t36 15
t36 -15t15 -36t-15 -36t-36 -15zM419 753q-21 0 -36 15t-15 36t15 36t36 15t36 -15t15 -36t-15 -36t-36 -15z" />
    <glyph glyph-name="afii10053" unicode="&#x404;" horiz-adv-x="686" 
d="M532 683q31 -13 55 -30.5t40 -36.5t24 -38.5t8 -36.5q0 -38 -26 -61t-68 -23q-24 0 -42.5 7t-32.5 18t-24 24.5t-16 26.5l11 8q10 -14 28.5 -23.5t38.5 -9.5q22 0 40 15.5t18 52.5q0 21 -9.5 36.5t-20.5 25.5q-13 11 -29 20q-59 29 -127 26q-32 0 -62.5 -8.5t-57.5 -24.5
q-35 -20 -62.5 -50.5t-47.5 -69t-31 -84t-11 -94.5q29 32 64.5 48.5t66.5 16.5q26 0 52 -7.5t51 -18.5t47.5 -23.5t41.5 -23.5q22 -12 43.5 -13.5t39.5 6t30 24t16 39.5h11q-8 -51 -39.5 -76.5t-77.5 -37.5q-27 -6 -54.5 -1t-55 16t-55.5 24.5t-56 23.5q-30 13 -64 12.5
t-61 -28.5q2 -68 25 -127t61.5 -103t88.5 -69t106 -25q69 0 127.5 27t100.5 75l24 -25q-51 -45 -114.5 -70t-136.5 -25q-77 0 -144.5 28t-118.5 76.5t-80.5 113.5t-29.5 139t28 139t77.5 113.5t115.5 76.5t143 28q70 0 131 -23z" />
    <glyph glyph-name="uni0406" unicode="&#x406;" horiz-adv-x="264" 
d="M203 681q-12 -2 -19.5 -11.5t-7.5 -21.5v-599q0 -12 7.5 -21.5t19.5 -11.5l26 -5v-8h-195v8l26 5q12 2 19.5 11.5t7.5 21.5v599q0 12 -7.5 21.5t-19.5 11.5l-26 5v8h195v-8zM131 759q-20 0 -34.5 14.5t-14.5 34.5t14.5 34.5t34.5 14.5t34.5 -14.5t14.5 -34.5t-14.5 -34.5
t-34.5 -14.5z" />
    <glyph glyph-name="afii10056" unicode="&#x407;" horiz-adv-x="263" 
d="M43 751q-21 0 -36 15t-15 36t15 36t36 15t36 -15t15 -36t-15 -36t-36 -15zM220 751q-21 0 -36 15t-15 36t15 36t36 15t36 -15t15 -36t-15 -36t-36 -15zM34 691h195v-8l-26 -5q-12 -2 -19.5 -11.5t-7.5 -21.5v-599q0 -12 7.5 -21.5t19.5 -11.5l26 -5v-8h-195v8l26 5
q12 2 19.5 11.5t7.5 21.5v599q0 12 -7.5 21.5t-19.5 11.5l-26 5v8z" />
    <glyph glyph-name="afii10058" unicode="&#x409;" horiz-adv-x="583" 
d="M176 301l2 -1q49 41 100 61.5t98 23.5t86 -11.5t63.5 -44t30.5 -74t-12 -101.5q-17 -52 -45 -83t-61.5 -48t-70 -22t-72 -4.5t-66.5 3.5t-53 3h-140v8l26 5q12 2 19.5 11.5t7.5 21.5v599q0 12 -7.5 21.5t-19.5 11.5l-26 5v8h26h427l40 -155l-12 -5q-18 28 -43.5 52.5
t-55.5 43.5t-62.5 30.5t-65.5 13.5t-61.5 -6.5t-51.5 -25.5zM463 216q2 47 -13 76t-40 42.5t-57 14t-64.5 -9t-61.5 -27.5t-48 -40v-242q42 -23 90 -22.5t89.5 23.5t70.5 69t32 116h2z" />
    <glyph glyph-name="afii10062" unicode="&#x40e;" horiz-adv-x="687" 
d="M491 695h195v-8l-15 -2q-32 -4 -55 -25.5t-28 -53.5q-14 -81 -39.5 -176t-63.5 -186q-18 -43 -41.5 -88t-52 -81.5t-62 -59.5t-70.5 -23q-54 0 -80.5 21.5t-30 48t12.5 48t46 21.5q22 0 37 -15t15 -36t-15 -36t-37 -15h-6q20 -14 57 -14q55 0 109 66q49 60 95 171
q6 14 12 29t11 30h-224l-166 315q-13 23 -35 38.5t-48 19.5l-12 2v8h240v-8l-22 -2q-19 -2 -27.5 -18.5t0.5 -33.5l158 -298h144q24 71 41.5 141t28.5 132q5 29 -11.5 51.5t-45.5 25.5l-17 2zM236 857q0 18 15 31t33 13q17 0 27 -11t12.5 -24.5t-3.5 -26.5t-21 -16
q-8 -2 -14 -6.5t-6 -12.5q0 -15 13.5 -25t33.5 -14.5t43.5 -4.5t43.5 5t33.5 14.5t13.5 24.5q0 8 -6.5 12.5t-14.5 6.5q-16 3 -22.5 16.5t-3 27.5t16 24t34.5 7q18 -3 26.5 -15t8.5 -30q0 -23 -9 -44t-25.5 -37t-41 -25.5t-55.5 -9.5t-55.5 10t-41.5 26.5t-26 38t-9 45.5z
" />
    <glyph glyph-name="afii10017" unicode="&#x410;" horiz-adv-x="868" 
d="M867 13v-8h-206v8l9 2q13 2 18.5 14t-1.5 23l-88 156h-379l-78 -138q-10 -17 -1.5 -34.5t28.5 -19.5l28 -3v-8h-195v8l21 2q31 3 57 20t42 44l276 485l-32 56q-15 26 -40.5 43t-56.5 20l-33 3v8h212v-8q-7 -2 -9.5 -8.5t0.5 -12.5l337 -597q13 -22 33.5 -36t45.5 -18z
M587 230l-176 312l-178 -312h354z" />
    <glyph glyph-name="afii10018" unicode="&#x411;" horiz-adv-x="599" 
d="M176 424l-1 -1q75 21 149.5 13.5t132 -39.5t89.5 -86.5t22 -127.5q-8 -56 -30 -94t-55 -60.5t-75 -32t-91 -9.5q-42 0 -71 2.5t-56 5.5t-57.5 5.5t-73.5 2.5h-26v8l26 5q12 2 19.5 11.5t7.5 21.5v599q0 12 -7.5 21.5t-19.5 11.5l-26 5v8h26h458l40 -155l-12 -5
q-26 33 -54 58.5t-66 54.5q-34 17 -69.5 24.5t-68.5 6.5t-62 -10t-49 -24v-220zM480 189q10 68 -15 118t-70.5 78.5t-104.5 33t-116 -18.5v-382q16 -4 43 -9t58.5 -5t64.5 7.5t61.5 27.5t50 56t29.5 93z" />
    <glyph glyph-name="afii10019" unicode="&#x412;" horiz-adv-x="606" 
d="M175 423q75 21 149.5 13.5t132 -39.5t89.5 -86.5t22 -127.5q-8 -56 -30 -94t-55 -60.5t-75 -32t-91 -9.5q-42 0 -71 2.5t-56 5.5t-57.5 5.5t-73.5 2.5h-26v8l26 5q12 2 19.5 11.5t7.5 21.5v599q0 12 -7.5 21.5t-19.5 11.5l-26 5v8h26q43 0 73 2.5t58 5.5t61 5.5t84 2.5
q86 0 125.5 -37t31.5 -98q-5 -32 -27 -58t-62 -42t-97 -18.5t-130 13.5v-46zM174 491q37 -10 79.5 -14.5t79 3t61 30t24.5 67.5q0 37 -14 59.5t-36 35t-49 16.5t-54 3t-51 -5.5t-39 -7.5zM480 189q10 68 -15 118t-70.5 78.5t-104.5 33t-116 -18.5v-382q16 -4 43 -9t58.5 -5
t64 7.5t61.5 27.5t50.5 56t29.5 93z" />
    <glyph glyph-name="afii10020" unicode="&#x413;" horiz-adv-x="639" 
d="M626 540l-12 -5q-8 10 -16.5 20t-18.5 20q-17 17 -38.5 37t-46.5 38q-34 17 -80.5 25t-92 7.5t-85 -9t-59.5 -23.5l-1 -600q0 -12 7.5 -21.5t19.5 -11.5l26 -5v-8h-195v8l26 5q12 2 19.5 11.5t7.5 21.5v599q0 12 -7.5 21.5t-19.5 11.5l-26 5v8h552z" />
    <glyph glyph-name="afii10021" unicode="&#x414;" horiz-adv-x="825" 
d="M66 25l298 539l-32 56q-15 26 -40.5 43t-56.5 20l-33 3v8h212v-8q-11 -3 -11 -15q1 -1 1 -2q0 -3 1 -4l338 -640h70l32 -157l-9 -5q-23 41 -44 67t-46 41t-57.5 21.5t-78.5 7.5h-402q-5 0 -9 0.5t-9 0.5q-36 0 -67 -10.5t-56 -29t-43.5 -44t-30.5 -54.5l-9 5l30 157h52z
M91 25h552l-266 517z" />
    <glyph glyph-name="afii10022" unicode="&#x415;" horiz-adv-x="687" 
d="M664 156l-86 -150h-544v8l26 5q12 2 19.5 11.5t7.5 21.5v599q0 12 -7.5 21.5t-19.5 11.5l-26 5v8h552l40 -157l-12 -5q-16 20 -35 40q-17 17 -38.5 37t-46.5 38q-34 17 -80 25t-92 7.5t-85.5 -9t-59.5 -23.5v-252q14 -2 38.5 -3.5t53.5 3.5q11 10 18.5 26t12.5 32
q6 18 10 38h10q5 -41 13 -74t17 -58.5t16.5 -42t10.5 -23.5l-10 -5q-27 30 -50 49.5t-37 29.5q-32 10 -60.5 8t-43.5 -6v-322q13 -10 37 -17t55 -10.5t66 -4t70 3t67.5 10t58.5 16.5q26 19 49.5 38.5t40.5 36.5q20 19 36 37z" />
    <glyph glyph-name="afii10024" unicode="&#x416;" horiz-adv-x="936" 
d="M372 11l26 5q12 2 19.5 11.5t7.5 21.5v430q-34 6 -66 5.5t-56.5 -16.5t-39.5 -50.5t-15 -96.5v-53q0 -90 -12.5 -145t-33 -85t-46.5 -40t-53 -10q-18 0 -32.5 8t-25 20t-17 26.5t-9.5 28.5l24 8q2 -11 4.5 -23.5t9 -23.5t17.5 -18.5t29 -7.5q20 0 38 8t31.5 35t21.5 79
t8 139q0 82 17.5 130t47.5 71.5t70 28t85 0.5v22q-29 -5 -52.5 -0.5t-43 17t-35.5 31t-29 41.5q-25 43 -52 60t-49.5 17.5t-38 -10.5t-18.5 -23q10 6 23 6q19 0 32 -13t13 -32t-13 -32t-32 -13q-18 0 -30 8.5t-18 21.5t-6 27.5t5 25.5q8 20 27.5 34.5t44.5 16.5
q9 1 23.5 -0.5t32.5 -9.5t37.5 -25t38.5 -47q33 -54 68 -73t75 -11v112q0 12 -7.5 21.5t-19.5 11.5l-26 5v8h195v-8l-26 -5q-12 -2 -19.5 -11.5t-7.5 -21.5v-112q40 -8 75 11t68 73q19 30 38.5 47t37.5 25t32.5 9.5t23.5 0.5q25 -2 44.5 -16.5t27.5 -34.5q5 -11 5 -25.5
t-6 -27.5t-18 -21.5t-30 -8.5q-19 0 -32 13t-13 32t13 32t32 13q12 0 23 -6q-3 12 -18.5 23t-38 10.5t-49.5 -17.5t-52 -60q-13 -23 -29 -41.5t-35.5 -31t-43.5 -17t-52 0.5v-22q45 4 85 -0.5t70 -28t47.5 -71.5t17.5 -130q0 -87 8 -139t21.5 -79t31.5 -35t38 -8
q18 0 29 7.5t17.5 18.5t9 23.5t4.5 23.5l24 -8q-3 -14 -9.5 -28.5t-17 -26.5t-25 -20t-32.5 -8q-27 0 -53 10t-46.5 40t-33 85t-12.5 145v53q0 62 -15 96.5t-40 50.5t-56.5 16.5t-65.5 -5.5v-430q0 -12 7.5 -21.5t19.5 -11.5l26 -5v-8h-195v8z" />
    <glyph glyph-name="afii10025" unicode="&#x417;" horiz-adv-x="585" 
d="M282 -8q-63 0 -111.5 18t-89.5 52l-56 -55l-9 3l35 178h13q26 -82 85 -129t131 -49q34 0 66.5 15.5t58 43t40.5 66.5t15 86q0 84 -35.5 133t-112.5 60q-6 1 -16 1.5t-21.5 1t-22.5 0.5h-17v17h17h22.5t21.5 0.5t16 1.5q62 9 91 44t29 95q0 35 -21 59.5t-53 36.5t-71.5 11
t-76 -15t-66 -42t-42.5 -71h-15q-6 30 -11.5 52.5t-10.5 40.5t-11 32.5t-13 28.5l12 5q13 -12 31 -24t32 -20q19 4 41 11.5t47.5 14.5t55.5 12t66 5q39 0 76 -6t65.5 -21.5t45.5 -42.5t17 -70q0 -114 -162 -146l1 3q36 -5 70.5 -18.5t62 -38t44.5 -60t17 -84.5
q0 -66 -30 -111t-73.5 -73t-92 -40t-85.5 -12z" />
    <glyph glyph-name="afii10026" unicode="&#x418;" 
d="M615 648q0 12 -7.5 21.5t-19.5 11.5l-26 5v8h195v-8l-26 -5q-12 -2 -19.5 -11.5t-7.5 -21.5v-599q0 -12 7.5 -21.5t19.5 -11.5l26 -5v-8h-195v8l26 5q12 2 19.5 11.5t7.5 21.5v565l-439 -561v-4q0 -12 7.5 -21.5t19.5 -11.5l26 -5v-8h-195v8l26 5q12 2 19.5 11.5
t7.5 21.5v599q0 12 -7.5 21.5t-19.5 11.5l-26 5v8h195v-8l-26 -5q-12 -2 -19.5 -11.5t-7.5 -21.5v-565l439 559v6z" />
    <glyph glyph-name="afii10027" unicode="&#x419;" 
d="M615 648q0 12 -7.5 21.5t-19.5 11.5l-26 5v8h195v-8l-26 -5q-12 -2 -19.5 -11.5t-7.5 -21.5v-599q0 -12 7.5 -21.5t19.5 -11.5l26 -5v-8h-195v8l26 5q12 2 19.5 11.5t7.5 21.5v568l-439 -564v-4q0 -12 7.5 -21.5t19.5 -11.5l26 -5v-8h-195v8l26 5q12 2 19.5 11.5
t7.5 21.5v599q0 12 -7.5 21.5t-19.5 11.5l-26 5v8h195v-8l-26 -5q-12 -2 -19.5 -11.5t-7.5 -21.5v-569l439 563v6zM275 864q0 18 15 31t33 13q17 0 27 -11t12.5 -24.5t-3.5 -26.5t-21 -16q-8 -2 -14 -6.5t-6 -12.5q0 -15 13.5 -25t33.5 -14.5t43.5 -4.5t43.5 5t33.5 15
t13.5 24q0 8 -6.5 12.5t-14.5 6.5q-16 3 -22.5 16.5t-3 27.5t16 24t34.5 7q18 -3 26.5 -15t8.5 -30q0 -23 -9 -44t-25.5 -37t-41 -25.5t-55.5 -9.5t-55.5 10t-41.5 26.5t-26 38t-9 45.5z" />
    <glyph glyph-name="afii10028" unicode="&#x41a;" horiz-adv-x="597" 
d="M581 71q-3 -14 -9.5 -28.5t-17 -26.5t-25 -20t-32.5 -8q-27 0 -53 10t-46.5 40t-33 85t-12.5 145v53q0 62 -15 96.5t-40 50.5t-56.5 16.5t-65.5 -5.5v-430q0 -12 7.5 -21.5t19.5 -11.5l26 -5v-8h-195v8l26 5q12 2 19.5 11.5t7.5 21.5v599q0 12 -7.5 21.5t-19.5 11.5
l-26 5v8h195v-8l-26 -5q-12 -2 -19.5 -11.5t-7.5 -21.5v-112q40 -8 75 11t68 73q17 27 35 43.5t34.5 25.5t30.5 11.5t24 2.5q2 0 4 -0.5t4 -0.5q25 -2 44.5 -16.5t27.5 -34.5q5 -11 5 -25.5t-6 -27.5t-18 -21.5t-30 -8.5q-19 0 -32 13t-13 32t13 32t32 13q12 0 23 -6
q-3 12 -18.5 23t-37.5 11q-23 0 -49.5 -17t-52.5 -61q-13 -23 -29 -41.5t-35.5 -31t-43.5 -17t-52 0.5v-22q45 4 85 -0.5t70 -28t47.5 -71.5t17.5 -130q0 -87 8 -139t21.5 -79t31.5 -35t38 -8q18 0 29 7.5t17.5 18.5t9 23.5t4.5 23.5z" />
    <glyph glyph-name="afii10029" unicode="&#x41b;" horiz-adv-x="918" 
d="M461 542q-69 -133 -121 -224.5t-89.5 -152t-63.5 -94.5t-43.5 -50t-28.5 -20t-19 -4q-20 -6 -38 -1t-30.5 17t-18 30.5t0.5 41.5q5 24 25 36t43 5q11 -2 20 -10t15 -18.5t8 -23t0 -24.5q-2 -7 -6 -13.5t-9 -12.5q5 0 15.5 7t28 27.5t43 58t62 97.5t84.5 146t109 204
l-32 56q-15 26 -40.5 43t-56.5 20l-33 3v8h212v-8q-7 -2 -9.5 -8.5t0.5 -12.5l337 -597q13 -22 33.5 -36t45.5 -18l12 -1v-8h-206v8l9 2q13 2 18.5 14t-1.5 23z" />
    <glyph glyph-name="afii10030" unicode="&#x41c;" horiz-adv-x="1131" 
d="M1048 79q11 -26 32.5 -43.5t49.5 -22.5v-8h-206v8l15 3q12 2 18 13t1 22l-212 543l-192 -224l-172 208l-246 -509q-8 -17 1 -34t28 -19l32 -4v-8h-195v8l9 1q37 4 66.5 25t45.5 54l243 504l-34 42q-33 39 -84 44l-51 5v8h187l206 -249l214 249h112v-8l-99 -10l-3 -4
l232 -595z" />
    <glyph glyph-name="afii10031" unicode="&#x41d;" 
d="M731 681q-12 -2 -19.5 -11.5t-7.5 -21.5v-599q0 -12 7.5 -21.5t19.5 -11.5l26 -5v-8h-195v8l26 5q12 2 19.5 11.5t7.5 21.5v373h-439v-373q0 -12 7.5 -21.5t19.5 -11.5l26 -5v-8h-195v8l26 5q12 2 19.5 11.5t7.5 21.5v599q0 12 -7.5 21.5t-19.5 11.5l-26 5v8h195v-8
l-26 -5q-12 -2 -19.5 -11.5t-7.5 -21.5v-205h439v205q0 12 -7.5 21.5t-19.5 11.5l-26 5v8h195v-8z" />
    <glyph glyph-name="afii10032" unicode="&#x41e;" horiz-adv-x="804" 
d="M402 705q76 0 142.5 -28t116 -76.5t78.5 -113.5t29 -139t-29 -139t-78.5 -113.5t-116 -76.5t-142.5 -28t-142.5 28t-116 76.5t-78.5 113.5t-29 139t29 139t78.5 113.5t116 76.5t142.5 28zM402 11q57 0 106.5 26.5t87 72t59 107t21.5 131.5t-21.5 131t-59 107t-87 72.5
t-106.5 26.5t-106.5 -26.5t-87 -72.5t-59 -107t-21.5 -131t21.5 -131.5t59 -107t87 -72t106.5 -26.5z" />
    <glyph glyph-name="afii10033" unicode="&#x41f;" 
d="M203 681q-12 -2 -19.5 -11.5t-7.5 -21.5v-602q0 -12 7.5 -21.5t19.5 -11.5l26 -5v-8h-195v8l26 5q12 2 19.5 11.5t7.5 21.5v602q0 12 -7.5 21.5t-19.5 11.5l-26 5v8h723v-8l-26 -5q-12 -2 -19.5 -11.5t-7.5 -21.5v-602q0 -12 7.5 -21.5t19.5 -11.5l26 -5v-8h-195v8l26 5
q12 2 19.5 11.5t7.5 21.5v602q0 12 -7.5 21.5t-19.5 11.5h-385z" />
    <glyph glyph-name="afii10034" unicode="&#x420;" horiz-adv-x="573" 
d="M360 710q99 0 150.5 -35t44.5 -104q-5 -46 -37.5 -78.5t-84 -46t-118 -4t-138.5 48.5v-442q0 -12 7.5 -21.5t19.5 -11.5l26 -5v-8h-195v8l26 5q12 2 19.5 11.5t7.5 21.5v599q0 12 -7.5 21.5t-19.5 11.5l-26 5v8h26q43 0 76.5 2.5t66 5.5t69 5.5t87.5 2.5zM463 578
q1 38 -15 60.5t-42 35t-59 16t-65 2t-60 -6t-45 -7.5v-164q14 -12 40.5 -24.5t57.5 -20t64 -8t60 11t44.5 36t19.5 68.5v1z" />
    <glyph glyph-name="afii10035" unicode="&#x421;" horiz-adv-x="768" 
d="M404 684q-57 0 -107.5 -26.5t-88 -72.5t-59.5 -107t-22 -131t22 -131.5t59.5 -107t88 -72t107.5 -26.5q69 0 127.5 27t100.5 75l24 -25q-50 -45 -114 -70t-137 -25q-77 0 -144 28t-117 76.5t-79 113.5t-29 139t29 139t79 113.5t117 76.5t144 28q53 0 101 -13.5t90 -37.5
l169 58l7 -7l-113 -143h-12q-45 57 -107.5 90t-134.5 33z" />
    <glyph glyph-name="afii10036" unicode="&#x422;" horiz-adv-x="632" 
d="M630 709l-53 -138l-10 1q-4 34 -28 60q-20 22 -62 37t-118 8v-629q0 -12 7.5 -21.5t19.5 -11.5l26 -5v-8h-195v8l26 5q12 2 19.5 11.5t7.5 21.5v629q-76 7 -118 -8t-62 -37q-24 -26 -28 -60l-10 -1l-53 138l9 3q6 -5 16 -9q8 -4 21.5 -6.5t33.5 -2.5h471q20 0 33.5 2.5
t21.5 6.5q10 4 16 9z" />
    <glyph glyph-name="afii10037" unicode="&#x423;" horiz-adv-x="687" 
d="M491 695h195v-8l-15 -2q-32 -4 -55 -25.5t-28 -53.5q-14 -81 -39.5 -176t-63.5 -186q-18 -43 -41.5 -88t-52 -81.5t-62 -59.5t-70.5 -23q-54 0 -80.5 21.5t-30 48t12.5 48t46 21.5q22 0 37 -15t15 -36t-15 -36t-37 -15h-6q20 -14 57 -14q55 0 109 66q49 60 95 171
q6 14 12 29t11 30h-224l-166 315q-13 23 -35 38.5t-48 19.5l-12 2v8h240v-8l-22 -2q-19 -2 -27.5 -18.5t0.5 -33.5l158 -298h144q24 71 41.5 141t28.5 132q5 29 -11.5 51.5t-45.5 25.5l-17 2z" />
    <glyph glyph-name="afii10038" unicode="&#x424;" horiz-adv-x="993" 
d="M868 370q0 70 -15 118t-40 77.5t-57.5 43t-69 15.5t-74 -5.5t-71.5 -19.5v-476q26 -8 60.5 -14t71 -4.5t71.5 14.5t62.5 42.5t44.5 80.5t17 128zM453 601q-34 11 -71.5 18.5t-74 5.5t-69.5 -15t-59 -42t-42 -77t-18 -118q-3 -81 15 -132.5t49 -81t70 -40t79 -9.5
q34 1 65.5 7t55.5 14v470zM452 101q-12 -2 -27 -3t-31.5 -2.5t-32.5 -2t-30 -0.5q-53 -1 -108 9t-99.5 40t-73 84.5t-28.5 142.5q0 75 22 126t57 82.5t80.5 46.5t93.5 20t94 3t83 -6q0 3 -0.5 9.5t-1.5 9.5q-7 18 -25 21l-26 5v8h195v-8l-26 -5q-12 -2 -19.5 -11.5
t-7.5 -21.5v-14q37 4 83.5 7t94 -1.5t92.5 -19.5t80 -46t55.5 -81.5t18.5 -125.5q-2 -74 -24.5 -124.5t-57.5 -82t-79.5 -47.5t-90.5 -22t-91 -4t-81 6v-47q0 -12 7.5 -21.5t19.5 -11.5l26 -5v-8h-197v12l26 5q12 2 19 11.5t8 21.5z" />
    <glyph glyph-name="afii10039" unicode="&#x425;" horiz-adv-x="757" 
d="M751 10v-8h-206v8l5 1q8 2 11.5 9.5t-1.5 14.5l-217 315l-194 -286q-11 -15 -3.5 -31.5t25.5 -18.5l28 -3v-8h-195v8l10 1q37 4 68.5 23t52.5 50l194 285l-189 274q-22 33 -62 38l-30 4v8h207v-8q-7 -2 -9.5 -8.5t2.5 -12.5l140 -207l130 190q8 11 2.5 22t-18.5 13l-25 3
v8h195v-8l-26 -2q-38 -4 -71.5 -23.5t-55.5 -51.5l-117 -170l261 -379q14 -20 37.5 -32t48.5 -16z" />
    <glyph glyph-name="afii10040" unicode="&#x426;" 
d="M725 20h49l32 -152l-9 -5q-23 41 -44 67t-46 41t-57.5 21.5t-78.5 7.5h-537v8l26 5q12 2 19.5 11.5t7.5 21.5v602q0 12 -7.5 21.5t-19.5 11.5l-26 5v8h195v-8l-26 -5q-12 -2 -19.5 -11.5t-7.5 -21.5v-596q0 -12 7.5 -21.5t19.5 -11.5h385q12 2 19.5 11.5t7.5 21.5v596
q0 12 -7.5 21.5t-19.5 11.5l-26 5v8h195v-8l-26 -5q-12 -2 -19.5 -11.5t-7.5 -21.5v-593q0 -12 4 -21.5t16 -11.5z" />
    <glyph glyph-name="afii10041" unicode="&#x427;" horiz-adv-x="771" 
d="M597 395v253q0 12 -7.5 21.5t-19.5 11.5l-26 5v8h195v-8l-26 -5q-12 -2 -19.5 -11.5t-7.5 -21.5v-602q0 -12 7.5 -21.5t19.5 -11.5l26 -5v-8h-195v8l26 5q12 2 19.5 11.5t7.5 21.5v315q-15 -15 -31 -27q-29 -20 -70.5 -32t-92.5 -12q-101 0 -164.5 19.5t-99.5 53
t-49 77.5t-13 93v115q0 12 -7.5 21.5t-19.5 11.5l-26 5v8h195v-8l-26 -5q-12 -2 -19.5 -11.5t-7.5 -21.5v-115q0 -109 64 -164t176 -55q63 0 108.5 18.5t71.5 48.5q3 4 6 7t5 7z" />
    <glyph glyph-name="afii10042" unicode="&#x428;" horiz-adv-x="1150" 
d="M1118 0h-1089v8l26 5q12 2 19.5 11.5t7.5 21.5v602q0 12 -7.5 21.5t-19.5 11.5l-26 5v8h195v-8l-26 -5q-12 -2 -19.5 -11.5t-7.5 -21.5v-596q0 -12 7.5 -21.5t19.5 -11.5h302q12 2 19.5 11.5t7.5 21.5v596q0 12 -7.5 21.5t-19.5 11.5l-26 5l4 8h195v-8l-26 -5
q-12 -2 -19.5 -11.5t-7.5 -21.5v-596q0 -12 7.5 -21.5t19.5 -11.5h302q12 2 19.5 11.5t7.5 21.5v596q0 12 -7.5 21.5t-19.5 11.5l-26 5v8h195v-8l-26 -5q-12 -2 -19.5 -11.5t-7.5 -21.5v-602q0 -12 7.5 -21.5t19.5 -11.5l26 -5v-8z" />
    <glyph glyph-name="afii10043" unicode="&#x429;" horiz-adv-x="1156" 
d="M29 0v8l26 5q12 2 19.5 11.5t7.5 21.5v602q0 12 -7.5 21.5t-19.5 11.5l-26 5v8h195v-8l-26 -5q-12 -2 -19.5 -11.5t-7.5 -21.5v-596q0 -12 7.5 -21.5t19.5 -11.5h302q12 2 19.5 11.5t7.5 21.5v596q0 12 -7.5 21.5t-19.5 11.5l-26 5l4 8h195v-8l-26 -5q-12 -2 -19.5 -11.5
t-7.5 -21.5v-596q0 -12 7.5 -21.5t19.5 -11.5h302q12 2 19.5 11.5t7.5 21.5v596q0 12 -7.5 21.5t-19.5 11.5l-26 5v8h195v-8l-26 -5q-12 -2 -19.5 -11.5t-7.5 -21.5v-593q0 -12 4 -21.5t16 -11.5l1 -2h67l32 -152l-9 -5q-23 41 -44 67t-46 41t-57.5 21.5t-78.5 7.5h-921z
" />
    <glyph glyph-name="afii10044" unicode="&#x42a;" horiz-adv-x="813" 
d="M694 189q10 68 -15 118t-70.5 78.5t-104.5 33t-116 -18.5v-382q16 -4 43 -9t58.5 -5t64.5 7.5t61.5 27.5t50 56t29.5 93zM443 694v-8l-26 -5q-12 -2 -19.5 -11.5t-7.5 -21.5v-224l-1 -1q75 21 149.5 13.5t132 -39.5t89.5 -86.5t22 -127.5q-8 -56 -30 -94t-55 -60.5
t-75 -32t-91 -9.5q-42 0 -71 2.5t-56 5.5t-57.5 5.5t-73.5 2.5h-26v8l26 5q12 2 19.5 11.5t7.5 21.5l-1 629q-76 7 -118 -8t-62 -37q-24 -26 -28 -60l-10 -1l-53 138l9 3q6 -5 16 -9q8 -4 21.5 -6.5t33.5 -2.5z" />
    <glyph glyph-name="afii10045" unicode="&#x42b;" horiz-adv-x="859" 
d="M174 644v-220l-1 -1q75 21 149.5 13.5t132 -39.5t89.5 -86.5t22 -127.5q-8 -56 -30 -94t-55 -60.5t-75 -32t-91 -9.5q-42 0 -71 2.5t-56 5.5t-57.5 5.5t-73.5 2.5h-26v8l26 5q12 2 19.5 11.5t7.5 21.5v599q0 12 -7.5 21.5t-19.5 11.5l-26 5v8h195v-8l-24 -5
q-12 -2 -19.5 -11.5t-7.5 -21.5zM478 189q10 68 -15 118t-70.5 78.5t-104.5 33t-116 -18.5v-382q16 -4 43 -9t58.5 -5t64.5 7.5t61.5 27.5t50 56t29.5 93zM781 678q-12 -2 -19.5 -11.5t-7.5 -21.5v-599q0 -12 7.5 -21.5t19.5 -11.5l26 -5v-8h-195v8l26 5q12 2 19.5 11.5
t7.5 21.5v599q0 12 -7.5 21.5t-19.5 11.5l-26 5v8h195v-8z" />
    <glyph glyph-name="afii10046" unicode="&#x42c;" horiz-adv-x="597" 
d="M174 644v-220l-1 -1q75 21 149.5 13.5t132 -39.5t89.5 -86.5t22 -127.5q-8 -56 -30 -94t-55 -60.5t-75 -32t-91 -9.5q-42 0 -71 2.5t-56 5.5t-57.5 5.5t-73.5 2.5h-26v8l26 5q12 2 19.5 11.5t7.5 21.5v599q0 12 -7.5 21.5t-19.5 11.5l-26 5v8h195v-8l-24 -5
q-12 -2 -19.5 -11.5t-7.5 -21.5zM478 189q10 68 -15 118t-70.5 78.5t-104.5 33t-116 -18.5v-382q16 -4 43 -9t58.5 -5t64.5 7.5t61.5 27.5t50 56t29.5 93z" />
    <glyph glyph-name="afii10047" unicode="&#x42d;" horiz-adv-x="686" 
d="M166 683q61 23 131 23q76 0 142.5 -28t116 -76.5t77.5 -113.5t28 -139t-29.5 -139t-80.5 -113.5t-119 -76.5t-144 -28q-73 0 -136.5 25t-114.5 70l24 25q42 -48 100.5 -75t127.5 -27q57 0 108 26.5t89.5 72t61 107t22.5 131.5q-26 27 -57.5 27t-59.5 -14
q-26 -11 -51 -25.5t-50.5 -26t-50.5 -18t-49 -1.5q-42 10 -71.5 33t-37.5 71l10 1q4 -22 15.5 -37t27.5 -22t36 -4.5t40 15.5q17 11 38 24.5t43.5 25t46 19.5t47.5 9q28 2 62 -13t60 -45q-2 47 -13.5 90t-31 80t-46.5 66t-60 49q-27 16 -57.5 24.5t-62.5 8.5q-68 3 -127 -26
q-17 -9 -30 -20q-11 -10 -20 -25.5t-9 -36.5q0 -37 18 -52.5t40 -15.5q20 0 38.5 9.5t28.5 23.5l11 -8q-6 -13 -16 -26.5t-24 -24.5t-32.5 -18t-42.5 -7q-42 0 -68 23t-26 61q0 17 8 36.5t24 38.5t39.5 36.5t55.5 30.5z" />
    <glyph glyph-name="afii10048" unicode="&#x42e;" horiz-adv-x="1037" 
d="M638 705q76 0 142.5 -28t116 -76.5t78.5 -113.5t29 -139t-29 -139t-78.5 -113.5t-116 -76.5t-142.5 -28t-142.5 28t-116 76.5t-78.5 113.5t-29 139q0 39 8 75l-104 -1v-373q0 -12 7.5 -21.5t19.5 -11.5l26 -5v-8h-195v8l26 5q12 2 19.5 11.5t7.5 21.5v599q0 12 -7.5 21.5
t-19.5 11.5l-26 5v8h195v-8l-26 -5q-12 -2 -19.5 -11.5t-7.5 -21.5v-205l109 1q7 22 16 43q29 65 78.5 113.5t116 76.5t142.5 28zM638 11q57 0 106.5 26.5t87 72t59 107t21.5 131.5t-21.5 131t-59 107t-87 72.5t-106.5 26.5t-106.5 -26.5t-87 -72.5t-59 -107t-21.5 -131
t21.5 -131.5t59 -107t87 -72t106.5 -26.5z" />
    <glyph glyph-name="afii10049" unicode="&#x42f;" horiz-adv-x="607" 
d="M317 375q-46 5 -91 19.5t-78.5 40.5t-50.5 63.5t-7 88.5q9 46 33 71.5t57.5 38t73 14t78.5 -2t74.5 -8t62.5 -4.5h100v-8l-26 -5q-12 -2 -19.5 -11.5t-7.5 -21.5v-599q0 -12 7.5 -21.5t19.5 -11.5l26 -5v-8h-195v8l26 5q12 2 19.5 11.5t7.5 21.5v331q-16 -2 -33 -3.5
t-34 -1.5q-19 -4 -34 -19.5t-28.5 -38t-26 -51t-24.5 -58.5q-29 -71 -56.5 -122t-66.5 -77q-23 -14 -50 -19t-63 0v12q35 -5 57 7t36 35q10 16 18 38t16.5 46.5t17.5 52t23 54.5q11 22 26.5 44.5t33.5 41.5t38 33t40 19zM428 667q-16 6 -39 13t-48.5 10.5t-51 1.5t-48 -13.5
t-38.5 -34.5t-22 -61q-6 -43 3.5 -75t29.5 -54.5t47.5 -36t57 -19t58 -4.5t51.5 7v266z" />
    <glyph glyph-name="afii10065" unicode="&#x430;" horiz-adv-x="715" 
d="M626 77q11 -26 33.5 -43.5t51.5 -22.5v-8h-206v8l15 3q12 2 18 13t1 22l-131 312h-159l-115 -282q-9 -22 3 -42t35 -23l23 -3v-8h-195v8l16 2q33 4 59.5 23.5t39.5 50.5l196 482q8 20 6 40t-12 36.5t-27 27.5t-38 13v8h195v-8l-58 -10l251 -598zM397 383l-72 171
l-69 -171h141z" />
    <glyph glyph-name="afii10066" unicode="&#x431;" horiz-adv-x="804" 
d="M65 206q-15 31 -23 74.5t-11 93.5t-0.5 101.5t7.5 99.5t13 87.5t17 64.5q37 107 122 157.5t233 36.5q42 -3 85.5 -9.5t81 -4.5t67 18.5t44.5 59.5l11 -1q-9 -29 -24.5 -55t-34.5 -46.5t-39.5 -34t-39.5 -17.5q-20 -5 -44.5 -7t-51 -1.5t-52.5 3t-50 5.5q-128 15 -197 -13
t-98 -106q-6 -15 -11.5 -44.5t-10 -67t-8 -79t-3.5 -80.5q4 12 8 23.5t9 22.5q21 48 55 88t77.5 69t95.5 45t109 16q76 0 142.5 -28t116 -76.5t78.5 -113.5t29 -139t-29 -139t-78.5 -113.5t-116 -76.5t-142.5 -28q-57 0 -109 16t-95.5 45t-77.5 69t-55 88v-3zM402 11
q57 0 106.5 26.5t87 72t59 107t21.5 131.5t-21.5 131t-59 107t-87 72.5t-106.5 26.5t-106.5 -26.5t-87 -72.5t-59 -107t-21.5 -131t21.5 -131.5t59 -107t87 -72t106.5 -26.5z" />
    <glyph glyph-name="afii10067" unicode="&#x432;" horiz-adv-x="589" 
d="M178 300q49 41 100 61.5t98 23.5t86 -11.5t63.5 -44t30.5 -74t-12 -101.5q-17 -52 -45 -83t-61.5 -48t-70 -22t-72 -4.5t-66.5 3.5t-53 3h-140v8l26 5q12 2 19.5 11.5t7.5 21.5v599q0 12 -7.5 21.5t-19.5 11.5l-26 5v8h76q67 0 128 7.5t129 5.5q34 -1 59 -14t39 -34.5
t15 -51.5t-12 -65q-14 -38 -50 -60t-79.5 -28t-88.5 5.5t-76 41.5v-200zM178 521q19 -22 50.5 -35t63.5 -11t59 22t38 65q11 49 -7.5 77.5t-52.5 40t-75.5 8.5t-75.5 -18v-149zM463 216q2 47 -13 76t-40 42.5t-57 14t-64.5 -9t-61.5 -27.5t-48 -40v-242q42 -23 90 -22.5
t89.5 23.5t70.5 69t32 116h2z" />
    <glyph glyph-name="afii10068" unicode="&#x433;" horiz-adv-x="639" 
d="M625 538l-12 -5q-16 20 -35 40q-17 17 -38.5 37t-46.5 38q-34 17 -80 25t-92 7.5t-85.5 -9t-59.5 -23.5v-599q0 -12 7.5 -21.5t19.5 -11.5l26 -5v-8h-195v8l26 5q12 2 19.5 11.5t7.5 21.5v599q0 12 -7.5 21.5t-19.5 11.5l-26 5v8h552z" />
    <glyph glyph-name="afii10069" unicode="&#x434;" horiz-adv-x="720" 
d="M103 0l-25 -159l-9 -3l-73 165l5 10h70l226 556q8 20 6 40t-12 36.5t-27 27.5t-38 13v8h195v-8l-58 -10l265 -663h89l7 -10l-73 -165l-9 3l-25 159h-514zM311 554l-218 -541h432z" />
    <glyph glyph-name="afii10070" unicode="&#x435;" horiz-adv-x="771" 
d="M737 139q-38 -35 -74 -62.5t-75.5 -46t-85 -28t-101.5 -9.5q-76 0 -142.5 28t-116 76.5t-78.5 113.5t-29 139t29 139t78.5 113.5t116 76.5t142.5 28q75 0 140 -27.5t108.5 -75.5t58.5 -112t-9 -137h-92h-480v-6q0 -70 21.5 -131.5t59 -107t87 -72t106.5 -26.5
q59 0 103.5 11t81 30.5t67.5 47.5t62 62zM403 685q-54 0 -102 -24t-84.5 -66t-59.5 -98.5t-27 -121.5h486q18 65 7 122t-42 99t-78 66t-101 24z" />
    <glyph glyph-name="afii10072" unicode="&#x436;" horiz-adv-x="1037" 
d="M419 3v8l26 5q12 2 19.5 11.5t7.5 21.5v322q-52 6 -88 -2.5t-61.5 -27.5t-42.5 -46.5t-31 -58.5t-27.5 -64.5t-30.5 -64.5q-18 -32 -40 -57.5t-47 -38t-52 -11t-55 23.5l11 10q22 -12 39 -5.5t32 27t29.5 52.5t32.5 70q28 58 59.5 102.5t70.5 72t88 36.5t114 -3v60
q-46 -8 -79 -0.5t-57.5 25t-43 41t-36.5 48.5q-22 31 -41 58t-38.5 42t-41.5 14.5t-51 -24.5l-10 14q38 23 68 25.5t54 -9t44 -33.5t39 -48.5l38 -53t41.5 -47.5t50 -32t62.5 -6v188q0 12 -7.5 21.5t-19.5 11.5l-26 5l2 8h195v-8l-26 -5q-12 -2 -19.5 -11.5t-7.5 -21.5v-188
q35 -5 62.5 6t50.5 32t42.5 47.5l39 53t40 48.5t45 33.5t54.5 9t68 -25.5l-10 -14q-29 24 -51.5 24.5t-42 -14.5t-38.5 -42t-41 -58q-18 -25 -37.5 -48.5t-44.5 -41t-58.5 -25t-79.5 0.5v-60q64 12 114.5 2.5t91 -37.5t73 -72.5t60.5 -102.5q18 -38 32.5 -70t29 -52.5
t31 -27t38.5 5.5l11 -10q-28 -22 -55 -23.5t-52 11t-47.5 38t-40.5 57.5q-17 31 -31 64.5t-28 65t-32 59t-43.5 46.5t-62 28t-88.5 3v-322q0 -12 7.5 -21.5t19.5 -11.5l26 -5v-8h-195h-2z" />
    <glyph glyph-name="afii10073" unicode="&#x437;" horiz-adv-x="573" 
d="M268 10q34 0 66.5 15.5t58 43t40.5 66.5t15 86q0 84 -35.5 133t-112.5 60q-6 1 -16 1.5t-21.5 1t-22.5 0.5h-17v17h17h22.5t21.5 0.5t16 1.5q62 9 91 44t29 95q0 35 -21 59.5t-53 36.5t-71.5 11t-76 -15t-66 -42t-42.5 -71h-15q-6 30 -11.5 52.5t-10.5 40.5t-11 32.5
t-13 28.5l12 5q13 -12 31 -24t32 -20q19 4 41 11.5t47.5 14.5t55.5 12t66 5q39 0 76 -6t65.5 -21.5t45.5 -42.5t17 -70q0 -114 -162 -146l1 3q36 -5 70.5 -18.5t62 -38t44.5 -60t17 -84.5q0 -66 -30 -111t-73.5 -73t-92 -40t-85.5 -12q-35 -4 -70 2t-64.5 18.5t-52 29.5
t-33.5 35q-21 37 -23.5 67.5t7 52t28 34t39 14.5t40.5 -7t32 -31q11 -20 5 -44.5t-30 -37.5q-23 -10 -49 -3t-38 31l-3 5q-2 -14 2.5 -31t16.5 -36q7 -14 23.5 -29t40.5 -27.5t56 -19.5t71 -5z" />
    <glyph glyph-name="afii10074" unicode="&#x438;" 
d="M615 648q0 12 -7.5 21.5t-19.5 11.5l-26 5v8h195v-8l-26 -5q-12 -2 -19.5 -11.5t-7.5 -21.5v-599q0 -12 7.5 -21.5t19.5 -11.5l26 -5v-8h-195v8l26 5q12 2 19.5 11.5t7.5 21.5v559l-439 -555v-4q0 -12 7.5 -21.5t19.5 -11.5l26 -5v-8h-195v8l26 5q12 2 19.5 11.5
t7.5 21.5v599q0 12 -7.5 21.5t-19.5 11.5l-26 5v8h195v-8l-26 -5q-12 -2 -19.5 -11.5t-7.5 -21.5v-561l439 555v6z" />
    <glyph glyph-name="afii10075" unicode="&#x439;" 
d="M615 648q0 12 -7.5 21.5t-19.5 11.5l-26 5v8h195v-8l-26 -5q-12 -2 -19.5 -11.5t-7.5 -21.5v-599q0 -12 7.5 -21.5t19.5 -11.5l26 -5v-8h-195v8l26 5q12 2 19.5 11.5t7.5 21.5v559l-439 -555v-4q0 -12 7.5 -21.5t19.5 -11.5l26 -5v-8h-195v8l26 5q12 2 19.5 11.5
t7.5 21.5v599q0 12 -7.5 21.5t-19.5 11.5l-26 5v8h195v-8l-26 -5q-12 -2 -19.5 -11.5t-7.5 -21.5v-561l439 555v6zM275 833q0 18 15 31t33 13q17 0 26.5 -11t11 -24.5t-5.5 -26.5t-22 -16q-8 -2 -14 -6.5t-6 -12.5q0 -15 14 -25t35 -14.5t46 -4.5t46 5t35 15t14 24
q0 8 -6.5 12.5t-14.5 6.5q-16 3 -23 16.5t-4.5 27.5t14.5 24t34 7q18 -3 26.5 -15t8.5 -30q0 -23 -9 -44t-25.5 -37t-41 -25.5t-55.5 -9.5t-55.5 10t-41.5 26.5t-26 38t-9 45.5z" />
    <glyph glyph-name="afii10076" unicode="&#x43a;" horiz-adv-x="676" 
d="M672 27q-28 -22 -54 -24t-49.5 11.5t-45 38.5t-39.5 57q-26 46 -48 96t-53.5 90t-79 62t-125.5 13v-322q0 -12 7.5 -21.5t19.5 -11.5l26 -5v-8h-195v8l26 5q12 2 19.5 11.5t7.5 21.5v599q0 12 -7.5 21.5t-19.5 11.5l-26 5v8h195v-8l-26 -5q-12 -2 -19.5 -11.5t-7.5 -21.5
v-188q35 -5 63 6.5t52 32t45 47.5t41.5 53t42.5 48t47.5 33.5t56 9t68.5 -25.5l-10 -14q-29 24 -52.5 24.5t-44.5 -14.5t-41.5 -42t-42.5 -58q-18 -25 -38 -49t-46.5 -41t-61 -24.5t-80.5 0.5v-60q64 12 117 3.5t96 -35.5t77.5 -71t62.5 -102q18 -38 32.5 -70t29 -52.5
t31 -27t38.5 5.5z" />
    <glyph glyph-name="afii10077" unicode="&#x43b;" horiz-adv-x="753" 
d="M88 27q5 0 15 6t25.5 25.5t36.5 55.5t48.5 95.5t62 147t75.5 208.5q8 20 5 42t-13 38.5t-27 27.5t-38 13v8h195v-8l-58 -10l251 -601l-2 -1q11 -26 33.5 -43.5t51.5 -22.5v-8h-206v8l15 3q12 2 18 13t1 22l-210 506q-43 -125 -78.5 -214.5t-64.5 -151t-52 -99
t-40.5 -57.5t-30 -26.5t-20.5 -6.5q-20 -6 -38.5 -1t-31 17.5t-18.5 31t0 41.5q5 24 25.5 38.5t43.5 7.5q11 -2 21.5 -10.5t16 -22.5t3.5 -32t-15 -40z" />
    <glyph glyph-name="afii10078" unicode="&#x43c;" horiz-adv-x="859" 
d="M799 681q-12 -2 -19.5 -11.5t-7.5 -21.5v-599q0 -12 7.5 -21.5t19.5 -11.5l26 -5v-8h-195v8l26 5q12 2 19.5 11.5t7.5 21.5v593l-270 -225l-282 221v-551q0 -28 18.5 -48.5t46.5 -23.5l21 -2v-8h-195v8l21 2q28 3 46.5 23.5t18.5 48.5v533q0 25 -16.5 43t-41.5 20l-29 3
v8h185l260 -203l245 203h113v-8l-26 -5h1z" />
    <glyph glyph-name="afii10079" unicode="&#x43d;" 
d="M729 681q-12 -2 -19.5 -11.5t-7.5 -21.5v-599q0 -12 7.5 -21.5t19.5 -11.5l26 -5v-8h-195v8l26 5q12 2 19.5 11.5t7.5 21.5v350q-33 -17 -93 -18.5t-157 24.5q-1 0 -8.5 2.5t-16.5 4.5t-16.5 4.5t-8.5 2.5q-49 13 -82.5 11t-55.5 -15v-366q0 -12 7.5 -21.5t19.5 -11.5
l26 -5v-8h-195v8l26 5q12 2 19.5 11.5t7.5 21.5v599q0 12 -7.5 21.5t-19.5 11.5l-26 5v8h195v-8l-26 -5q-12 -2 -19.5 -11.5t-7.5 -21.5v-207q31 19 79.5 22t122.5 -17q100 -26 155.5 -29t82.5 9v222q0 12 -7.5 21.5t-19.5 11.5l-26 5v8h195v-8l-26 -5h-2z" />
    <glyph glyph-name="afii10080" unicode="&#x43e;" horiz-adv-x="804" 
d="M402 705q76 0 142.5 -28t116 -76.5t78.5 -113.5t29 -139t-29 -139t-78.5 -113.5t-116 -76.5t-142.5 -28t-142.5 28t-116 76.5t-78.5 113.5t-29 139t29 139t78.5 113.5t116 76.5t142.5 28zM402 11q57 0 106.5 26.5t87 72t59 107t21.5 131.5t-21.5 131t-59 107t-87 72.5
t-106.5 26.5t-106.5 -26.5t-87 -72.5t-59 -107t-21.5 -131t21.5 -131.5t59 -107t87 -72t106.5 -26.5z" />
    <glyph glyph-name="afii10081" unicode="&#x43f;" horiz-adv-x="750" 
d="M195 681q-12 -2 -19.5 -11.5t-7.5 -21.5v-599q0 -12 7.5 -21.5t19.5 -11.5l26 -5v-8h-195v8l26 5q12 2 19.5 11.5t7.5 21.5v599q0 12 -7.5 21.5t-19.5 11.5l-26 5v8h689v-8l-26 -5h-2q-12 -2 -19.5 -11.5t-7.5 -21.5v-599q0 -12 7.5 -21.5t19.5 -11.5l26 -5v-8h-195v8
l26 5q12 2 19.5 11.5t7.5 21.5l2 599q0 12 -7.5 21.5t-19.5 11.5h-351z" />
    <glyph glyph-name="afii10082" unicode="&#x440;" horiz-adv-x="544" 
d="M301 710q57 0 105 -14.5t78 -41t38.5 -63.5t-12.5 -83q-16 -35 -42 -52.5t-57 -22t-65 2t-66 19.5t-59 31t-45 36v-473q0 -12 7.5 -21.5t19.5 -11.5l26 -5v-8h-195v8l26 5q12 2 19.5 11.5t7.5 21.5v599q0 12 -7.5 21.5t-19.5 11.5l-26 5v8h26q43 0 75.5 2.5t59.5 5.5
t51.5 5.5t53.5 2.5h1zM439 556q5 33 -5 57.5t-30 40.5t-47.5 24.5t-58.5 11t-62 -0.5t-58 -10v-125q22 -37 62.5 -59t82.5 -24.5t75.5 18t40.5 68.5v-1z" />
    <glyph glyph-name="afii10083" unicode="&#x441;" horiz-adv-x="701" 
d="M688 198q-21 -46 -52.5 -84t-71.5 -65.5t-87 -42.5t-98 -15q-71 0 -133 28.5t-108 77t-73 114t-27 140.5t27 140.5t73 114t108 77t133 28.5q23 0 44 -4t41 -12q7 -2 20 -6t27 -4t28 6.5t24 24.5l9 -3q-5 -23 -7.5 -51t-3.5 -53q-1 -29 -1 -59h-7q-30 65 -75 105t-105 40
q-58 0 -103.5 -27t-77 -73.5t-48 -108.5t-16.5 -133t22 -133t60 -108.5t88.5 -73.5t108.5 -27q42 0 81 15t72 41.5t59 63.5t43 82z" />
    <glyph glyph-name="afii10084" unicode="&#x442;" horiz-adv-x="779" 
d="M771 684l-73 -165l-9 3l-25 159h-229v-632q0 -12 7.5 -21.5t19.5 -11.5l26 -5v-8h-195v8l26 5q12 2 19.5 11.5t7.5 21.5v632h-229l-25 -159l-9 -3l-73 165l5 10h749z" />
    <glyph glyph-name="afii10085" unicode="&#x443;" horiz-adv-x="645" 
d="M647 694v-8l-33 -4q-23 -3 -41 -16.5t-28 -33.5l-266 -570q-14 -29 -34 -47t-51 -18q-33 0 -52.5 9t-30 22t-13.5 27t-2 24q2 22 16.5 37.5t36.5 14.5q20 -1 34.5 -15t15.5 -34q2 -41 -35 -49q6 -8 18 -10.5t25.5 2t26.5 16t23 31.5l112 239h-89l-180 319
q-12 22 -32.5 36t-45.5 18l-16 2v8h240v-8l-39 -4q-12 -2 -17.5 -12.5t0.5 -21.5l184 -326l149 319q6 14 -1.5 26t-21.5 14l-51 5v8h198z" />
    <glyph glyph-name="afii10086" unicode="&#x444;" horiz-adv-x="728" 
d="M417 80q42 0 76 25.5t57.5 67t34.5 94t8 106.5q-3 49 -16.5 94t-36.5 79.5t-55.5 55t-74.5 20.5v-542h6h1zM322 620q-42 0 -74.5 -21t-55 -56.5t-35.5 -81t-16 -94.5q-3 -54 8 -106t34 -92.5t57 -64.5t76 -23l6 -3v542zM416 66h-6v-17q0 -12 7.5 -21.5t19.5 -11.5l26 -5
v-8h-195v8l26 5q12 2 19.5 11.5t7.5 21.5l1 15l-6 -1q-70 0 -123 25.5t-88 68t-51 96.5t-13 111q3 52 23 101t56 86.5t86.5 60t115.5 22.5v7t-1 7q0 12 -7.5 21.5t-19.5 11.5l-26 5v8h195v-8l-26 -5q-21 -5 -26 -25q-1 -2 -1 -10v-10q65 0 115.5 -22.5t86 -60t55 -86.5
t22.5 -101q3 -57 -13 -111t-50.5 -96t-87 -67.5t-121.5 -25.5h-1z" />
    <glyph glyph-name="afii10087" unicode="&#x445;" horiz-adv-x="757" 
d="M751 10v-8h-206v8l5 1q8 2 11.5 9.5t-1.5 14.5l-217 315l-194 -286q-11 -15 -3.5 -31.5t25.5 -18.5l28 -3v-8h-195v8l10 1q37 4 68.5 23t52.5 50l194 285l-189 274q-22 33 -62 38l-30 4v8h207v-8q-7 -2 -9.5 -8.5t2.5 -12.5l140 -207l130 190q8 11 2.5 22t-18.5 13l-25 3
v8h195v-8l-26 -2q-38 -4 -71.5 -23.5t-55.5 -51.5l-117 -170l261 -379q14 -20 37.5 -32t48.5 -16z" />
    <glyph glyph-name="afii10088" unicode="&#x446;" 
d="M266 -109q44 51 106 59t132 -13q44 -14 76 -24t61 -10q16 0 32.5 5t31.5 16.5t26.5 30t16.5 45.5h-714v8l26 5q12 2 19.5 11.5t7.5 21.5v602q0 12 -7.5 21.5t-19.5 11.5l-26 5v8h195v-8l-26 -5q-12 -2 -19.5 -11.5t-7.5 -21.5v-596q0 -12 7.5 -21.5t19.5 -11.5h385
q12 2 19.5 11.5t7.5 21.5v596q0 12 -7.5 21.5t-19.5 11.5l-26 5v8h195v-8l-26 -5q-12 -2 -19.5 -11.5t-7.5 -21.5v-600q0 -12 9.5 -19t21.5 -9l26 -3v-2h7q-6 -50 -28.5 -87.5t-59.5 -59.5t-88 -25.5t-113 15.5q3 -2 -1 -1q-34 9 -66.5 24t-62.5 19t-57 -11.5t-50 -67.5
l-15 3q16 40 39 67z" />
    <glyph glyph-name="afii10089" unicode="&#x447;" horiz-adv-x="771" 
d="M597 395v253q0 12 -7.5 21.5t-19.5 11.5l-26 5v8h195v-8l-26 -5q-12 -2 -19.5 -11.5t-7.5 -21.5v-602q0 -12 7.5 -21.5t19.5 -11.5l26 -5v-8h-195v8l26 5q12 2 19.5 11.5t7.5 21.5v315q-15 -15 -31 -27q-29 -20 -70.5 -32t-92.5 -12q-101 0 -164.5 19.5t-99.5 53
t-49 77.5t-13 93v115q0 12 -7.5 21.5t-19.5 11.5l-26 5v8h195v-8l-26 -5q-12 -2 -19.5 -11.5t-7.5 -21.5v-115q0 -109 64 -164t176 -55q63 0 108.5 18.5t71.5 48.5q3 4 6 7t5 7z" />
    <glyph glyph-name="afii10090" unicode="&#x448;" horiz-adv-x="1150" 
d="M1118 0h-1089v8l26 5q12 2 19.5 11.5t7.5 21.5v602q0 12 -7.5 21.5t-19.5 11.5l-26 5v8h195v-8l-26 -5q-12 -2 -19.5 -11.5t-7.5 -21.5v-596q0 -12 7.5 -21.5t19.5 -11.5h302q12 2 19.5 11.5t7.5 21.5v596q0 12 -7.5 21.5t-19.5 11.5l-26 5l4 8h195v-8l-26 -5
q-12 -2 -19.5 -11.5t-7.5 -21.5v-596q0 -12 7.5 -21.5t19.5 -11.5h302q12 2 19.5 11.5t7.5 21.5v596q0 12 -7.5 21.5t-19.5 11.5l-26 5v8h195v-8l-26 -5q-12 -2 -19.5 -11.5t-7.5 -21.5v-602q0 -12 7.5 -21.5t19.5 -11.5l26 -5v-8z" />
    <glyph glyph-name="afii10091" unicode="&#x449;" horiz-adv-x="1150" 
d="M1132 14q-7 -54 -32.5 -95.5t-67.5 -65t-100 -27t-128 16.5q3 -2 -1 -1q-38 10 -75 26.5t-71.5 20.5t-65 -13t-56.5 -73l-17 3q17 43 44 73q50 56 120.5 64.5t149.5 -14.5q50 -15 87 -26t69 -11q18 0 37 6t36.5 18.5t30.5 33t19 50.5h-1082v8l26 5q12 2 19.5 11.5
t7.5 21.5v602q0 12 -7.5 21.5t-19.5 11.5l-26 5v8h195v-8l-26 -5q-12 -2 -19.5 -11.5t-7.5 -21.5v-596q0 -12 7.5 -21.5t19.5 -11.5h302q12 2 19.5 11.5t7.5 21.5v596q0 12 -7.5 21.5t-19.5 11.5l-26 5l4 8h195v-8l-26 -5q-12 -2 -19.5 -11.5t-7.5 -21.5v-596
q0 -12 7.5 -21.5t19.5 -11.5h302q12 2 19.5 11.5t7.5 21.5v596q0 12 -7.5 21.5t-19.5 11.5l-26 5v8h195v-8l-26 -5q-12 -2 -19.5 -11.5t-7.5 -21.5v-602q0 -12 9.5 -19t21.5 -9l26 -3v-2h7z" />
    <glyph glyph-name="afii10092" unicode="&#x44a;" horiz-adv-x="761" 
d="M647 251q2 55 -14 89t-42.5 50t-60 16t-67.5 -11.5t-64.5 -32t-50.5 -46.5v-273q43 -27 94 -28.5t95 24t75 78.5t34 134h1zM402 695v-8l-26 -5q-12 -2 -19.5 -11.5t-7.5 -21.5v-301q64 60 133 80.5t126 6.5q43 -11 71.5 -39t42.5 -65.5t14 -81.5t-13.5 -85.5t-40 -78
t-65.5 -58.5q-34 -20 -71.5 -26.5t-73 -6.5t-67 3t-53.5 3h-140v8l26 5q12 2 19.5 11.5t7.5 21.5v635h-149l-25 -159l-9 -3l-73 165l5 10z" />
    <glyph glyph-name="afii10093" unicode="&#x44b;" horiz-adv-x="815" 
d="M173 646v-298q64 60 133 80.5t126 6.5q43 -11 71.5 -39t42.5 -65.5t14 -81.5t-13.5 -85.5t-40 -78t-65.5 -58.5q-34 -20 -71.5 -26.5t-73 -6.5t-67 3t-53.5 3h-140v8l26 5q12 2 19.5 11.5t7.5 21.5v604q0 10 -7.5 19.5t-19.5 11.5l-26 5v8h190v-8l-26 -5
q-12 -2 -19.5 -11.5t-7.5 -21.5v-2zM471 251q2 55 -14 89t-42.5 50t-60 16t-67.5 -11.5t-64.5 -32t-50.5 -46.5v-273q43 -27 94 -28.5t95 24t75 78.5t34 134h1zM764 681q-12 -2 -19.5 -11.5t-7.5 -21.5v-602q0 -12 7.5 -21.5t19.5 -11.5l26 -5v-8h-195v8l26 5
q12 2 19.5 11.5t7.5 21.5v602q0 12 -7.5 21.5t-19.5 11.5l-26 5v8h195v-8z" />
    <glyph glyph-name="afii10094" unicode="&#x44c;" horiz-adv-x="585" 
d="M173 646v-298q64 60 133 80.5t126 6.5q43 -11 71.5 -39t42.5 -65.5t14 -81.5t-13.5 -85.5t-40 -78t-65.5 -58.5q-34 -20 -71.5 -26.5t-73 -6.5t-67 3t-53.5 3h-140v8l26 5q12 2 19.5 11.5t7.5 21.5v604q0 10 -7.5 19.5t-19.5 11.5l-26 5v8h190v-8l-26 -5
q-12 -2 -19.5 -11.5t-7.5 -21.5v-2zM471 251q2 55 -14 89t-42.5 50t-60 16t-67.5 -11.5t-64.5 -32t-50.5 -46.5v-273q43 -27 94 -28.5t95 24t75 78.5t34 134h1z" />
    <glyph glyph-name="afii10095" unicode="&#x44d;" horiz-adv-x="767" 
d="M369 -8q-56 0 -101.5 9.5t-85 28t-75.5 46t-74 62.5l22 24q31 -34 62 -62t67.5 -47.5t81 -30.5t103.5 -11q57 0 107.5 26.5t88 72t59.5 107t22 131.5v9q-27 22 -59 21t-61 -15q-28 -12 -56 -26.5t-55.5 -26.5t-54.5 -18.5t-54 -1.5q-46 10 -78.5 34t-40.5 74l11 1
q4 -23 16.5 -39t30.5 -23t39.5 -4.5t43.5 16.5q19 12 41.5 25.5t47 25.5t50.5 20.5t52 9.5q29 1 63 -12.5t63 -40.5q-5 64 -28 120.5t-60.5 98t-85.5 65.5t-102 24q-36 0 -76 -13t-78 -34t-71.5 -48t-55.5 -55l-9 4l48 180h10q5 -24 13.5 -39.5t26.5 -26.5q42 25 90.5 38.5
t102.5 13.5q76 0 143.5 -28t117.5 -76.5t79 -113.5t29 -139t-29 -139t-79 -113.5t-117.5 -76.5t-143.5 -28z" />
    <glyph glyph-name="afii10096" unicode="&#x44e;" horiz-adv-x="1037" 
d="M638 705q76 0 142.5 -28t116 -76.5t78.5 -113.5t29 -139t-29 -139t-78.5 -113.5t-116 -76.5t-142.5 -28t-142.5 28t-116 76.5t-78.5 113.5t-29 139q0 39 8 75l-104 -1v-373q0 -12 7.5 -21.5t19.5 -11.5l26 -5v-8h-195v8l26 5q12 2 19.5 11.5t7.5 21.5v599q0 12 -7.5 21.5
t-19.5 11.5l-26 5v8h195v-8l-26 -5q-12 -2 -19.5 -11.5t-7.5 -21.5v-205l109 1q7 22 16 43q29 65 78.5 113.5t116 76.5t142.5 28zM638 11q57 0 106.5 26.5t87 72t59 107t21.5 131.5t-21.5 131t-59 107t-87 72.5t-106.5 26.5t-106.5 -26.5t-87 -72.5t-59 -107t-21.5 -131
t21.5 -131.5t59 -107t87 -72t106.5 -26.5z" />
    <glyph glyph-name="afii10097" unicode="&#x44f;" horiz-adv-x="655" 
d="M254 145q-15 -36 -29.5 -64t-32 -47.5t-39.5 -30t-51 -10.5q-42 0 -62.5 21t-26.5 49.5t-1 57.5t16 45l1 -4l15 -11q-14 -23 -17.5 -44.5t1 -39.5t15.5 -30.5t28 -15.5q27 -5 52.5 36t45.5 109q15 46 36 90.5t55.5 84.5t86.5 74t130 59v49q-18 -18 -45.5 -36t-59 -31
t-65.5 -19.5t-65 -2t-57 22t-42 52.5q-21 46 -12.5 83t38.5 63.5t78 41t105 14.5q28 0 53 -2.5t52 -5.5t59 -5.5t76 -2.5h26v-8l-26 -5q-12 -2 -19.5 -11.5t-7.5 -21.5v-599q0 -12 7.5 -21.5t19.5 -11.5l26 -5v-8h-195v8l26 5q12 2 19.5 11.5t7.5 21.5v400q-60 -14 -96 -46
t-58 -74t-36 -90t-32 -95zM476 682q-27 7 -58 10t-61.5 0.5t-58.5 -11t-48 -24.5t-30 -40t-5 -58q7 -48 40.5 -68.5t75.5 -18t82.5 24.5t62.5 59v126z" />
    <glyph glyph-name="afii10071" unicode="&#x451;" horiz-adv-x="771" 
d="M737 139q-38 -35 -74 -62.5t-75.5 -46t-85 -28t-101.5 -9.5q-76 0 -142.5 28t-116 76.5t-78.5 113.5t-29 139t29 139t78.5 113.5t116 76.5t142.5 28q75 0 140 -27.5t108.5 -75.5t58.5 -112t-9 -137h-92h-480v-6q0 -70 21.5 -131.5t59 -107t87 -72t106.5 -26.5
q59 0 103.5 11t81 30.5t67.5 47.5t62 62zM403 685q-54 0 -102 -24t-84.5 -66t-59.5 -98.5t-27 -121.5h486q18 65 7 122t-42 99t-78 66t-101 24zM318 753q-21 0 -36 15t-15 36t15 36t36 15t36 -15t15 -36t-15 -36t-36 -15zM495 753q-21 0 -36 15t-15 36t15 36t36 15t36 -15
t15 -36t-15 -36t-36 -15z" />
    <glyph glyph-name="afii10101" unicode="&#x454;" horiz-adv-x="767" 
d="M402 -9q-77 0 -144 28t-117 76.5t-79 113.5t-29 139t29 139t79 113.5t117 76.5t144 28q54 0 102.5 -13.5t90.5 -38.5q18 11 26.5 26.5t13.5 39.5h10l48 -180l-9 -4q-22 28 -55.5 55t-71.5 48t-78 34t-76 13q-54 0 -102 -24t-85.5 -65.5t-61 -98t-27.5 -120.5
q29 27 63 40.5t63 12.5q26 -1 52 -9.5t50.5 -20.5t47 -25.5t41.5 -25.5q22 -14 43.5 -16.5t39.5 4.5t30.5 23t16.5 39l11 -1q-8 -50 -40.5 -74t-78.5 -34q-27 -5 -54 1.5t-54.5 18.5t-55.5 26.5t-56 26.5q-29 14 -61 15t-59 -21v-9q0 -70 22 -131.5t59.5 -107t88 -72
t107.5 -26.5q59 0 103.5 11t81 30.5t67.5 47.5t62 62l22 -24q-38 -35 -74 -62.5t-75.5 -46t-85 -28t-101.5 -9.5z" />
    <glyph glyph-name="afii10103" unicode="&#x456;" horiz-adv-x="262" 
d="M132 759q-20 0 -34.5 14.5t-14.5 34.5t14.5 34.5t34.5 14.5t34.5 -14.5t14.5 -34.5t-14.5 -34.5t-34.5 -14.5zM230 11v-8h-195v8l26 5q12 2 19.5 11.5t7.5 21.5v599q0 12 -7.5 21.5t-19.5 11.5l-26 5v8h142v-645q0 -12 7.5 -21.5t19.5 -11.5z" />
    <glyph glyph-name="afii10104" unicode="&#x457;" horiz-adv-x="262" 
d="M43 751q-21 0 -36 15t-15 36t15 36t36 15t36 -15t15 -36t-15 -36t-36 -15zM220 751q-21 0 -36 15t-15 36t15 36t36 15t36 -15t15 -36t-15 -36t-36 -15zM176 46q0 -12 7.5 -21.5t19.5 -11.5l26 -5v-8h-195v8l26 5q12 2 19.5 11.5t7.5 21.5v599q0 12 -7.5 21.5t-19.5 11.5
l-26 5v8h142v-645z" />
    <glyph glyph-name="afii10110" unicode="&#x45e;" horiz-adv-x="645" 
d="M647 694v-8l-33 -4q-23 -3 -41 -16.5t-28 -33.5l-266 -570q-14 -29 -34 -47t-51 -18q-33 0 -52.5 9t-30 22t-13.5 27t-2 24q2 22 16.5 37.5t36.5 14.5q20 -1 34.5 -15t15.5 -34q2 -41 -35 -49q6 -8 18 -10.5t25.5 2t26.5 16t23 31.5l112 239h-89l-180 319
q-12 22 -32.5 36t-45.5 18l-16 2v8h240v-8l-39 -4q-12 -2 -17.5 -12.5t0.5 -21.5l184 -326l149 319q6 14 -1.5 26t-21.5 14l-51 5v8h198zM210 863q0 18 15 31t33 13q17 0 27 -11t12.5 -24.5t-3.5 -26.5t-21 -16q-8 -2 -14 -6.5t-6 -12.5q0 -15 13.5 -25t33.5 -14.5
t43.5 -4.5t43.5 5t33.5 14.5t13.5 24.5q0 8 -6.5 12.5t-14.5 6.5q-16 3 -22.5 16.5t-3 27.5t16 24t34.5 7q18 -3 26.5 -15t8.5 -30q0 -23 -9 -44t-25.5 -37t-41 -25.5t-55.5 -9.5t-55.5 10t-41.5 26.5t-26 38t-9 45.5z" />
    <glyph glyph-name="afii10146" unicode="&#x462;" horiz-adv-x="783" 
d="M614 619l-53 -138l-10 1q-4 34 -28 60q-20 22 -62 37q-37 13 -101 9v-164l-1 -1q75 21 149.5 13.5t132 -39.5t89.5 -86.5t22 -127.5q-8 -56 -30 -94t-55 -60.5t-75 -32t-91 -9.5q-42 0 -71 2.5t-56 5.5t-57.5 5.5t-73.5 2.5h-26v8l26 5q12 2 19.5 11.5t7.5 21.5v539
q-61 4 -96 -9q-42 -15 -62 -37q-24 -26 -28 -60l-10 -1l-53 138l9 3q6 -5 16 -9q8 -4 21.5 -6.5t33.5 -2.5h169v44q0 12 -7.5 21.5t-19.5 11.5l-26 5v8h195v-8l-24 -5q-12 -2 -19.5 -11.5t-7.5 -21.5l-1 -4v-40h174q20 0 33.5 2.5t21.5 6.5q10 4 16 9zM664 189
q10 68 -15 118t-70.5 78.5t-104.5 33t-116 -18.5v-382q16 -4 43 -9t58.5 -5t64.5 7.5t61.5 27.5t50 56t29.5 93z" />
    <glyph glyph-name="afii10194" unicode="&#x463;" horiz-adv-x="1011" 
d="M515 648q0 12 -7.5 21.5t-19.5 11.5h-280q-12 -2 -19.5 -11.5t-7.5 -21.5v-602q0 -12 7.5 -21.5t19.5 -11.5l26 -5v-8h-195v8l26 5q12 2 19.5 11.5t7.5 21.5v602q0 12 -7.5 21.5t-19.5 11.5l-26 5v8h613v-8l-26 -5q-12 -2 -19.5 -11.5t-7.5 -21.5v-2v-298q64 60 133 80.5
t126 6.5q43 -10 71.5 -38.5t42.5 -66t14 -81.5t-13.5 -85.5t-40 -78t-65.5 -58.5q-34 -20 -71.5 -26.5t-73 -6.5t-67 3t-53.5 3h-140v8l26 5q12 2 19.5 11.5t7.5 21.5v604v-2zM897 251q2 55 -14 89t-42.5 50t-60 16t-67.5 -11.5t-64.5 -32t-50.5 -46.5v-273q43 -27 94 -28.5
t95 24t75 78.5t34 134h1z" />
    <glyph glyph-name="afii10147" unicode="&#x472;" horiz-adv-x="804" 
d="M402 705q76 0 142.5 -28t116 -76.5t78.5 -113.5t29 -139t-29 -139t-78.5 -113.5t-116 -76.5t-142.5 -28t-142.5 28t-116 76.5t-78.5 113.5t-29 139t29 139t78.5 113.5t116 76.5t142.5 28zM402 11q56 0 106 26t87 71.5t59 106.5t22 131q-28 -21 -60.5 -28.5t-68 -6.5
t-73 7t-74.5 14q-36 7 -71 13.5t-69.5 7.5t-67.5 -4.5t-64 -22.5q3 -67 25.5 -124.5t59 -100t85.5 -66.5t104 -24zM402 685q-57 0 -106.5 -27.5t-87 -74t-59 -108.5t-21.5 -132q36 24 72.5 37t73 17.5t72 2t70.5 -8.5q37 -7 73 -16.5t69 -15.5t62.5 -6t55.5 11
q-3 67 -25.5 125.5t-59.5 102t-85.5 68.5t-103.5 25z" />
    <glyph glyph-name="afii10195" unicode="&#x473;" horiz-adv-x="804" 
d="M402 705q76 0 142.5 -28t116 -76.5t78.5 -113.5t29 -139t-29 -139t-78.5 -113.5t-116 -76.5t-142.5 -28t-142.5 28t-116 76.5t-78.5 113.5t-29 139t29 139t78.5 113.5t116 76.5t142.5 28zM402 11q56 0 106 26t87 71.5t59 106.5t22 131q-28 -21 -60.5 -28.5t-68 -6.5
t-73 7t-74.5 14q-36 7 -71 13.5t-69.5 7.5t-67.5 -4.5t-64 -22.5q3 -67 25.5 -124.5t59 -100t85.5 -66.5t104 -24zM402 685q-57 0 -106.5 -27.5t-87 -74t-59 -108.5t-21.5 -132q36 24 72.5 37t73 17.5t72 2t70.5 -8.5q37 -7 73 -16.5t69 -15.5t62.5 -6t55.5 11
q-3 67 -25.5 125.5t-59.5 102t-85.5 68.5t-103.5 25z" />
    <glyph glyph-name="afii10050" unicode="&#x490;" horiz-adv-x="639" 
d="M498 695q25 18 46.5 38.5t38.5 37.5q10 10 18.5 20t16.5 20l12 -5l-40 -175q-19 14 -53 23.5t-75.5 15t-86 7t-84 -1t-70.5 -9t-44 -16.5l-1 -600q0 -12 7.5 -21.5t19.5 -11.5l26 -5v-8h-195v8l26 5q12 2 19.5 11.5t7.5 21.5v599q0 12 -7.5 21.5t-19.5 11.5l-26 5v8h464z
" />
    <glyph glyph-name="afii10098" unicode="&#x491;" horiz-adv-x="639" 
d="M498 695q25 18 46.5 38.5t38.5 37.5q10 10 18.5 20t16.5 20l12 -5l-40 -175q-19 14 -53 23.5t-75.5 15t-86 7t-84 -1t-70.5 -9t-44 -16.5l-1 -600q0 -12 7.5 -21.5t19.5 -11.5l26 -5v-8h-195v8l26 5q12 2 19.5 11.5t7.5 21.5v599q0 12 -7.5 21.5t-19.5 11.5l-26 5v8h464z
" />
    <glyph glyph-name="endash" unicode="&#x2013;" horiz-adv-x="472" 
d="M10 223v16h452v-16h-452z" />
    <glyph glyph-name="emdash" unicode="&#x2014;" horiz-adv-x="589" 
d="M10 223v16h568v-16h-568z" />
    <glyph glyph-name="quoteleft" unicode="&#x2018;" horiz-adv-x="209" 
d="M124 517q21 0 36 -15t15 -37q0 -21 -15 -36t-36 -15h-6q-18 0 -34.5 15t-27.5 39t-13.5 55t6.5 63.5t32.5 63.5t65.5 56l10 -16q-38 -23 -57.5 -49.5t-26 -52.5t-3 -49.5t12.5 -39.5q15 18 38 18h3z" />
    <glyph glyph-name="quoteright" unicode="&#x2019;" horiz-adv-x="209" 
d="M89 706q18 0 34.5 -15t27.5 -39t13.5 -55t-6.5 -63.5t-32.5 -64t-65.5 -55.5l-10 16q37 22 57 49t26.5 53t3 49.5t-12.5 39.5q-15 -18 -38 -18q-21 0 -36 15t-15 36t15 36t36 15h6z" />
    <glyph glyph-name="quotedblleft" unicode="&#x201c;" horiz-adv-x="350" 
d="M124 517q22 0 37 -15t15 -37q0 -21 -15 -36t-37 -15h-6q-18 0 -34.5 15t-27.5 39t-13.5 55t6.5 63.5t32.5 63.5t65.5 56l10 -16q-38 -23 -57.5 -49.5t-26 -52.5t-3 -49.5t12.5 -39.5q15 18 38 18h3zM268 517q22 0 37 -15t15 -37q0 -21 -15 -36t-37 -15h-6q-18 0 -34.5 15
t-27.5 39t-13.5 55t6.5 63.5t32.5 63.5t65.5 56l10 -16q-38 -23 -57.5 -49.5t-26 -52.5t-3 -49.5t12.5 -39.5q15 18 38 18h3z" />
    <glyph glyph-name="quotedblright" unicode="&#x201d;" horiz-adv-x="350" 
d="M230 706q18 0 34.5 -15t27.5 -39t13.5 -55t-6.5 -63.5t-32.5 -64t-65.5 -55.5l-10 16q37 22 57 49t26.5 53t3 49.5t-12.5 39.5q-15 -18 -38 -18q-21 0 -36 15t-15 36t15 36t36 15h6zM86 707q18 0 34.5 -15t27.5 -39t13.5 -55t-6.5 -63.5t-32.5 -64t-65.5 -55.5l-10 16
q37 22 57 49t26.5 53t3 49.5t-12.5 39.5q-15 -18 -38 -18q-21 0 -36 15t-15 36t15 36t36 15h6z" />
    <glyph glyph-name="bullet" unicode="&#x2022;" horiz-adv-x="303" 
d="M151 140q-24 0 -45 9t-37 25t-25 37t-9 45t9 45t25 37t37 25t45 9t45 -9t37 -25t25 -37t9 -45t-9 -45t-25 -37t-37 -25t-45 -9z" />
    <glyph glyph-name="ellipsis" unicode="&#x2026;" horiz-adv-x="499" 
d="M422 -7q-21 0 -36 15t-15 36t15 36t36 15t36 -15t15 -36t-15 -36t-36 -15zM249 -7q-21 0 -36 15t-15 36t15 36t36 15t36 -15t15 -36t-15 -36t-36 -15zM76 -7q-21 0 -36 15t-15 36t15 36t36 15t36 -15t15 -36t-15 -36t-36 -15z" />
    <glyph glyph-name="Euro" unicode="&#x20ac;" horiz-adv-x="944" 
d="M927 713l7 -7l-113 -143h-12q-45 57 -107.5 90t-134.5 33q-49 0 -93.5 -20t-80 -55t-60.5 -83t-35 -104h305v-16h-308q-2 -14 -3 -29t-1 -30t1 -30t3 -29h308v-16h-305q10 -56 35 -104t60.5 -83t80 -55t93.5 -20q69 0 127.5 27t100.5 75l24 -25q-50 -45 -114 -70
t-137 -25q-66 0 -126 21t-107.5 58.5t-81 89t-46.5 111.5h-171v16h168q-2 15 -3.5 30t-1.5 30t1.5 30t3.5 30h-168v16h171q13 60 46.5 111t81 88.5t107.5 59t126 21.5q53 0 101 -13.5t90 -37.5z" />
    <glyph glyph-name="afii61352" unicode="&#x2116;" horiz-adv-x="715" 
d="M697 697v-8l-23 -3q-27 -3 -45.5 -23.5t-18.5 -48.5v-609h-27l-454 596v-514q0 -28 18.5 -48.5t45.5 -23.5l23 -3v-8h-195v8l23 3q27 3 45.5 23.5t18.5 48.5v523q0 23 -14 41.5t-37 24.5l-35 10v8h153l415 -545v463q0 28 -18.5 48.5t-45.5 23.5l-23 3v8z" />
    <glyph glyph-name="O.alt1" unicode="&#xf000;" horiz-adv-x="708" 
d="M83 0v22h541v-22h-541zM353 83q-66 0 -124 24.5t-101 66.5t-68 98.5t-25 120.5t25 120.5t68 98.5t101 66.5t124 24.5t124 -24.5t101 -66.5t68 -98.5t25 -120.5t-25 -120.5t-68 -98.5t-101 -66.5t-124 -24.5zM353 685q-49 0 -92 -23t-75.5 -63t-51 -93t-18.5 -114
t18.5 -114.5t51 -93t75.5 -62.5t92 -23t92 23t75.5 62.5t51 93t18.5 114.5t-18.5 114t-51 93t-75.5 63t-92 23z" />
    </font>
</defs>
</svg>
